<?xml version="1.0" encoding="UTF-8" standalone="no"?>
<!DOCTYPE svg PUBLIC "-//W3C//DTD SVG 1.1//EN" "http://www.w3.org/Graphics/SVG/1.1/DTD/svg11.dtd">
<svg width="100%" height="100%" viewBox="0 0 512 512"  version="1.1" xmlns="http://www.w3.org/2000/svg" style="fill-rule:evenodd;clip-rule:evenodd;stroke-linecap:round;stroke-linejoin:round;">
    <path id="AL" d="M348.608,390.968L349.519,393.7L352.707,392.334L355.439,396.205L358.398,397.798L359.765,403.035L358.626,408.044L360.903,414.191L366.14,417.606L366.367,421.477L362.497,423.526L362.269,428.307L357.26,435.365L355.211,434.454L354.756,431.267L347.698,426.258L346.104,419.428L346.332,409.41L347.47,405.084L345.421,402.807L344.282,398.026L348.608,390.968Z" style="fill:rgb(236,236,236);fill-rule:nonzero;stroke:black;stroke-width:0.46px;"/>
    <path id="AT" d="M308.993,306.272L308.309,308.093L309.903,312.875L309.448,318.794L303.073,318.794L305.577,321.982L302.618,331.089L300.568,333.593L290.551,333.821L285.086,337.236L275.524,336.098L258.904,332.227L255.944,327.446L244.788,329.95L243.649,332.683L236.591,330.633L230.672,330.178L225.435,327.446L227.029,324.031L226.573,321.526L229.761,320.843L235.908,324.714L237.274,320.843L247.292,321.526L255.261,319.022L260.725,319.477L264.595,322.437L265.506,319.933L263.229,310.598L267.1,308.776L270.743,302.174L279.394,306.955L285.314,301.035L289.185,299.897L298.292,304.223L303.528,303.54L308.993,306.272Z" style="fill:rgb(255,0,0);fill-rule:nonzero;stroke:black;stroke-width:0.46px;"/>
    <path id="BE" d="M185.819,275.08L184.908,284.643L181.949,285.098L181.038,293.067L171.02,286.464L165.328,287.602L157.359,281L151.895,275.308L146.886,275.08L145.065,270.071L153.944,267.339L162.141,268.478L172.386,265.518L179.444,271.665L185.819,275.08Z" style="fill:rgb(236,236,236);fill-rule:nonzero;stroke:black;stroke-width:0.46px;"/>
    <path id="BG" d="M450.152,376.397L444.916,382.316L441.956,392.562L446.737,400.758L436.264,398.937L424.88,403.49L425.563,410.776L415.09,412.142L406.211,406.905L397.104,411.004L388.452,410.548L386.63,400.986L380.255,396.205L381.849,394.383L380.483,392.562L381.849,388.008L385.947,383.455L379.572,377.307L377.979,371.843L380.483,368.656L384.581,374.575L388.907,373.664L398.014,375.714L415.318,376.624L420.554,372.981L433.987,369.566L443.094,374.803L450.152,376.397Z" style="fill:rgb(236,236,236);fill-rule:nonzero;stroke:black;stroke-width:0.46px;"/>
    <path id="BA" d="M337.224,359.776L341.55,359.548L339.046,365.923L345.193,371.615L344.055,378.218L341.55,378.901L339.501,380.267L335.858,383.682L334.948,391.651L324.019,386.187L319.238,380.039L314.457,376.852L308.765,371.388L305.805,367.062L299.658,360.232L301.479,354.312L306.033,357.727L308.309,354.54L313.546,354.312L323.792,356.816L331.76,356.589L337.224,359.776Z" style="fill:rgb(236,236,236);fill-rule:nonzero;stroke:black;stroke-width:0.46px;"/>
    <path id="BY" d="M470.643,242.295L461.764,241.839L459.943,243.205L463.358,247.759L467.911,256.866L458.576,257.549L455.617,260.737L456.3,267.795L451.518,266.428L441.728,267.112L438.313,263.696L434.443,266.201L430.117,264.152L421.237,263.924L408.26,260.509L397.104,259.37L388.452,259.826L382.988,263.469L377.751,264.152L376.613,257.777L372.287,251.402L378.662,248.442L377.751,242.978L373.881,237.741L372.514,231.594L383.215,231.594L394.144,226.357L395.282,218.616L403.479,214.063L401.202,207.915L407.349,205.639L417.822,200.402L429.889,203.817L431.938,207.232L437.402,205.639L448.331,208.826L450.835,215.429L449.242,219.072L457.893,228.179L462.675,230.683L462.675,233.188L470.416,235.692L474.286,239.335L470.643,242.295Z" style="fill:rgb(236,236,236);fill-rule:nonzero;stroke:black;stroke-width:0.46px;"/>
    <path id="CH" d="M226.573,321.526L227.029,324.031L225.435,327.446L230.672,330.178L236.591,330.633L235.908,336.325L231.127,338.83L222.475,337.008L220.198,342.7L214.734,343.156L212.685,340.879L206.538,345.888L200.846,346.571L195.837,343.383L191.739,337.236L186.274,339.513L186.274,332.91L194.471,324.942L194.015,321.299L199.252,322.665L202.212,320.16L211.774,320.16L214.051,317.201L226.573,321.526Z" style="fill:rgb(255,0,0);fill-rule:nonzero;stroke:black;stroke-width:0.46px;"/>
    <path id="CZ" d="M284.176,270.754L289.868,275.308L298.292,276.446L297.836,280.317L304.211,283.277L305.577,279.634L313.318,281.228L314.912,285.781L323.336,286.464L329.256,293.522L325.841,293.522L324.247,296.027L321.742,296.71L321.287,299.897L319.238,300.58L319.01,301.946L315.367,303.312L310.359,303.085L308.993,306.272L303.528,303.54L298.292,304.223L289.185,299.897L285.314,301.035L279.394,306.955L270.743,302.174L263.912,296.254L257.993,292.839L256.399,286.692L254.122,282.594L261.863,279.634L265.734,275.991L273.703,273.259L276.207,270.527L279.167,272.12L284.176,270.754Z" style="fill:rgb(236,236,236);fill-rule:nonzero;stroke:black;stroke-width:0.46px;"/>
    <path id="DE" d="M270.97,233.643L274.158,240.701L271.426,244.571L275.752,249.353L279.167,256.866L278.711,261.875L284.176,270.754L279.167,272.12L276.207,270.527L273.703,273.259L265.734,275.991L261.863,279.634L254.122,282.594L256.399,286.692L257.993,292.839L263.912,296.254L270.743,302.174L267.1,308.776L263.229,310.598L265.506,319.933L264.595,322.437L260.725,319.477L255.261,319.022L247.292,321.526L237.274,320.843L235.908,324.714L229.761,320.843L226.573,321.526L214.051,317.201L211.774,320.16L202.212,320.16L203.123,309.915L208.587,300.352L192.194,297.62L186.73,293.977L187.185,287.83L184.908,284.643L185.819,275.08L183.315,260.281L189.917,260.281L192.649,255.045L194.699,242.295L192.649,237.513L194.471,234.554L203.578,233.871L205.855,236.83L212.913,230L209.953,224.764L209.042,217.023L217.466,218.844L224.069,216.795L224.752,222.031L235.908,225.219L236.136,230.228L246.837,227.496L252.756,223.853L265.506,229.317L270.97,233.643Z" style="fill:rgb(255,0,0);fill-rule:nonzero;stroke:black;stroke-width:0.46px;"/>
    <path d="M253.212,208.143L247.747,219.299L235.908,211.331L233.859,205.639L249.341,201.085L253.212,208.143Z" style="fill:rgb(236,236,236);fill-rule:nonzero;stroke:black;stroke-width:0.46px;"/>
    <path d="M224.069,216.795L217.466,218.844L209.042,217.023L204.261,209.281L203.35,195.393L204.716,191.523L207.676,187.424L216.783,186.741L220.426,182.871L228.622,179L228.622,186.058L225.89,190.612L227.484,194.255L233.404,196.304L231.127,201.54L227.939,200.174L220.881,209.965L224.069,216.795Z" style="fill:rgb(236,236,236);fill-rule:nonzero;stroke:black;stroke-width:0.46px;"/>
    <path id="EE" d="M407.121,155.55L409.171,157.826L403.251,165.567L408.715,178.317L405.072,182.643L396.421,182.416L386.403,177.407L381.622,175.813L372.97,178.09L372.742,170.121L369.327,171.942L361.814,167.161L359.537,159.42L372.059,155.55L384.809,153.728L396.421,155.777L407.121,155.55Z" style="fill:rgb(236,236,236);fill-rule:nonzero;stroke:black;stroke-width:0.46px;"/>
    <path id="FI" d="M385.264,31.466L386.175,40.117L402.796,48.541L396.193,58.104L410.992,72.447L407.121,83.376L418.278,92.938L416.228,101.59L433.077,110.47L431.028,117.072L423.286,124.813L405.072,141.661L386.858,142.8L369.555,147.581L353.39,150.541L346.104,143.255L335.403,138.929L335.631,125.724L328.8,113.885L332.443,106.144L339.957,98.175L359.992,84.059L365.912,81.327L363.863,75.863L349.064,69.943L344.966,64.934L340.867,45.582L324.475,37.157L310.814,31.01L315.823,27.823L327.434,34.198L339.501,33.742L350.202,36.702L357.943,31.238L360.448,22.131L373.881,18.033L387.086,22.814L385.264,31.466Z" style="fill:rgb(236,236,236);fill-rule:nonzero;stroke:black;stroke-width:0.46px;"/>
    <path d="M49.668,232.049L41.699,229.317L34.869,229.545L37.601,222.031L35.552,214.746L44.659,214.063L55.815,222.714L49.668,232.049Z" style="fill:rgb(236,236,236);fill-rule:nonzero;stroke:black;stroke-width:0.46px;"/>
    <path d="M85.869,166.706L74.257,181.505L84.958,179.683L96.57,179.683L93.61,190.84L83.82,203.134L94.976,203.817L95.659,205.411L105.221,221.576L112.507,223.853L119.11,239.79L122.297,245.255L135.73,247.759L134.364,256.866L128.9,260.964L133.226,268.25L123.208,275.536L108.409,275.308L89.284,279.406L84.275,276.446L76.762,283.049L66.516,281.455L58.32,286.919L52.628,284.187L69.248,269.388L79.266,266.201L61.963,263.924L59.003,258.232L70.614,253.906L64.922,246.393L67.199,237.286L83.364,238.652L85.186,230.455L78.128,222.031L77.9,221.804L64.922,219.299L62.418,215.656L66.516,209.509L63.101,205.639L57.181,212.241L56.954,198.808L51.945,191.978L56.271,177.862L64.922,166.934L73.119,167.844L85.869,166.706Z" style="fill:rgb(236,236,236);fill-rule:nonzero;stroke:black;stroke-width:0.46px;"/>
    <path d="M404.845,492.512L411.903,497.521L421.237,496.61L430.344,497.521L430.344,500.253L436.719,498.432L435.581,502.757L418.278,503.896L418.05,501.619L403.023,498.659L404.845,492.512Z" style="fill:rgb(236,236,236);fill-rule:nonzero;stroke:black;stroke-width:0.46px;"/>
    <path d="M425.791,418.062L418.505,417.606L412.358,416.24L398.242,419.883L407.349,428.079L401.657,430.584L395.055,430.584L387.997,423.07L385.947,426.258L389.59,434.91L396.193,441.74L391.867,444.927L399.153,451.53L405.528,455.856L406.438,464.052L395.055,460.182L399.153,467.695L391.639,469.061L397.331,482.039L389.363,482.267L378.889,475.892L373.425,464.28L370.465,454.49L365.229,447.887L358.398,439.463L357.26,435.365L362.269,428.307L362.497,423.526L366.367,421.477L366.14,417.606L373.881,416.468L377.979,413.28L384.354,413.508L386.175,411.004L388.452,410.548L397.104,411.004L406.211,406.905L415.09,412.142L425.563,410.776L424.88,403.49L431.028,407.361L428.523,416.468L425.791,418.062Z" style="fill:rgb(236,236,236);fill-rule:nonzero;stroke:black;stroke-width:0.46px;"/>
    <path id="HR" d="M333.809,344.522L337.224,350.214L341.095,354.312L337.224,359.776L331.76,356.589L323.792,356.816L313.546,354.312L308.309,354.54L306.033,357.727L301.479,354.312L299.658,360.232L305.805,367.062L308.765,371.388L314.457,376.852L319.238,380.039L324.019,386.187L334.948,391.651L333.809,393.928L322.425,388.691L315.14,383.455L304.211,379.129L293.51,368.656L295.787,367.517L290.095,361.37L289.412,356.589L281.899,354.312L278.711,360.459L275.069,355.678L275.069,350.669L275.296,350.441L283.493,350.897L285.314,348.62L289.412,350.897L293.966,351.124L293.738,347.254L297.609,345.66L298.292,339.968L307.171,336.098L310.814,337.919L319.921,344.066L329.711,346.799L333.809,344.522Z" style="fill:rgb(236,236,236);fill-rule:nonzero;stroke:black;stroke-width:0.46px;"/>
    <path id="HU" d="M367.278,308.776L374.108,312.647L375.247,316.517L368.644,319.477L364.318,329.04L358.398,338.83L349.519,341.562L342.233,340.879L333.809,344.522L329.711,346.799L319.921,344.066L310.814,337.919L307.171,336.098L304.439,331.317L302.618,331.089L305.577,321.982L303.073,318.794L309.448,318.794L309.903,312.875L316.051,316.745L320.376,318.111L329.711,316.517L330.394,313.558L334.72,313.102L339.957,311.053L341.323,311.964L346.559,310.143L348.836,306.727L352.479,305.817L365.001,310.143L367.278,308.776Z" style="fill:rgb(236,236,236);fill-rule:nonzero;stroke:black;stroke-width:0.46px;"/>
    <path id="IE" d="M49.668,232.049L51.262,242.067L42.382,254.589L22.347,262.786L6.865,260.737L16.655,246.165L11.874,232.049L27.128,221.121L35.552,214.746L37.601,222.031L34.869,229.545L41.699,229.317L49.668,232.049Z" style="fill:rgb(236,236,236);fill-rule:nonzero;stroke:black;stroke-width:0.46px;"/>
    <path d="M303.528,455.628L299.658,467.24L301.707,471.566L299.658,479.079L290.095,473.615L283.948,472.021L266.872,464.735L268.011,457.222L282.127,458.588L294.421,456.994L303.528,455.628Z" style="fill:rgb(236,236,236);fill-rule:nonzero;stroke:black;stroke-width:0.46px;"/>
    <path d="M226.118,412.37L233.631,422.615L232.721,441.968L227.256,441.057L222.475,445.838L217.922,441.968L216.783,424.437L213.823,416.24L220.426,416.923L226.118,412.37Z" style="fill:rgb(236,236,236);fill-rule:nonzero;stroke:black;stroke-width:0.46px;"/>
    <path d="M275.524,336.098L274.613,343.156L277.801,349.303L268.466,347.026L259.587,352.263L260.497,359.321L259.359,363.419L263.685,370.705L275.069,377.99L281.671,390.057L295.56,401.669L304.667,401.441L307.854,404.629L304.667,407.588L315.595,412.825L324.702,417.151L335.403,424.892L336.769,427.396L334.948,432.633L327.89,425.803L317.417,423.526L313.091,432.861L321.97,438.325L321.059,445.838L316.278,446.749L310.586,459.271L305.577,460.41L305.35,455.856L307.399,448.115L309.903,444.927L304.667,436.503L300.568,429.218L295.56,427.396L291.461,421.249L283.72,418.517L278.256,412.597L269.604,411.687L259.814,405.312L248.658,395.749L240.234,387.553L235.908,373.209L229.988,371.615L220.426,366.834L215.189,368.656L208.587,375.486L203.806,376.397L204.944,370.249L198.569,368.428L195.154,357.272L199.024,352.946L195.609,347.482L195.837,343.383L200.846,346.571L206.538,345.888L212.685,340.879L214.734,343.156L220.198,342.7L222.475,337.008L231.127,338.83L235.908,336.325L236.591,330.633L243.649,332.683L244.788,329.95L255.944,327.446L258.904,332.227L275.524,336.098Z" style="fill:rgb(236,236,236);fill-rule:nonzero;stroke:black;stroke-width:0.46px;"/>
    <path id="LT" d="M401.202,207.915L403.479,214.063L395.282,218.616L394.144,226.357L383.215,231.594L372.514,231.594L369.327,227.268L363.635,225.674L362.269,222.259L362.724,218.389L357.715,216.339L346.104,213.835L342.233,202.224L353.845,198.125L371.831,199.036L382.077,197.67L384.126,200.402L389.818,201.313L401.202,207.915Z" style="fill:rgb(236,236,236);fill-rule:nonzero;stroke:black;stroke-width:0.46px;"/>
    <path id="LU" d="M186.73,293.977L183.542,294.205L181.038,293.067L181.949,285.098L184.908,284.643L187.185,287.83L186.73,293.977Z" style="fill:rgb(236,236,236);fill-rule:nonzero;stroke:black;stroke-width:0.46px;"/>
    <path id="LV" d="M405.072,182.643L410.764,185.603L413.041,192.206L417.822,200.402L407.349,205.639L401.202,207.915L389.818,201.313L384.126,200.402L382.077,197.67L371.831,199.036L353.845,198.125L342.233,202.224L341.095,191.978L344.966,183.326L354.3,178.773L364.318,189.018L372.742,188.563L372.97,178.09L381.622,175.813L386.403,177.407L396.421,182.416L405.072,182.643Z" style="fill:rgb(236,236,236);fill-rule:nonzero;stroke:black;stroke-width:0.46px;"/>
    <path id="MD" d="M442.867,350.669L439.907,344.066L440.362,337.919L438.996,331.772L431.255,323.12L426.702,317.201L422.603,313.102L418.961,311.509L421.465,309.459L428.751,308.093L437.858,312.419L442.411,313.102L448.331,316.973L448.103,321.754L452.657,324.031L455.161,329.95L459.715,333.593L459.26,335.87L461.536,337.236L458.576,338.375L451.746,337.919L450.38,335.87L448.103,337.008L449.469,339.513L446.965,344.294L445.599,349.075L442.867,350.669Z" style="fill:rgb(236,236,236);fill-rule:nonzero;stroke:black;stroke-width:0.46px;"/>
    <path id="MK" d="M388.452,410.548L386.175,411.004L384.354,413.508L377.979,413.28L373.881,416.468L366.14,417.606L360.903,414.191L358.626,408.044L359.765,403.035L361.358,403.263L361.586,400.303L368.189,398.026L370.921,397.343L374.791,396.66L380.255,396.205L386.63,400.986L388.452,410.548Z" style="fill:rgb(236,236,236);fill-rule:nonzero;stroke:black;stroke-width:0.46px;"/>
    <path id="ME" d="M354.528,389.147L352.707,392.334L349.519,393.7L348.608,390.968L344.282,398.026L345.421,402.807L342.916,401.669L339.046,396.888L333.809,393.928L334.948,391.651L335.858,383.682L339.501,380.267L341.55,378.901L344.738,381.406L346.787,383.455L350.657,385.048L355.439,388.008L354.528,389.147Z" style="fill:rgb(236,236,236);fill-rule:nonzero;stroke:black;stroke-width:0.46px;"/>
    <path d="M407.121,25.546L392.55,30.327L385.264,31.466L387.086,22.814L373.881,18.033L360.448,22.131L357.943,31.238L350.202,36.702L339.501,33.742L327.434,34.198L315.823,27.823L310.814,31.01L304.894,31.466L305.122,39.662L286.908,37.613L285.542,44.671L276.435,44.671L271.198,53.55L263.457,67.439L250.479,85.425L254.578,89.979L251.618,94.988L241.828,94.76L236.363,107.054L238.64,124.586L245.698,131.188L243.877,146.898L236.136,156.005L232.038,163.746L224.524,155.55L204.944,171.032L191.056,174.219L176.257,167.389L172.158,153.045L167.605,122.309L176.712,113.885L202.44,102.729L220.881,89.296L237.274,71.537L257.537,47.175L272.109,37.841L295.56,22.358L314.912,16.894L330.166,17.577L342.006,7.559L358.854,8.015L374.791,5.738L405.983,14.617L394.827,17.805L407.121,25.546Z" style="fill:rgb(236,236,236);fill-rule:nonzero;stroke:black;stroke-width:0.46px;"/>
    <path id="PL" d="M330.166,224.308L343.599,225.902L363.635,225.674L369.327,227.268L372.514,231.594L373.881,237.741L377.751,242.978L378.662,248.442L372.287,251.402L376.613,257.777L377.751,264.152L385.037,276.446L384.354,280.317L379.117,281.911L370.465,293.75L374.108,300.125L371.604,299.214L360.22,293.75L352.251,295.799L346.787,294.433L340.412,297.393L334.265,292.384L329.939,294.433L329.256,293.522L323.336,286.464L314.912,285.781L313.318,281.228L305.577,279.634L304.211,283.277L297.836,280.317L298.292,276.446L289.868,275.308L284.176,270.754L278.711,261.875L279.167,256.866L275.752,249.353L271.426,244.571L274.158,240.701L270.97,233.643L278.028,229.545L294.193,223.17L307.399,218.616L318.327,220.893L319.693,224.308L330.166,224.308Z" style="fill:rgb(236,236,236);fill-rule:nonzero;stroke:black;stroke-width:0.46px;"/>
    <path id="RO" d="M418.961,311.509L422.603,313.102L426.702,317.201L431.255,323.12L438.996,331.772L440.362,337.919L439.907,344.066L442.867,350.669L448.331,353.401L453.568,350.897L459.032,353.401L459.943,357.272L454.706,360.232L451.063,358.865L450.152,376.397L443.094,374.803L433.987,369.566L420.554,372.981L415.318,376.624L398.014,375.714L388.907,373.664L384.581,374.575L380.483,368.656L378.206,366.151L380.483,363.647L377.523,362.053L374.108,365.24L367.05,360.915L365.456,354.995L358.171,351.807L356.349,347.026L349.519,341.562L358.398,338.83L364.318,329.04L368.644,319.477L375.247,316.517L379.8,313.33L387.086,314.924L394.371,314.924L400.063,318.567L403.706,316.29L411.903,314.924L414.179,311.509L418.961,311.509Z" style="fill:rgb(236,236,236);fill-rule:nonzero;stroke:black;stroke-width:0.46px;"/>
    <path id="RS" d="M380.483,368.656L377.979,371.843L379.572,377.307L385.947,383.455L381.849,388.008L380.483,392.562L381.849,394.383L380.255,396.205L374.791,396.66L370.921,397.343L370.238,396.205L371.604,394.611L372.514,390.968L370.921,391.196L368.416,388.464L366.367,387.78L364.546,385.504L362.269,384.593L360.448,382.544L358.398,383.455L357.26,388.236L354.528,389.147L355.439,388.008L350.657,385.048L346.787,383.455L344.738,381.406L341.55,378.901L344.055,378.218L345.193,371.615L339.046,365.923L341.55,359.548L337.224,359.776L341.095,354.312L337.224,350.214L333.809,344.522L342.233,340.879L349.519,341.562L356.349,347.026L358.171,351.807L365.456,354.995L367.05,360.915L374.108,365.24L377.523,362.053L380.483,363.647L378.206,366.151L380.483,368.656Z" style="fill:rgb(236,236,236);fill-rule:nonzero;stroke:black;stroke-width:0.46px;"/>
    <path id="SK" d="M371.604,299.214L368.872,303.085L367.278,308.776L365.001,310.143L352.479,305.817L348.836,306.727L346.559,310.143L341.323,311.964L339.957,311.053L334.72,313.102L330.394,313.558L329.711,316.517L320.376,318.111L316.051,316.745L309.903,312.875L308.309,308.093L308.993,306.272L310.359,303.085L315.367,303.312L319.01,301.946L319.238,300.58L321.287,299.897L321.742,296.71L324.247,296.027L325.841,293.522L329.256,293.522L329.939,294.433L334.265,292.384L340.412,297.393L346.787,294.433L352.251,295.799L360.22,293.75L371.604,299.214Z" style="fill:rgb(236,236,236);fill-rule:nonzero;stroke:black;stroke-width:0.46px;"/>
    <path id="SI" d="M307.171,336.098L298.292,339.968L297.609,345.66L293.738,347.254L293.966,351.124L289.412,350.897L285.314,348.62L283.493,350.897L275.296,350.441L277.801,349.303L274.613,343.156L275.524,336.098L285.086,337.236L290.551,333.821L300.568,333.593L302.618,331.089L304.439,331.317L307.171,336.098Z" style="fill:rgb(236,236,236);fill-rule:nonzero;stroke:black;stroke-width:0.46px;"/>
    <path id="SE" d="M349.064,69.943L333.126,73.586L325.158,82.465L328.117,90.434L314.001,100.679L296.243,112.063L291.461,130.505L299.885,139.84L310.814,147.353L303.301,162.38L292.827,165.567L291.461,188.335L286.68,201.313L273.703,199.947L268.694,210.875L256.171,211.558L251.846,198.581L241.6,182.871L232.038,163.746L236.136,156.005L243.877,146.898L245.698,131.188L238.64,124.586L236.363,107.054L241.828,94.76L251.618,94.988L254.578,89.979L250.479,85.425L263.457,67.439L271.198,53.55L276.435,44.671L285.542,44.671L286.908,37.613L305.122,39.662L304.894,31.466L310.814,31.01L324.475,37.157L340.867,45.582L344.966,64.934L349.064,69.943Z" style="fill:rgb(236,236,236);fill-rule:nonzero;stroke:black;stroke-width:0.46px;"/>
    <path d="M425.791,418.062L428.523,416.468L431.028,407.361L424.88,403.49L436.264,398.937L446.737,400.758L448.786,406.45L459.715,411.004L458.121,414.646L444.005,415.329L439.452,419.883L430.572,427.624L426.019,421.021L425.791,418.062Z" style="fill:rgb(236,236,236);fill-rule:nonzero;stroke:black;stroke-width:0.46px;"/>
    <path id="UA" d="M506.161,269.388L511.398,275.536L511.625,278.268L526.88,283.277L535.076,281L543.272,287.602L549.875,287.375L567.406,291.928L568.317,296.254L565.357,303.54L569.455,311.509L568.772,316.29L557.844,317.201L552.835,321.299L553.746,327.446L544.866,328.584L538.036,333.366L527.563,334.049L518.456,339.513L520.732,348.392L527.107,351.807L538.719,350.897L537.353,356.133L525.058,358.638L510.715,366.834L503.657,363.874L505.25,357.272L491.817,352.946L493.411,350.214L503.884,345.433L500.014,342.245L481.572,338.602L479.75,333.138L469.505,334.959L466.545,342.928L459.032,353.401L453.568,350.897L448.331,353.401L442.867,350.669L445.599,349.075L446.965,344.294L449.469,339.513L448.103,337.008L450.38,335.87L451.746,337.919L458.576,338.375L461.536,337.236L459.26,335.87L459.715,333.593L455.161,329.95L452.657,324.031L448.103,321.754L448.331,316.973L442.411,313.102L437.858,312.419L428.751,308.093L421.465,309.459L418.961,311.509L414.179,311.509L411.903,314.924L403.706,316.29L400.063,318.567L394.371,314.924L387.086,314.924L379.8,313.33L375.247,316.517L374.108,312.647L367.278,308.776L368.872,303.085L371.604,299.214L374.108,300.125L370.465,293.75L379.117,281.911L384.354,280.317L385.037,276.446L377.751,264.152L382.988,263.469L388.452,259.826L397.104,259.37L408.26,260.509L421.237,263.924L430.117,264.152L434.443,266.201L438.313,263.696L441.728,267.112L451.518,266.428L456.3,267.795L455.617,260.737L458.576,257.549L467.911,256.866L472.009,257.321L474.286,254.134L477.701,254.817L488.858,253.451L497.509,261.42L495.46,264.379L497.282,268.705L506.161,269.388Z" style="fill:rgb(236,236,236);fill-rule:nonzero;stroke:black;stroke-width:0.46px;"/>
    <path id="XK" d="M370.921,397.343L368.189,398.026L361.586,400.303L361.358,403.263L359.765,403.035L358.398,397.798L355.439,396.205L352.707,392.334L354.528,389.147L357.26,388.236L358.398,383.455L360.448,382.544L362.269,384.593L364.546,385.504L366.367,387.78L368.416,388.464L370.921,391.196L372.514,390.968L371.604,394.611L370.238,396.205L370.921,397.343Z" style="fill:rgb(236,236,236);fill-rule:nonzero;stroke:black;stroke-width:0.46px;"/>
    <path id="NL" d="M185.819,275.08L179.444,271.665L172.386,265.518L162.141,268.478L153.944,267.339L159.636,263.469L168.743,242.978L183.542,237.058L192.649,237.513L194.699,242.295L192.649,255.045L189.917,260.281L183.315,260.281L185.819,275.08Z" style="fill:rgb(236,236,236);fill-rule:nonzero;stroke:black;stroke-width:0.46px;"/>
    <path id="PT" d="M27.356,472.249L22.347,475.892L15.972,473.842L9.825,475.436L11.874,464.052L11.191,455.173L5.726,453.807L3.222,448.343L4.36,438.78L9.369,433.544L10.508,427.624L13.24,418.972L13.24,412.825L11.191,407.588L10.735,402.579L15.061,398.937L20.07,396.888L22.802,403.946L29.633,403.946L31.682,402.124L38.74,402.579L41.699,409.865L36.235,413.736L35.552,425.12L33.731,427.169L33.048,434.227L27.811,435.365L32.365,444.017L28.722,453.579L32.82,457.905L30.999,461.776L26.445,467.24L27.356,472.249Z" style="fill:rgb(236,236,236);fill-rule:nonzero;stroke:black;stroke-width:0.46px;"/>
    <path d="M363.635,225.674L343.599,225.902L330.166,224.308L331.76,218.389L346.104,213.835L357.715,216.339L362.724,218.389L362.269,222.259L363.635,225.674Z" style="fill:rgb(236,236,236);fill-rule:nonzero;stroke:black;stroke-width:0.46px;"/>
    <path id="ES" d="M94.976,380.495L99.529,385.959L121.159,392.562L125.485,389.374L138.69,395.977L152.123,394.155L153.034,402.579L141.877,412.142L126.851,415.329L125.712,420.111L118.427,428.079L113.873,439.919L118.427,448.343L111.596,454.718L108.864,464.28L99.757,467.24L91.333,478.396L75.851,478.624L64.467,478.396L56.726,483.405L51.945,488.869L46.025,487.731L41.699,482.722L38.512,474.526L27.356,472.249L26.445,467.24L30.999,461.776L32.82,457.905L28.722,453.579L32.365,444.017L27.811,435.365L33.048,434.227L33.731,427.169L35.552,425.12L36.235,413.736L41.699,409.865L38.74,402.579L31.682,402.124L29.633,403.946L22.802,403.946L20.07,396.888L15.061,398.937L10.735,402.579L11.874,392.334L7.32,386.187L24.168,375.714L38.284,378.218L53.994,378.218L66.289,380.722L76.079,379.812L94.976,380.495Z" style="fill:rgb(236,236,236);fill-rule:nonzero;stroke:black;stroke-width:0.46px;"/>
    <path d="M229.533,398.709L226.118,409.865L220.654,406.905L217.694,397.343L219.743,391.879L227.029,386.414L229.533,398.709Z" style="fill:rgb(236,236,236);fill-rule:nonzero;stroke:black;stroke-width:0.46px;"/>
    <path d="M181.038,293.067L183.542,294.205L186.73,293.977L192.194,297.62L208.587,300.352L203.123,309.915L202.212,320.16L199.252,322.665L194.015,321.299L194.471,324.942L186.274,332.91L186.274,339.513L191.739,337.236L195.837,343.383L195.609,347.482L199.024,352.946L195.154,357.272L198.569,368.428L204.944,370.249L203.806,376.397L193.56,384.593L170.337,380.722L153.489,385.504L152.123,394.155L138.69,395.977L125.485,389.374L121.159,392.562L99.529,385.959L94.976,380.495L101.123,371.843L103.4,343.156L91.788,328.129L83.364,320.843L66.061,315.379L65.15,304.906L79.949,301.946L98.846,305.589L95.431,289.424L106.132,295.571L132.087,284.643L135.502,273.031L145.065,270.071L146.886,275.08L151.895,275.308L157.359,281L165.328,287.602L171.02,286.464L181.038,293.067Z" style="fill:rgb(236,236,236);fill-rule:nonzero;stroke:black;stroke-width:0.46px;"/>
    <path d="M527.335,502.985L527.335,503.213L526.88,503.668L526.652,505.034L526.424,505.49L525.741,505.49L525.286,505.945L524.148,506.4L522.326,507.311L521.415,507.083L520.277,507.311L519.594,508.222L519.139,507.539L518.456,507.766L518,507.766L517.317,507.083L516.406,507.766L515.268,507.766L514.13,507.311L512.991,507.083L512.081,506.4L511.398,505.034L510.715,504.351L510.259,502.757L509.804,502.074L510.032,501.391L511.17,502.074L512.081,501.847L512.536,501.164L512.764,500.481L513.447,500.253L513.902,500.481L514.357,500.025L514.813,500.025L515.04,500.936L516.179,501.391L516.406,501.847L517.773,501.847L519.139,500.708L520.049,500.936L520.732,500.481L521.415,500.708L522.326,501.164L522.781,500.481L523.464,500.481L524.148,501.391L524.148,502.757L524.831,502.302L525.514,502.757L525.741,502.53L527.335,502.985Z" style="fill:rgb(236,236,236);fill-rule:nonzero;stroke:black;stroke-width:0.46px;"/>
    <path d="M293.738,490.463L293.283,491.146L292.144,490.691L291.006,490.008L291.006,488.869L290.778,488.641L292.144,488.641L293.055,489.325L293.51,489.78L293.738,490.463Z" style="fill:rgb(236,236,236);fill-rule:nonzero;stroke:black;stroke-width:0.46px;"/>
    <path d="M290.095,487.958L288.957,487.731L288.957,487.275L289.868,487.048L290.778,487.731L290.095,487.958Z" style="fill:rgb(236,236,236);fill-rule:nonzero;stroke:black;stroke-width:0.46px;"/>
    <path id="_0" d="M143.471,302.401Z" style="fill:rgb(236,236,236);stroke:black;stroke-width:0.46px;"/>
</svg>
