<?xml version="1.0" encoding="UTF-8" standalone="no"?>
<!DOCTYPE svg PUBLIC "-//W3C//DTD SVG 1.1//EN" "http://www.w3.org/Graphics/SVG/1.1/DTD/svg11.dtd">
<svg width="100%" height="100%" viewBox="0 0 512 512" version="1.1" xmlns="http://www.w3.org/2000/svg" style="fill-rule:evenodd;clip-rule:evenodd;stroke-linecap:round;stroke-linejoin:round;stroke-miterlimit:1.5;">
    <g transform="matrix(1.609,0,0,1.609,-466.163,-296.88)">
        <path d="M446.106,330.171L331.711,215.422L330.741,375.646L369.351,336.413L396.756,388.566L416.9,377.421L391.828,329.905L446.106,330.171Z" style="fill:rgb(235,235,235);stroke:black;stroke-width:2.59px;"/>
    </g>
    <g transform="matrix(1.62394,0,0,1.62394,-285.233,58.5633)">
        <path d="M468.352,193.571L467.515,132.972C467.496,111.006 437.972,109.218 437.888,132.523L437.98,149.229L437.888,115.902C438.232,94.896 410.027,94.789 409.295,115.79L409.174,140.033L409.473,101.887C409.341,83.32 381.283,83.644 381.216,102.243L380.512,140L381.479,63.85C381.564,42.827 353.436,43.788 352.859,63.96L352.84,158.648L335.878,136.708C325.977,123.909 305.026,138.927 316.055,155.714L363.455,229.897L363.228,248.91L446.771,248.91L468.352,193.571Z" style="fill:rgb(235,235,235);stroke:black;stroke-width:2.57px;"/>
    </g>
</svg>
