<?xml version="1.0" encoding="UTF-8" standalone="no"?>
<!DOCTYPE svg PUBLIC "-//W3C//DTD SVG 1.1//EN" "http://www.w3.org/Graphics/SVG/1.1/DTD/svg11.dtd">
<svg width="100%" height="100%" viewBox="0 0 512 512" version="1.1" xmlns="http://www.w3.org/2000/svg" style="fill-rule:evenodd;clip-rule:evenodd;stroke-linecap:round;stroke-linejoin:round;stroke-miterlimit:1.5;">
    <g>
        <g transform="matrix(3.55325,0,0,5.22138,-62.0422,-99.3629)">
            <rect x="17.461" y="19.03" width="144.094" height="98.058" style="fill:rgb(6,87,214);"/>
        </g>
        <g transform="matrix(1,0,0,1,1.12281,-101.053)">
            <g style="filter:url(#_Effect1);">
                <path d="M452.735,281.392L-0.504,129.439L-0.878,562.094L452.735,426.983L452.735,281.392Z" style="fill:rgb(0,178,250);"/>
            </g>
        </g>
        <g transform="matrix(1.05487,0,0,1.35231,28.3792,-141.469)">
            <rect x="55.786" y="156.274" width="375.126" height="211.401" style="fill:white;stroke:rgb(119,119,119);stroke-width:0.34px;"/>
        </g>
    </g>
    <g transform="matrix(1.05487,0,0,1.35231,28.3792,-141.469)">
        <rect x="55.786" y="156.274" width="375.126" height="211.401" style="fill:white;stroke:rgb(119,119,119);stroke-width:0.34px;"/>
    </g>
    <g transform="matrix(1.05621,0,0,0.942765,4.8772,-78.3087)">
        <rect x="78.202" y="441.365" width="374.206" height="18.856" style="fill:rgb(240,240,240);"/>
    </g>
    <g transform="matrix(0.0149226,0,0,12.921,475.965,-5608.71)">
        <rect x="78.202" y="441.365" width="374.206" height="18.856" style="fill:rgb(240,240,240);"/>
    </g>
    <g transform="matrix(0.936284,0,0,1,41.3329,-310.037)">
        <path d="M413.69,386.134L418.211,386.134" style="fill:none;stroke:black;stroke-width:0.43px;stroke-linecap:square;"/>
    </g>
    <g transform="matrix(1,0,0,1,14.8509,-310.304)">
        <rect x="435.323" y="384.257" width="4.372" height="4.372" style="fill:none;stroke:black;stroke-width:0.42px;stroke-linecap:square;"/>
    </g>
    <g transform="matrix(1,0,0,1,36.3814,-109.149)">
        <path d="M438.591,448.131L437.335,448.117L439.062,449.835L437.338,451.554L438.579,451.559L440.289,449.837L438.591,448.131Z" style="fill:rgb(191,191,191);"/>
    </g>
    <g transform="matrix(6.12323e-17,1,-1,6.12323e-17,929.952,-102.909)">
        <path d="M438.591,448.131L437.335,448.117L439.062,449.835L437.338,451.554L438.579,451.559L440.289,449.837L438.591,448.131Z" style="fill:rgb(191,191,191);"/>
    </g>
    <g transform="matrix(6.12323e-17,-1,1,6.12323e-17,30.1989,535.48)">
        <path d="M438.591,448.131L437.335,448.117L439.062,449.835L437.338,451.554L438.579,451.559L440.289,449.837L438.591,448.131Z" style="fill:rgb(191,191,191);"/>
    </g>
    <g transform="matrix(-1,0,0,1,530.006,-109.149)">
        <path d="M438.591,448.131L437.335,448.117L439.062,449.835L437.338,451.554L438.579,451.559L440.289,449.837L438.591,448.131Z" style="fill:rgb(191,191,191);"/>
    </g>
    <g transform="matrix(1,0,0,1,30.0535,-104.453)">
        <path d="M451.831,455.767L448.424,459.224L451.831,459.224L451.831,455.767Z" style="fill:rgb(191,191,191);"/>
    </g>
    <g transform="matrix(2.2019,0,0,2.20444,-84.1345,-645.013)">
        <path d="M78.129,448.625L257.274,448.625" style="fill:none;stroke:rgb(215,215,215);stroke-width:0.19px;stroke-linecap:square;"/>
    </g>
    <g transform="matrix(8.78907,0,0,0.878655,-7.49058,66.888)">
        <rect x="0.852" y="478.131" width="58.254" height="28.453" style="fill:rgb(51,51,51);"/>
    </g>
    <g transform="matrix(1,0,0,1,0.926892,82.629)">
        <path d="M16.497,412.583L7.151,413.738L7.151,420.745L16.346,421.951L16.497,412.583Z" style="fill:white;"/>
    </g>
    <g transform="matrix(0.998707,0,0,1.18173,-1.03891,6.02708)">
        <rect x="26.432" y="407.18" width="190.246" height="21.155" style="fill:rgb(242,242,242);stroke:rgb(119,119,119);stroke-width:0.91px;"/>
    </g>
    <g transform="matrix(1,0,0,1,1.71853,83.3791)">
        <circle cx="37.728" cy="415.332" r="2.6" style="fill:white;stroke:black;stroke-width:0.83px;"/>
    </g>
    <g transform="matrix(1,0,0,1,1.38142,83.0736)">
        <path d="M32.34,421.387L36.212,417.461" style="fill:none;stroke:black;stroke-width:0.83px;"/>
    </g>
    <g transform="matrix(1,0,0,1,2.91271,-1.9198)">
        <g transform="matrix(9.16667,0,0,9.16667,124.466,505.139)">
        </g>
        <text x="43.448px" y="505.139px" style="font-family:'ArialMT', 'Arial', sans-serif;font-size:9.167px;fill:rgb(43,43,43);">T<tspan x="48.541px 53.125px " y="505.139px 505.139px ">yp</tspan>e here to search</text>
    </g>
    <g transform="matrix(1,0,0,1,11.3573,-104.361)">
        <path d="M250.86,449.254L250.86,459.486" style="fill:none;stroke:rgb(215,215,215);stroke-width:0.42px;stroke-linecap:square;"/>
    </g>
    <g transform="matrix(1,0,0,1,81.3573,-104.361)">
        <path d="M250.86,449.254L250.86,459.486" style="fill:none;stroke:rgb(215,215,215);stroke-width:0.42px;stroke-linecap:square;"/>
    </g>
    <g transform="matrix(1,0,0,1,111.357,-104.361)">
        <path d="M250.86,449.254L250.86,459.486" style="fill:none;stroke:rgb(215,215,215);stroke-width:0.42px;stroke-linecap:square;"/>
    </g>
    <g transform="matrix(1,0,0,1,163.357,-104.361)">
        <path d="M250.86,449.254L250.86,459.486" style="fill:none;stroke:rgb(215,215,215);stroke-width:0.42px;stroke-linecap:square;"/>
    </g>
    <g transform="matrix(1,0,0,1,-1.16355,-1.43436)">
        <g transform="matrix(6.25,0,0,6.25,296.085,353.283)">
        </g>
        <text x="265.857px" y="353.283px" style="font-family:'ArialMT', 'Arial', sans-serif;font-size:6.25px;fill:rgb(43,43,43);">Ln 1, Col 1</text>
    </g>
    <g transform="matrix(1,0,0,1,68.7934,-1.19124)">
        <g transform="matrix(6.25,0,0,6.25,281.842,353.283)">
        </g>
        <text x="265.857px" y="353.283px" style="font-family:'ArialMT', 'Arial', sans-serif;font-size:6.25px;fill:rgb(43,43,43);">100%</text>
    </g>
    <g transform="matrix(1,0,0,1,98.5934,-1.07971)">
        <g transform="matrix(6.25,0,0,6.25,313.431,353.283)">
        </g>
        <text x="265.857px" y="353.283px" style="font-family:'ArialMT', 'Arial', sans-serif;font-size:6.25px;fill:rgb(43,43,43);">Windows (CRLF)</text>
    </g>
    <g transform="matrix(1,0,0,1,150.495,-1.17598)">
        <g transform="matrix(6.25,0,0,6.25,283.563,353.283)">
        </g>
        <text x="265.857px" y="353.283px" style="font-family:'ArialMT', 'Arial', sans-serif;font-size:6.25px;fill:rgb(43,43,43);">UTF-8</text>
    </g>
    <g transform="matrix(1.00182,0,0,1,-0.819471,4)">
        <path d="M482.256,89.776L88.527,89.776" style="fill:none;stroke:rgb(240,240,240);stroke-width:0.83px;stroke-linecap:square;"/>
    </g>
    <g transform="matrix(1,0,0,1,-9.98242,-304.001)">
        <g transform="matrix(6.25,0,0,6.25,194.922,393.988)">
        </g>
        <text x="100.217px" y="393.988px" style="font-family:'ArialMT', 'Arial', sans-serif;font-size:6.25px;fill:rgb(43,43,43);">File    Edit    Format    V<tspan x="165.744px 167.133px " y="393.988px 393.988px ">ie</tspan>w    Help</text>
    </g>
    <g transform="matrix(1,0,0,1,14.0974,-310.053)">
        <path d="M461.934,384.093L457.335,388.692" style="fill:none;stroke:black;stroke-width:0.42px;stroke-linecap:square;"/>
    </g>
    <g transform="matrix(1,0,0,1,14.0974,-310.053)">
        <path d="M457.407,384.134L461.954,388.681" style="fill:none;stroke:black;stroke-width:0.42px;stroke-linecap:square;"/>
    </g>
    <g transform="matrix(1,0,0,1,-14.9707,-308.396)">
        <g transform="matrix(1,0,0,1,7.34056,-0.70793)">
            <rect x="101.299" y="382.852" width="5.588" height="7.155" style="fill:rgb(145,132,97);"/>
        </g>
        <g transform="matrix(1,0,0,1,7.55125,-0.74164)">
            <rect x="101.139" y="382.92" width="5.149" height="6.481" style="fill:rgb(252,253,253);"/>
        </g>
        <g transform="matrix(1,0,0,1,7.32371,-0.699502)">
            <path d="M106.509,382.836L101.324,382.857L99.616,389.111L105.371,389.06L106.509,382.836Z" style="fill:rgb(141,200,213);"/>
        </g>
    </g>
    <g transform="matrix(1,0,0,1,4.26982,-0.376749)">
        <g transform="matrix(9.58333,0,0,9.58333,133.948,81.1648)">
        </g>
        <text x="101.454px" y="81.165px" style="font-family:'ArialMT', 'Arial', sans-serif;font-size:9.583px;fill:rgb(43,43,43);">Untitled</text>
    </g>
    <defs>
        <filter id="_Effect1" filterUnits="userSpaceOnUse" x="-261.657" y="-131.339" width="975.171" height="954.212">
            <feGaussianBlur in="SourceGraphic" stdDeviation="43.4631"/>
        </filter>
    </defs>
</svg>
