<?xml version="1.0" encoding="UTF-8" standalone="no"?>
<!DOCTYPE svg PUBLIC "-//W3C//DTD SVG 1.1//EN" "http://www.w3.org/Graphics/SVG/1.1/DTD/svg11.dtd">
<svg width="100%" height="100%" viewBox="0 0 1024 769" version="1.1" xmlns="http://www.w3.org/2000/svg" style="fill-rule:evenodd;clip-rule:evenodd;stroke-linecap:round;stroke-linejoin:round;stroke-miterlimit:1.5;" calcMode="discrete">
    <g id="side">
        <g id="side-Mouse" transform="matrix(0.221453,0,0,0.221453,32.8058,43.2788)">
            <g transform="matrix(1,0,0,1,-101.52,-140.098)">
                <path d="M2175.16,1611.53L905.354,2018.23L377.672,2141.99L984.682,2806.04C984.682,2806.04 2235.05,2964.91 2742.41,2968.83C3173.71,2972.17 4028.83,2829.59 4028.83,2829.59C4028.83,2829.59 4171.15,2685.69 4151.65,2601.6C3980.4,1863.24 2849.39,1191.72 2056.55,1379.14C2125.6,1459.01 2160.71,1523.9 2175.16,1611.53Z" style="fill:url(#_Linear2);stroke:black;stroke-width:8.97px;"/>
            </g>
            <path id="LMB" d="M1938.52,1241.34C1353.26,1280.59 763.444,1517.82 171.251,1858.59L254.025,1983.8L785.166,1861.27L2056.77,1451.85C2041.87,1383.32 2005.4,1313.34 1938.52,1241.34Z" style="fill:rgb(137,137,137);stroke:black;stroke-width:7.13px;"/>
        </g>
        <g id="side-Hand" transform="matrix(0.221453,0,0,0.221453,0,0)">
            <g id="side-Finger">
                <path d="M2562.27,768.907L2477.19,1642.75C2229.66,1688.32 2051.55,1673.73 1958.18,1589.1C1819.04,1664.72 1626.33,1692.13 1348.57,1642.99C1336.3,1664.47 1148.39,1756.82 1067.77,1763.68C921.016,1776.16 515.226,1937.03 515.226,1937.03C428.04,1972.03 124.015,1829.99 287.364,1706.48C400.061,1621.27 859.101,1364.5 1021.15,1253.12C1109.02,1192.72 1208.03,1150.02 1312.97,1123.36C1540.03,1065.68 2126.27,917.137 2358.63,820.831C2430.13,791.2 2495.8,772.687 2562.27,768.907Z" style="fill:rgb(192,140,113);stroke:rgb(13,18,21);stroke-width:5.05px;"/>
                <g transform="matrix(1,0,0,1,-0.733707,-9.44452)">
                    <path d="M2016.79,1433.19L1958.32,1594" style="fill:none;stroke:rgb(13,18,21);stroke-width:3.21px;"/>
                </g>
                <g transform="matrix(1,0,0,1,12.6902,-12.6901)">
                    <path d="M1113.29,1219.02C1107.76,1258.1 1120.37,1290.6 1153.87,1315.49" style="fill:none;stroke:rgb(13,18,21);stroke-width:3.21px;"/>
                </g>
                <g transform="matrix(1,0,0,1,12.6902,-12.6901)">
                    <path d="M1167.84,1212.37L1191.8,1272.24" style="fill:none;stroke:rgb(13,18,21);stroke-width:3.21px;"/>
                </g>
                <g transform="matrix(1,0,0,1,12.6902,-12.6901)">
                    <path d="M1372.1,1123.21C1373.25,1154.12 1365.85,1181.9 1347.48,1205.71" style="fill:none;stroke:rgb(13,18,21);stroke-width:3.21px;"/>
                </g>
                <g transform="matrix(1,0,0,1,-2035.73,114.279)">
                    <path d="M2444.02,1516.52C2387.12,1542.36 2300.68,1612.67 2303.9,1612.4C2303.9,1612.4 2353.83,1600.55 2375.93,1588.17C2401.61,1573.78 2444.02,1516.52 2444.02,1516.52Z" style="fill:rgb(195,125,88);"/>
                </g>
            </g>
            <path d="M2488.12,1534.82L2562.27,768.907C2627.07,765.221 2692.64,775.538 2765.12,803.207C3049.21,911.661 3757.61,1179.79 4072.3,1279.7C4270.1,1342.5 4679.26,1418.28 4679.26,1418.28L4740.48,2765.74C4740.48,2765.74 4453.15,2706.98 4385.27,2702.3C4241.7,2692.39 4112.46,2827.93 4009.81,2868.14C3763.18,2964.74 3569.96,3008.7 3491.89,3008.18C3330.9,3007.1 3015.71,2927.52 3015.71,2927.52C3015.71,2927.52 2114.07,2807.62 2021.83,2816.44C1738.74,2843.52 1438.75,2855.98 1258.15,2813.94C1119.63,2781.69 920.726,2753.26 912.234,2564.18C907.456,2457.81 959.3,2283.4 1324.14,2178.48C1523.55,2121.14 1868.63,2106.15 2054.87,2077.25C2184.44,2057.14 2441.57,2005.07 2441.57,2005.07C2437.14,2002.11 2440.35,1873.34 2452.61,1813.74C2460.68,1774.5 2469.73,1703 2476.68,1642.22C2483.38,1583.52 2488.12,1534.82 2488.12,1534.82Z" style="fill:rgb(192,140,113);stroke:rgb(13,18,21);stroke-width:5.05px;"/>
            <g transform="matrix(1,0,0,1,-1219.5,826.952)">
                <path d="M2447.34,1482.59C2378.12,1487.63 2149.82,1517.64 2162.19,1718.19C2174.15,1912.24 2321.11,1911.25 2405.96,1911.98C2444.02,1912.31 2527.87,1923.26 2557,1879.37C2572.9,1855.41 2556.49,1505.22 2549.58,1496.35C2537.34,1480.63 2481.64,1480.1 2447.34,1482.59Z" style="fill:rgb(195,125,88);"/>
            </g>
            <g transform="matrix(1,0,0,1,12.6902,-12.6901)">
                <path d="M1758.74,2153.95C1741.02,2322.71 1747.23,2494.14 1768.49,2667.24" style="fill:none;stroke:rgb(13,18,21);stroke-width:3.21px;"/>
            </g>
            <g transform="matrix(1,0,0,1,12.6902,-12.6901)">
                <path d="M1661.28,2241.66C1639.52,2351.13 1641.89,2455.43 1680.78,2551.91" style="fill:none;stroke:rgb(13,18,21);stroke-width:3.21px;"/>
            </g>
            <g transform="matrix(1,0,0,1,12.6902,-12.6901)">
                <path d="M1632.05,2173.44C1534.12,2314.01 1509.59,2480.1 1610.93,2689.97" style="fill:none;stroke:rgb(13,18,21);stroke-width:3.21px;"/>
            </g>
            <g transform="matrix(1,0,0,1,12.6902,-12.6901)">
                <path d="M1614.18,2545.41L1692.15,2753.32" style="fill:none;stroke:rgb(13,18,21);stroke-width:3.21px;"/>
            </g>
            <path d="M2619.85,773.138C2566.67,767.478 2527.46,773.101 2498.46,786.975L2440.34,1369.84L2554.69,1374.07L2619.85,773.138Z" style="fill:rgb(192,140,113);"/>
        </g>
        <g id="side-Arrow" transform="matrix(9.73988e-17,-1.59064,1.59064,9.73988e-17,-451.18,795.293)">
            <path d="M452.036,345.306L338.942,345.306L338.942,337.27L304.854,372.654L338.942,409.699L338.942,402.285L452.036,402.285L452.036,345.306Z" style="fill:rgb(255,0,0);"/>
        </g>
        <g id="side-ArrowUp">
            <g transform="matrix(9.73984e-17,1.59064,-1.59064,9.73984e-17,725.286,-439.676)">
                <path d="M452.036,345.306L338.942,345.306L338.942,337.27L304.854,372.654L338.942,409.699L338.942,402.285L452.036,402.285L452.036,345.306Z" style="fill:rgb(255,0,0);"/>
            </g>
        </g>
        <g id="side-Click" transform="matrix(0.221453,0,0,0.221453,0,0)">
            <g transform="matrix(0.961822,-0.0565191,-0.0565191,0.916329,73.6515,166.562)">
                <path d="M746.554,2020.26L332.35,1407.07" style="fill:none;stroke:black;stroke-width:76.74px;"/>
            </g>
            <g transform="matrix(1,0,0,1,-10.152,-75.1252)">
                <path d="M862.287,2001.98L896.818,1401.8" style="fill:none;stroke:black;stroke-width:67.75px;"/>
            </g>
            <path d="M996.294,1981.68L1359.74,1545.14" style="fill:none;stroke:black;stroke-width:67.75px;"/>
            <path d="M588.182,2091.32L56.215,1987.77" style="fill:none;stroke:black;stroke-width:67.75px;"/>
        </g>
    </g>
    <g id="top">
        <g id="top-Hand">
            <g id="top-Mouse" transform="matrix(1,0,0,1,-236.965,25.1804)">
                <g transform="matrix(1,0,0,1,-1.58069,-1.75637)">
                    <path d="M717.967,170.923C718.396,68.866 673.694,23.485 593.56,22.6L474.499,22.858C386.014,21.572 336.897,66.354 336.468,168.113L339.279,515.185C342.281,808.947 718.947,787.233 716.562,513.078L717.967,170.923Z" style="fill:url(#_Linear3);"/>
                </g>
                <g transform="matrix(1,0,0,1,39.0454,2.39428)">
                    <g transform="matrix(1.58333,0,0,1,-347.87,-1.79861)">
                        <path d="M529.292,22.047L527.082,22.047L527.082,89.632L520.064,89.664L520.053,178.569L527.181,178.504L527.113,250.007L529.395,250.118L529.333,178.484L536.919,178.414L536.627,89.589L529.483,89.621L529.292,22.047Z"/>
                    </g>
                    <g transform="matrix(1,0,0,1,-38.9867,-2.23298)">
                        <path d="M536.179,92.255L519.064,92.255C515.497,122.283 515.791,150.901 519.305,177.709L535.455,177.77C538.803,149.445 539.429,120.741 536.179,92.255Z" style="fill:rgb(27,27,27);"/>
                    </g>
                    <path d="M481.157,91.814L496.305,91.814" style="fill:none;stroke:rgb(59,59,59);stroke-width:1px;"/>
                    <g transform="matrix(1,0,0,1,0,81.8358)">
                        <path d="M481.157,91.814L496.305,91.814" style="fill:none;stroke:rgb(59,59,59);stroke-width:1px;"/>
                    </g>
                    <g transform="matrix(1,0,0,1,0,0.923833)">
                        <path d="M480.131,97.185L496.848,97.185" style="fill:none;stroke:rgb(59,59,59);stroke-width:1px;"/>
                    </g>
                    <g transform="matrix(1,0,0,1,0,2.45117)">
                        <path d="M479.406,101.953L497.451,101.953" style="fill:none;stroke:rgb(59,59,59);stroke-width:1px;"/>
                    </g>
                    <g transform="matrix(1,0,0,1,0,3.55606)">
                        <path d="M478.984,107.143L497.813,107.143" style="fill:none;stroke:rgb(59,59,59);stroke-width:1px;"/>
                    </g>
                    <g transform="matrix(1,0,0,1,0,4.60059)">
                        <path d="M478.803,112.394L498.357,112.394" style="fill:none;stroke:rgb(59,59,59);stroke-width:1px;"/>
                    </g>
                    <g transform="matrix(1,0,0,1,0,5.10197)">
                        <path d="M478.622,118.187L498.357,118.187" style="fill:none;stroke:rgb(59,59,59);stroke-width:1px;"/>
                    </g>
                    <g transform="matrix(1,0,0,1,0,5.13261)">
                        <path d="M478.059,124.452L498.53,124.452" style="fill:none;stroke:rgb(59,59,59);stroke-width:1px;"/>
                    </g>
                    <g transform="matrix(1,0,0,1,0,5.28636)">
                        <path d="M478.059,130.593L498.762,130.593" style="fill:none;stroke:rgb(59,59,59);stroke-width:1px;"/>
                    </g>
                    <g transform="matrix(1,0,0,1,0,5.32424)">
                        <path d="M478.098,136.85L498.453,136.85" style="fill:none;stroke:rgb(59,59,59);stroke-width:1px;"/>
                    </g>
                    <g transform="matrix(1,0,0,1,0,4.58964)">
                        <path d="M478.214,143.88L498.376,143.88" style="fill:none;stroke:rgb(59,59,59);stroke-width:1px;"/>
                    </g>
                    <g transform="matrix(1,0,0,1,0,4.24127)">
                        <path d="M478.716,150.523L498.106,150.523" style="fill:none;stroke:rgb(59,59,59);stroke-width:1px;"/>
                    </g>
                    <g transform="matrix(1,0,0,1,0,4.16328)">
                        <path d="M478.871,156.896L497.526,156.896" style="fill:none;stroke:rgb(59,59,59);stroke-width:1px;"/>
                    </g>
                    <g transform="matrix(1,0,0,1,0,3.58317)">
                        <path d="M479.952,163.772L496.87,163.772" style="fill:none;stroke:rgb(59,59,59);stroke-width:1px;"/>
                    </g>
                </g>
            </g>
            <g id="top-Hand-actual" transform="matrix(1,0,0,1,-236.965,25.1804)">
                <g transform="matrix(0.248153,0,0,0.262313,79.5429,-140.816)">
                    <path d="M1597.94,1024.22C1568.83,845.576 1262.84,860.333 1227.81,1036.69C1227.81,1036.69 1142.44,1438.79 1114.5,1578.38C1096.56,1667.98 1104.57,1876.13 1106.59,1882.19C1106.59,1882.19 1153.01,2346.46 1162.04,2483.3C1166.87,2556.46 1160.76,2629.93 1160.78,2703.25C1160.8,2791.3 1185.99,2920.6 1186.94,2968.3C1187.55,2999.09 1143.03,3032.82 1122.65,3066.08C1101.77,3100.18 1061.64,3172.88 1061.64,3172.88C1061.64,3172.88 1101.77,3100.18 1122.65,3066.08C1143.03,3032.82 1191.01,2989.35 1186.94,2968.3C1175.34,2908.41 1160.78,2703.25 1160.78,2703.25L1162.04,2483.3L1066.96,2444.08L1162.04,2483.3L1110.92,1925.84C1098.55,1861.58 977.008,1827.85 941.297,1922.75C922.638,1972.34 903.04,2166.36 903.04,2166.36C903.04,2166.36 811.964,2324.86 753.198,2394.21C685.168,2474.5 723.93,2586.75 721.376,2683.84C718.125,2807.44 723.902,3001.34 733.69,3135.81C742.35,3254.78 780.103,3490.64 780.103,3490.64L3083.05,3514.47C3083.05,3514.47 3093.32,2343.61 3006.78,2071.96C2940.65,1864.33 2850.49,1819.76 2850.49,1819.76L2919.57,2229.53C2919.57,2229.53 2839.43,1646.07 2771.17,1554.1C2661.47,1406.28 2593.52,1282.06 2567.97,1201.16C2540.5,1114.15 2351.5,981.668 2373.45,1132.89C2371.79,1136.54 2428.47,1269.74 2443.55,1337.86C2470.03,1457.58 2505.64,1592.84 2514.27,1854.96C2518.49,1983.23 2519.26,2239.93 2519.26,2239.93L2558.96,2459.55C2558.96,2459.55 2524.74,2314.12 2519.26,2239.93C2511.81,2139.17 2522.28,1983.05 2514.27,1854.96C2508.03,1755.08 2511.2,1562.65 2443.55,1337.86C2422.74,1268.72 2390.37,1196.89 2373.45,1132.89C2357.96,1074.31 2342.02,953.852 2342.02,953.852C2324.82,764.531 2021.43,779.686 2001.11,893.923L1986.27,1153.99C1986.27,1153.99 1971.92,1230.96 1970.59,1269.94C1969.09,1313.48 1977.73,1366.77 1977.32,1415.26C1976.76,1481.82 1967.21,1669.32 1967.21,1669.32L1914.01,2186.03L1760.97,2224.29C1760.97,2224.29 1644.06,1738.53 1616.84,1588.87C1601.13,1502.54 1596.95,1395.64 1597.61,1326.32C1598.11,1274.62 1620.76,1223.29 1620.82,1172.94C1620.87,1122.79 1606.01,1073.72 1597.94,1024.22Z" style="fill:rgb(192,140,113);stroke:rgb(112,69,50);stroke-width:22.49px;"/>
                </g>
                <g transform="matrix(0.063137,0,0,0.063137,261.769,13.8995)">
                    <path d="M2153.44,1615.05C2081.54,1731.17 2201.58,2001.22 2257.94,2016.78C2289.19,2025.4 2758.87,2095.23 3048,2019.11C3217.7,1974.43 3277.31,1767.3 3277.31,1767.3C3279.45,1782.24 3223.84,1350.85 2689.34,1320.02C2389.52,1302.73 2225.34,1498.92 2153.44,1615.05Z" style="fill:rgb(195,125,88);"/>
                </g>
                <g transform="matrix(0.0724921,0,0,0.0724921,430.592,-40.6799)">
                    <path d="M2182.67,1751.95C2116.47,1860.95 2201.58,2001.22 2257.94,2016.78C2289.19,2025.4 2800.93,2133.24 2928.01,2119.09C2998.96,2111.2 3031.15,1995.98 3020.43,1931.89C3015.09,1899.99 2993.41,1644.18 2563.2,1619.98C2298.32,1605.08 2216.85,1695.67 2182.67,1751.95Z" style="fill:rgb(195,125,88);"/>
                </g>
                <g transform="matrix(0.0571751,0,0,0.0559761,199.323,249.986)">
                    <path d="M2067.21,1981.72C1992.69,2131.68 1916.4,2605.23 1872.68,3168.79C1872.68,3168.79 2251.88,2883.97 2286.28,2760.82C2376.45,2438.07 2372.23,2412.54 2376.29,2347.69C2387.78,2164.38 2067.21,1981.72 2067.21,1981.72Z" style="fill:rgb(195,125,88);"/>
                </g>
                <g transform="matrix(0.0483259,0,0,0.0483259,592.76,35.4926)">
                    <path d="M2218.72,2462.78C1909.66,2099.65 1545.13,2125.64 1633.04,2378.5C1653.15,2436.34 1811.99,2636.74 1991.86,2751.81C2135.03,2843.41 2424.86,2914.88 2483.33,2896.66C2575.89,2867.81 2252.7,2474.77 2218.72,2462.78Z" style="fill:rgb(195,125,88);"/>
                </g>
                <g transform="matrix(0.238196,0,0,0.238196,91.4217,-80.4722)">
                    <path d="M2637.37,1786.6L2824.49,1873.09" style="fill:none;stroke:rgb(112,69,50);stroke-width:23.9px;"/>
                </g>
                <g transform="matrix(0.238196,0,0,0.238196,91.4217,-80.4722)">
                    <path d="M2676.46,1867.27C2727.84,1904.96 2784.75,1934.37 2849.44,1952.1" style="fill:none;stroke:rgb(112,69,50);stroke-width:23.9px;"/>
                </g>
                <g transform="matrix(0.238196,0,0,0.238196,91.4217,-80.4722)">
                    <path d="M2629.81,1733.48L2846.04,1840.76" style="fill:none;stroke:rgb(112,69,50);stroke-width:23.9px;"/>
                </g>
                <g transform="matrix(0.238196,0,0,0.238196,91.4217,-80.4722)">
                    <path d="M2147.45,1577.96C2230.54,1604.23 2334.09,1624.04 2459.32,1637.01" style="fill:none;stroke:rgb(112,69,50);stroke-width:23.9px;"/>
                </g>
                <g transform="matrix(0.238196,0,0,0.238196,91.4217,-80.4722)">
                    <path d="M2217.3,1438.24C2300.5,1451.49 2376.95,1477.11 2446.84,1514.76" style="fill:none;stroke:rgb(112,69,50);stroke-width:23.9px;"/>
                </g>
                <g transform="matrix(0.238196,0,0,0.238196,91.4217,-80.4722)">
                    <path d="M2095.88,1491.47C2189.33,1510.75 2267.74,1518.76 2334.57,1518.08" style="fill:none;stroke:rgb(112,69,50);stroke-width:23.9px;"/>
                </g>
                <g transform="matrix(0.238196,0,0,0.238196,91.4217,-80.4722)">
                    <path d="M703.816,2499.06L781.739,2443.71" style="fill:none;stroke:rgb(112,69,50);stroke-width:23.9px;"/>
                </g>
                <g transform="matrix(0.238196,0,0,0.238196,91.4217,-80.4722)">
                    <path d="M706.797,2582.52C755.533,2526.43 819.157,2489.29 892.875,2465" style="fill:none;stroke:rgb(112,69,50);stroke-width:23.9px;"/>
                </g>
                <g transform="matrix(0.238196,0,0,0.238196,91.4217,-80.4722)">
                    <path d="M1197.9,1690.64C1197.9,1690.64 1294.55,1639.48 1345.71,1627.3C1396.88,1615.11 1504.9,1617.55 1504.9,1617.55" style="fill:none;stroke:rgb(112,69,50);stroke-width:23.9px;"/>
                </g>
                <g transform="matrix(0.238196,0,0,0.238196,91.4217,-80.4722)">
                    <path d="M1165.87,1805L1506.52,1700.25" style="fill:none;stroke:rgb(112,69,50);stroke-width:23.9px;"/>
                </g>
            </g>
            <g id="top-Click" transform="matrix(1,0,0,1,-214.033,-215.832)">
                <g transform="matrix(0.221453,0,0,0.221453,213.527,-122.456)">
                    <path d="M644.021,2072.31L414.295,1856.8" style="fill:none;stroke:black;stroke-width:36.5px;"/>
                </g>
                <g transform="matrix(0.221453,0,0,0.221453,374.272,9.9512)">
                    <path d="M644.021,2072.31L414.295,1856.8" style="fill:none;stroke:black;stroke-width:36.5px;"/>
                </g>
                <g transform="matrix(0.221453,0,0,0.221453,224.578,-126.528)">
                    <path d="M828.789,2001.25L830.529,1704.52" style="fill:none;stroke:black;stroke-width:36.5px;"/>
                </g>
                <g transform="matrix(0.221453,0,0,0.221453,228.261,-120.082)">
                    <path d="M1015.59,2076.37L1254.88,1879.13" style="fill:none;stroke:black;stroke-width:36.5px;"/>
                </g>
                <g transform="matrix(0.221453,0,0,0.221453,65.0485,4.82532)">
                    <path d="M1015.59,2076.37L1254.88,1879.13" style="fill:none;stroke:black;stroke-width:36.5px;"/>
                </g>
                <g transform="matrix(0.262919,-4.30052e-05,-4.30052e-05,0.221453,186.044,-115.892)">
                    <path d="M1070.41,2222.56L1352.34,2222.27" style="fill:none;stroke:black;stroke-width:33.26px;"/>
                </g>
                <g transform="matrix(0.221453,0,0,0.221453,41.6889,-114.808)">
                    <path d="M1070.41,2222.56L1352.34,2222.27" style="fill:none;stroke:black;stroke-width:36.5px;"/>
                </g>
            </g>
        </g>
        <g id="top-ArrowRight" transform="matrix(-1,-1.22465e-16,1.22465e-16,-1,903.563,428.898)">
            <path d="M452.036,345.306L338.942,345.306L338.942,337.27L304.854,372.654L338.942,409.699L338.942,402.285L452.036,402.285L452.036,345.306Z" style="fill:rgb(255,0,0);"/>
        </g>
    </g>
    <g id="front">
        <g id="front-laptop" transform="matrix(1,0,0,1,0,1)">
            <g transform="matrix(0.0584063,0,0,0.0584063,449.397,271.125)">
                <path d="M8511.62,-2659.1C8509.46,-2794.11 8436.69,-2867.93 8280.71,-2869.62L-6040.23,-2922.98C-6138.25,-2925.33 -6189.64,-2881.06 -6193.31,-2789.06L-6935.15,6973.86L9141.86,6980.76L8511.62,-2659.1Z" style="fill:rgb(35,34,32);stroke:rgb(13,18,21);stroke-width:2.89px;"/>
            </g>
            <g transform="matrix(0.263741,0,0,0.263741,-93.9668,-18.9809)">
                <path d="M4306.13,2983.91L305.726,2983.91L486.931,2666.43C495.877,2651.27 507.711,2642.18 523.923,2642.28L4082.16,2643.05C4108.46,2642.84 4122.62,2659.39 4133.64,2680.28L4306.13,2983.91Z" style="fill:rgb(35,34,32);stroke:rgb(13,18,21);stroke-width:0.64px;"/>
            </g>
            <g transform="matrix(0.263741,0,0,0.263741,-93.9668,-17.9809)">
                <path d="M903.832,2823.13L622.254,2912.54L611.092,2933.25L881.061,2938.61L920.631,2833.45L903.832,2823.13Z" style="fill:rgb(22,16,16);"/>
            </g>
            <g transform="matrix(0.263741,0,0,0.263741,-46.1707,-17.7653)">
                <path d="M903.832,2823.13L710.919,2916.81L706.116,2937.45L880.704,2939.77L920.631,2833.45L903.832,2823.13Z" style="fill:rgb(22,16,16);"/>
            </g>
            <g transform="matrix(0.278615,0.116688,-0.114355,0.273045,164.44,-439.273)">
                <ellipse cx="3398.84" cy="2709" rx="61.916" ry="46.873" style="fill:rgb(54,49,43);"/>
            </g>
            <g transform="matrix(0.0584063,0,0,0.0584063,344.005,264.413)">
                <path d="M9929.75,-2069.73L-4050.95,-2156.33L-4626.67,5914.55L10447.5,5929.33L9929.75,-2069.73Z" style="fill:rgb(26,111,243);stroke:rgb(13,18,21);stroke-width:2.89px;"/>
            </g>
            <g transform="matrix(0.263741,0,0,0.263741,-93.9668,-17.9809)">
                <path d="M904.682,2822.31L664.143,2819.86L621.358,2913.04L867.347,2916.86L904.682,2822.31Z" style="fill:rgb(54,49,43);"/>
            </g>
            <g transform="matrix(0.263741,0,0,0.263741,-93.9668,-17.9809)">
                <path d="M1084.27,2823.13L927.939,2821.77L891.967,2917.4L1049.66,2920.4L1084.27,2823.13Z" style="fill:rgb(54,49,43);"/>
            </g>
            <g transform="matrix(0.263741,0,0,0.263741,1.12222,-17.0465)">
                <path d="M903.832,2823.13L710.54,2916.75L706.745,2936.25L883.294,2934.93L920.631,2833.45L903.832,2823.13Z" style="fill:rgb(22,16,16);"/>
            </g>
            <g transform="matrix(0.263741,0,0,0.263741,-46.6738,-17.2622)">
                <path d="M1084.27,2823.13L927.939,2821.77L891.967,2917.4L1051.02,2918.02L1084.27,2823.13Z" style="fill:rgb(54,49,43);"/>
            </g>
            <g transform="matrix(0.263741,0,0,0.263741,50.2547,-17.8888)">
                <path d="M903.832,2823.13L710.818,2919.64L706.745,2936.25L881.061,2938.61L916.271,2838.25L903.832,2823.13Z" style="fill:rgb(22,16,16);"/>
            </g>
            <g transform="matrix(0.263741,0,0,0.263741,98.729,-16.7921)">
                <path d="M892.853,2819.59L713.683,2915.61L707.174,2932.82L884.898,2932.51L902.769,2833.82L892.853,2819.59Z" style="fill:rgb(22,16,16);"/>
            </g>
            <g transform="matrix(0.263741,0,0,0.263741,154.003,-17.2308)">
                <path d="M898.426,2821.39L745.073,2819.43L739.567,2833.55L720,2933.11L892.398,2931.98L905.632,2838.42L898.426,2821.39Z" style="fill:rgb(22,16,16);"/>
            </g>
            <g transform="matrix(0.263741,0,0,0.263741,204.232,-19.2048)">
                <path d="M888.135,2829.23L732.08,2829.6L725.016,2851L714.07,2940.96L885.422,2939.48L896.388,2845.57L888.135,2829.23Z" style="fill:rgb(22,16,16);"/>
            </g>
            <g transform="matrix(0.263741,0,0,0.263741,252.048,-17.2308)">
                <path d="M883.426,2820.86L729.339,2821.38L722.923,2839.14L717.558,2931.37L886.468,2931.81L888.366,2834.59L883.426,2820.86Z" style="fill:rgb(22,16,16);"/>
            </g>
            <g transform="matrix(0.263741,0,0,0.263741,299.449,-17.0656)">
                <path d="M883.426,2820.86L729.339,2821.38L724.179,2836.35L722.442,2930.11L891.112,2930.83L888.366,2834.59L883.426,2820.86Z" style="fill:rgb(22,16,16);"/>
            </g>
            <g transform="matrix(0.263741,0,0,0.263741,355.972,-17.4336)">
                <path d="M884.403,2819.47L729.339,2821.38L722.923,2839.14L727.604,2930.67L898.925,2930.27L891.017,2833.61L884.403,2819.47Z" style="fill:rgb(22,16,16);"/>
            </g>
            <g transform="matrix(0.263741,0,0,0.263741,402.523,-18.3903)">
                <path d="M884.403,2819.47L729.339,2821.38L721.137,2837.78L727.428,2933.9L905.622,2933.9L891.017,2833.61L884.403,2819.47Z" style="fill:rgb(22,16,16);"/>
            </g>
            <g transform="matrix(0.263741,0,0,0.263741,449.442,-18.2753)">
                <path d="M882.189,2822.9L729.339,2821.38L722.923,2839.14L729,2933.18L905.622,2933.9L888.088,2841.25L882.189,2822.9Z" style="fill:rgb(22,16,16);"/>
            </g>
            <g transform="matrix(0.263741,0,0,0.263741,496.707,-17.6429)">
                <path d="M884.309,2821L729.339,2821.38L719.463,2840.59L734.246,2930.84L911.762,2933.34L908.738,2916.6L884.309,2821Z" style="fill:rgb(22,16,16);"/>
            </g>
            <g transform="matrix(0.263741,0,0,0.263741,552.984,-17.571)">
                <path d="M913.342,2915.48L729.625,2819.66L711.962,2834.31L740.943,2935.44L914.971,2934.32L913.342,2915.48Z" style="fill:rgb(22,16,16);"/>
            </g>
            <g transform="matrix(0.263741,0,0,0.263741,602.145,-17.1397)">
                <path d="M909.081,2915.17L722.711,2819.46L708.824,2832.57L741.397,2933.11L911.762,2933.34L909.081,2915.17Z" style="fill:rgb(22,16,16);"/>
            </g>
            <g transform="matrix(0.263741,0,0,0.263741,649.007,-17.3554)">
                <path d="M918.33,2917.3L725.851,2820.51L718.94,2839.72L743.838,2932.93L920.831,2932.12L918.33,2917.3Z" style="fill:rgb(22,16,16);"/>
            </g>
            <g transform="matrix(0.263741,0,0,0.263741,691.699,-18.721)">
                <path d="M1016,2917.3L736.664,2826.26L728.707,2842.86L762.326,2937.29L1029.83,2933.34L1016,2917.3Z" style="fill:rgb(22,16,16);"/>
            </g>
            <g transform="matrix(0.263741,0,0,0.263741,2.45862,-18.1044)">
                <path d="M1084.27,2823.13L927.939,2821.77L891.967,2920.47L1052.59,2921.38L1084.27,2823.13Z" style="fill:rgb(54,49,43);"/>
            </g>
            <g transform="matrix(0.263741,0,0,0.263741,49.1766,-17.8349)">
                <path d="M1080.86,2823.13L927.939,2821.77L901.505,2919.79L1061.24,2919.38L1080.86,2823.13Z" style="fill:rgb(54,49,43);"/>
            </g>
            <g transform="matrix(0.263741,0,0,0.263741,105.777,-17.8349)">
                <path d="M1080.86,2823.13L927.939,2821.77L908.318,2917.74L1069.08,2917.68L1080.86,2823.13Z" style="fill:rgb(54,49,43);"/>
            </g>
            <g transform="matrix(0.263741,0,0,0.263741,154.067,-17.5541)">
                <path d="M1078.2,2822.6L922.617,2822.83L908.318,2917.74L1069.08,2917.68L1078.2,2822.6Z" style="fill:rgb(54,49,43);"/>
            </g>
            <g transform="matrix(0.263741,0,0,0.263741,203.2,-17.8349)">
                <path d="M1068.83,2823.25L914.332,2823.05L908.318,2917.74L1067.33,2917.89L1068.83,2823.25Z" style="fill:rgb(54,49,43);"/>
            </g>
            <g transform="matrix(0.263741,0,0,0.263741,251.786,-17.3749)">
                <path d="M1063.94,2821.33L910.19,2822.39L908.318,2917.74L1067.33,2917.89L1063.94,2821.33Z" style="fill:rgb(54,49,43);"/>
            </g>
            <g transform="matrix(0.263741,0,0,0.263741,310.049,-19.4312)">
                <path d="M1058.77,2826.24L903.65,2829.21L907.228,2921.56L1065.7,2921.16L1058.77,2826.24Z" style="fill:rgb(54,49,43);"/>
            </g>
            <g transform="matrix(0.263741,0,0,0.263741,358.373,-18.7458)">
                <path d="M1050.59,2821.61L896.837,2822.67L902.323,2921.29L1064.19,2920.13L1050.59,2821.61Z" style="fill:rgb(54,49,43);"/>
            </g>
            <g transform="matrix(0.263741,0,0,0.263741,404.64,-19.0885)">
                <path d="M1052.22,2825.52L899.167,2824.35L914.039,2921.65L1069.85,2923.34L1052.22,2825.52Z" style="fill:rgb(54,49,43);"/>
            </g>
            <g transform="matrix(0.263741,0,0,0.263741,453.306,-15.3186)">
                <path d="M1048.68,2811.52L894.144,2812.63L911.37,2908.81L1074.09,2908.3L1048.68,2811.52Z" style="fill:rgb(54,49,43);"/>
            </g>
            <g transform="matrix(0.263741,0,0,0.263741,513.625,-19.0885)">
                <path d="M1031.43,2825.1L878.936,2825.33L906.365,2920.95L1063.01,2921.66L1031.43,2825.1Z" style="fill:rgb(54,49,43);"/>
            </g>
            <g transform="matrix(0.263741,0,0,0.263741,562.977,-19.0885)">
                <path d="M1023.48,2826.77L870.006,2826.16L902.877,2924.02L1057.75,2922.68L1023.48,2826.77Z" style="fill:rgb(54,49,43);"/>
            </g>
            <g transform="matrix(0.263741,0,0,0.263741,611.643,-20.4594)">
                <path d="M1017.29,2832.67L866.239,2831.88L901.202,2927.93L1059.92,2928.8L1017.29,2832.67Z" style="fill:rgb(54,49,43);"/>
            </g>
            <g transform="matrix(0.263741,0,0,0.263741,662.366,-20.4594)">
                <path d="M1078.59,2829.85L847.402,2832.21L886.299,2924.72L1128.31,2924.37L1078.59,2829.85Z" style="fill:rgb(54,49,43);"/>
            </g>
        </g>
        <g id="front-ArrowRight" transform="matrix(-1,-1.22465e-16,1.22465e-16,-1,896.368,745.451)">
            <path d="M452.036,345.306L338.942,345.306L338.942,337.27L304.854,372.654L338.942,409.699L338.942,402.285L452.036,402.285L452.036,345.306Z" style="fill:rgb(255,0,0);"/>
        </g>
        <g id="Target" transform="matrix(1,0,0,1,375.324,-15.8274)">
            <circle cx="314.216" cy="331.061" r="29.332" style="fill:white;"/>
        </g>
        <g id="front-Cursor">
            <g id="Element" transform="matrix(1,0,0,1,5.32376,-15.8274)">
                <circle cx="314.216" cy="331.061" r="29.332" style="fill:rgb(0,255,11);"/>
            </g>
            <g  transform="matrix(0.557059,0,0,0.557059,134.456,193.588)">
                <path d="M446.106,330.171L331.711,215.422L330.741,375.646L369.351,336.413L396.756,388.566L416.9,377.421L391.828,329.905L446.106,330.171Z" style="fill:rgb(235,235,235);stroke:black;stroke-width:7.48px;"/>
            </g>
            <g id="front-Click" transform="matrix(0.221453,0,0,0.221453,135.196,-112.293)">
                <g transform="matrix(1,0,0,1,25,-59)">
                    <path d="M766.603,1948.92L623.813,1806.63" style="fill:none;stroke:white;stroke-width:36.5px;"/>
                </g>
                <g transform="matrix(0.997148,-0.0403331,-0.0403331,0.429591,104.632,1067.19)">
                    <path d="M799.313,1924.98L767.027,1491.28" style="fill:none;stroke:white;stroke-width:49.98px;"/>
                </g>
                <g transform="matrix(0.877659,0.226814,0.226814,0.579498,-304.874,552.569)">
                    <path d="M829.559,1974.51L1079.66,1620.55" style="fill:none;stroke:white;stroke-width:37.75px;"/>
                </g>
                <g transform="matrix(1,0,0,1,25,-59)">
                    <path d="M868.935,1984.68L1055,1990.81" style="fill:none;stroke:white;stroke-width:36.5px;"/>
                </g>
                <g transform="matrix(1,0,0,1,25,-59)">
                    <path d="M747.812,1990.48L567.799,1996.69" style="fill:none;stroke:white;stroke-width:36.5px;"/>
                </g>
                <g transform="matrix(1,0,0,1,25,-59)">
                    <path d="M763.78,2036.38L627.013,2165.68" style="fill:none;stroke:white;stroke-width:36.5px;"/>
                </g>
            </g>
        </g>
    </g>
    <defs>
        <linearGradient id="_Linear1" x1="0" y1="0" x2="1" y2="0" gradientUnits="userSpaceOnUse" gradientTransform="matrix(4718.16,0,0,2700.44,-34.8385,1291.05)"><stop offset="0" style="stop-color:rgb(26,27,31);stop-opacity:1"/><stop offset="1" style="stop-color:rgb(82,91,93);stop-opacity:1"/></linearGradient>
        <linearGradient id="_Linear2" x1="0" y1="0" x2="1" y2="0" gradientUnits="userSpaceOnUse" gradientTransform="matrix(60.8107,1583.08,-679.861,26.1154,2157.45,1355.48)"><stop offset="0" style="stop-color:rgb(250,250,250);stop-opacity:1"/><stop offset="1" style="stop-color:rgb(112,112,112);stop-opacity:1"/></linearGradient>
        <linearGradient id="_Linear3" x1="0" y1="0" x2="1" y2="0" gradientUnits="userSpaceOnUse" gradientTransform="matrix(381.502,0,0,704.594,336.468,374.897)"><stop offset="0" style="stop-color:rgb(211,211,211);stop-opacity:1"/><stop offset="1" style="stop-color:rgb(47,47,47);stop-opacity:1"/></linearGradient>

    </defs>
    <style>
        #side {
            opacity: 1;
            animation-name: side;
            animation-duration: 20s;
            animation-direction: normal;
            animation-fill-mode: forwards;
            animation-iteration-count: infinite;
            animation-timing-function: ease-in-out;
        }

        @keyframes side {
            from {
                opacity: 0;
            }
            3% {
                opacity: 1;
            }
            15% {
                opacity: 1;
            }
            17% {
                opacity: 0;
            }
            40% {
                opacity:0;
            }
            45% {
                opacity:1;
            }
            55% {
                opacity:1;
            }
            60% {
                opacity:0;
            }
            to {
                opacity: 0;
            }
        }

        #top {
            opacity: 0;
            animation-name: top;
            animation-duration: 20s;
            animation-direction: normal;
            animation-fill-mode: forwards;
            animation-iteration-count: infinite;
            animation-timing-function: ease-in-out;
        }

        @keyframes top {
            from {
                opacity: 0;
            }
            15% {
                opacity: 0;
            }
            17% {
                opacity: 1;
            }
            40% {
                opacity: 1;
            }
            45% {
                opacity: 0;
            }
            to {
                opacity: 0;
            }
        }

        #front {
            opacity: 0;
            animation-name: front;
            animation-duration: 20s;
            animation-direction: normal;
            animation-fill-mode: forwards;
            animation-iteration-count: infinite;
            animation-timing-function: ease-in-out;
        }

        @keyframes front {
            from {
                opacity: 0;
            }
            55% {
                opacity: 0;
            }
            60% {
                opacity: 1;
            }
            95% {
                opacity: 1;
            }
            to {
                opacity: 0;
            }
        }

        #side-Arrow {
            animation-name: sidearrow;
            animation-duration: 20s;
            animation-direction: normal;
            animation-fill-mode: forwards;
            animation-iteration-count: infinite;
            animation-timing-function: linear;
            opacity: 0;
        }

        @keyframes sidearrow {
            from {
                opacity: 0;
            }
            5% {
                opacity: 0;
            }
            6% {
                opacity: 1;
            }
            17% {
                opacity: 1;
            }
            18% {
                opacity: 0;
            }
        }
        #side-ArrowUp {
            animation-name: sidearrowup;
            animation-duration: 20s;
            animation-direction: normal;
            animation-fill-mode: forwards;
            animation-iteration-count: infinite;
            animation-timing-function: linear;
            opacity: 0;
        }
        @keyframes sidearrowup {
            from {
                opacity: 0;
            }
            45% {
                opacity: 0;
            }
            47% {
                opacity: 1;
            }
            80% {
                opacity: 1;
            }
            81% {
                opacity: 0;
            }
        }

        #side-Finger {
            animation-name: finger;
            animation-duration: 20s;
            animation-direction: normal;
            animation-fill-mode: forwards;
            animation-iteration-count: infinite;
            animation-timing-function: linear;
            transform-origin: 250% 100%;
            transform: rotate(0deg);
        }

        @keyframes finger {
            from {
                transform: rotate(0deg);
            }
            10% {
                transform: rotate(0deg);
            }
            11% {
                transform: rotate(-1deg);
            }
            48% {
                transform: rotate(-1deg);
            }
            50% {
                transform: rotate(0deg);
            }
        }
        #LMB {
            animation-name: lmb;
            animation-duration: 20s;
            animation-direction: normal;
            animation-fill-mode: forwards;
            animation-iteration-count: infinite;
            animation-timing-function: linear;
            transform-origin: top right;
            rotate: 0deg;
        }
        @keyframes lmb {
            from {
                rotate: 0deg;
            }
            10% {
                rotate:0deg;
            }
            11% {
                rotate:-1deg;
            }
            48% {
                rotate:-1deg;
            }
            50% {
                rotate:0deg;
            }
        }

        #side-Click {
            animation-name: sideclick;
            animation-duration: 20s;
            animation-direction: normal;
            animation-fill-mode: forwards;
            animation-iteration-count: infinite;
            animation-timing-function: linear;
            opacity: 0;
        }

        @keyframes sideclick {
            from {
                opacity: 0;
            }
            10% {
                opacity: 0;
            }
            11% {
                opacity: 1;
            }
            48% {
                opacity: 1;
            }
            50% {
                opacity: 0;
            }
        }

        #top-Arrow {
            animation-name: toparrow;
            animation-duration: 20s;
            animation-direction: normal;
            animation-fill-mode: forwards;
            animation-iteration-count: infinite;
            animation-timing-function: linear;
            opacity: 0;
        }

        @keyframes toparrow {
            from {
                opacity: 0;
            }
            20% {
                opacity: 0;
            }
            23% {
                opacity: 1;
            }
            80% {
                opacity: 1;
            }
            81% {
                opacity: 0;
            }
        }

        #top-Hand {
            animation-name: tophand;
            animation-duration: 20s;
            animation-direction: normal;
            animation-fill-mode: forwards;
            animation-iteration-count: infinite;
            animation-timing-function: linear;
            transform: translate(0, 0);
        }

        @keyframes tophand {
            from {
                transform: translate(0, 0);
            }
            25% {
                transform: translate(0, 0);
            }
            35% {
                transform: translate(500px, 0);
            }
            80% {
                transform: translate(500px, 0);
            }
            81% {
                transform: translate(0, 0);
            }
        }

        #top-Click {
            animation-name: topclick;
            animation-duration: 20s;
            animation-direction: normal;
            animation-fill-mode: forwards;
            animation-iteration-count: infinite;
            animation-timing-function: linear;
        }

        @keyframes topclick {
            from {
                opacity:1;
            }
            40% {
                opacity:1;
            }
            42% {
                opacity:0;
            }
            80% {
                opacity:0;
            }
            81% {
                opacity:1;
            }
        }

        #front-Arrow {
            animation-name: frontarrow;
            animation-duration: 20s;
            animation-direction: normal;
            animation-fill-mode: forwards;
            animation-iteration-count: infinite;
            animation-timing-function: linear;
        }

        @keyframes frontarrow {
            from {
                opacity:0;
            }
            66% {
                opacity:0;
            }
            68% {
                opacity:1;
            }
            80% {
                opacity:1;
            }
            81% {
                opacity:0;
            }
        }

        #front-Click {
            animation-name: frontclick;
            animation-duration: 20s;
            animation-direction: normal;
            animation-fill-mode: forwards;
            animation-iteration-count: infinite;
            animation-timing-function: linear;
        }
        @keyframes frontclick {
            from {
                opacity:0;
            }
            62% {
                opacity:0;
            }
            64% {
                opacity:1;
            }
            82% {
                opacity:1;
            }
            83% {
                opacity:0;
            }
            to {
                opacity:0;
            }
        }

        #front-Cursor {
            animation-name: frontcursor;
            animation-duration: 20s;
            animation-direction: normal;
            animation-fill-mode: forwards;
            animation-iteration-count: infinite;
            animation-timing-function: linear;
        }
        @keyframes frontcursor {
            from {
                transform: translate(0,0);
            }
            70% {
                transform: translate(0,0);
            }
            80% {
                transform: translate(371px,0);
            }
            99% {
                transform: translate(371px,0);
            }
        }
    </style>
</svg>
