<?xml version="1.0" encoding="UTF-8" standalone="no"?>
<!DOCTYPE svg PUBLIC "-//W3C//DTD SVG 1.1//EN" "http://www.w3.org/Graphics/SVG/1.1/DTD/svg11.dtd">
<svg width="100%" height="100%" viewBox="0 0 1024 769" version="1.1" xmlns="http://www.w3.org/2000/svg" style="fill-rule:evenodd;clip-rule:evenodd;stroke-linecap:round;stroke-linejoin:round;stroke-miterlimit:1.5;">
    <g id="Mouse">
        <g transform="matrix(1,0,0,1,-1.58069,-1.75637)">
            <path d="M717.967,170.923c0.429,-102.057 -44.273,-147.438 -124.407,-148.323l-119.061,0.258c-88.485,-1.286 -137.602,43.496 -138.031,145.255l2.811,347.072c3.002,293.762 379.668,272.048 377.283,-2.107l1.405,-342.155Z" style="fill:url(#_Linear1);"/>
        </g>
        <g transform="matrix(1,0,0,1,39.0454,2.39428)">
            <g transform="matrix(1.58333,0,0,1,-347.87,-1.79861)">
                <path d="M529.292,22.047l-2.21,0l0,67.585l-7.018,0.032l-0.011,88.905l7.128,-0.065l-0.068,71.503l2.282,0.111l-0.062,-71.634l7.586,-0.07l-0.292,-88.825l-7.144,0.032l-0.191,-67.574Z"/>
            </g>
            <g transform="matrix(1,0,0,1,-38.9867,-2.23298)">
                <path d="M536.179,92.255l-17.115,0c-3.567,30.028 -3.273,58.646 0.241,85.454l16.15,0.061c3.348,-28.325 3.974,-57.029 0.724,-85.515Z" style="fill:rgb(27,27,27);"/>
            </g>
            <path d="M481.157,91.814l15.148,-0" style="fill:none;stroke:rgb(59,59,59);stroke-width:1px;"/>
            <g transform="matrix(1,0,0,1,0,81.8358)">
                <path d="M481.157,91.814l15.148,-0" style="fill:none;stroke:rgb(59,59,59);stroke-width:1px;"/>
            </g>
            <g transform="matrix(1,0,0,1,0,0.923833)">
                <path d="M480.131,97.185l16.717,0" style="fill:none;stroke:rgb(59,59,59);stroke-width:1px;"/>
            </g>
            <g transform="matrix(1,0,0,1,0,2.45117)">
                <path d="M479.406,101.953l18.045,-0" style="fill:none;stroke:rgb(59,59,59);stroke-width:1px;"/>
            </g>
            <g transform="matrix(1,0,0,1,0,3.55606)">
                <path d="M478.984,107.143l18.829,0" style="fill:none;stroke:rgb(59,59,59);stroke-width:1px;"/>
            </g>
            <g transform="matrix(1,0,0,1,0,4.60059)">
                <path d="M478.803,112.394l19.554,-0" style="fill:none;stroke:rgb(59,59,59);stroke-width:1px;"/>
            </g>
            <g transform="matrix(1,0,0,1,0,5.10197)">
                <path d="M478.622,118.187l19.735,0" style="fill:none;stroke:rgb(59,59,59);stroke-width:1px;"/>
            </g>
            <g transform="matrix(1,0,0,1,0,5.13261)">
                <path d="M478.059,124.452l20.471,-0" style="fill:none;stroke:rgb(59,59,59);stroke-width:1px;"/>
            </g>
            <g transform="matrix(1,0,0,1,0,5.28636)">
                <path d="M478.059,130.593l20.703,0" style="fill:none;stroke:rgb(59,59,59);stroke-width:1px;"/>
            </g>
            <g transform="matrix(1,0,0,1,0,5.32424)">
                <path d="M478.098,136.85l20.355,0" style="fill:none;stroke:rgb(59,59,59);stroke-width:1px;"/>
            </g>
            <g transform="matrix(1,0,0,1,0,4.58964)">
                <path d="M478.214,143.88l20.162,-0" style="fill:none;stroke:rgb(59,59,59);stroke-width:1px;"/>
            </g>
            <g transform="matrix(1,0,0,1,0,4.24127)">
                <path d="M478.716,150.523l19.39,0" style="fill:none;stroke:rgb(59,59,59);stroke-width:1px;"/>
            </g>
            <g transform="matrix(1,0,0,1,0,4.16328)">
                <path d="M478.871,156.896l18.655,0" style="fill:none;stroke:rgb(59,59,59);stroke-width:1px;"/>
            </g>
            <g transform="matrix(1,0,0,1,0,3.58317)">
                <path d="M479.952,163.772l16.918,-0" style="fill:none;stroke:rgb(59,59,59);stroke-width:1px;"/>
            </g>
        </g>
    </g>
    <g id="Hand">
        <g transform="matrix(0.248153,0,0,0.262313,79.5429,-140.816)">
            <path d="M1597.94,1024.22c-29.116,-178.644 -335.109,-163.887 -370.135,12.474c-0,0 -85.373,402.093 -113.313,541.681c-17.936,89.607 -9.929,297.76 -7.911,303.816c0,-0 46.422,464.271 55.454,601.114c4.828,73.157 -1.285,146.628 -1.264,219.944c0.025,88.051 25.218,217.352 26.162,265.052c0.61,30.784 -43.913,64.517 -64.287,97.781c-20.882,34.096 -61.01,106.793 -61.01,106.793c-0,0 40.128,-72.697 61.01,-106.793c20.374,-33.264 68.363,-76.728 64.287,-97.781c-11.595,-59.895 -26.162,-265.052 -26.162,-265.052l1.264,-219.944l-95.08,-39.224l95.08,39.224l-51.12,-557.465c-12.368,-64.256 -133.912,-97.995 -169.623,-3.086c-18.659,49.59 -38.257,243.602 -38.257,243.602c-0,0 -91.076,158.501 -149.842,227.854c-68.03,80.287 -29.268,192.54 -31.822,289.631c-3.251,123.6 2.526,317.503 12.314,451.969c8.66,118.969 46.413,354.828 46.413,354.828l2302.94,23.828c0,0 10.273,-1170.85 -76.26,-1442.5c-66.139,-207.629 -156.29,-252.207 -156.29,-252.207l69.072,409.778c0,-0 -80.14,-583.465 -148.393,-675.437c-109.699,-147.822 -177.656,-272.033 -203.202,-352.939c-27.47,-87.005 -216.468,-219.49 -194.522,-68.27c-1.659,3.648 55.024,136.85 70.096,204.975c26.486,119.718 62.099,254.977 70.727,517.096c4.221,128.267 4.987,384.976 4.987,384.976l39.702,219.616c0,0 -34.218,-145.426 -39.702,-219.616c-7.448,-100.765 3.021,-256.89 -4.987,-384.976c-6.245,-99.884 -3.077,-292.312 -70.727,-517.096c-20.81,-69.146 -53.176,-140.974 -70.096,-204.975c-15.487,-58.579 -31.426,-179.036 -31.426,-179.036c-17.2,-189.321 -320.592,-174.166 -340.91,-59.929l-14.843,260.064c0,0 -14.349,76.972 -15.685,115.952c-1.493,43.545 7.141,96.828 6.731,145.317c-0.562,66.563 -10.106,254.062 -10.106,254.062l-53.204,516.716l-153.035,38.26c-0,0 -116.91,-485.762 -144.136,-635.424c-15.706,-86.333 -19.886,-193.227 -19.223,-262.548c0.495,-51.705 23.147,-103.028 23.203,-153.379c0.055,-50.157 -14.802,-99.219 -22.871,-148.723Z" style="fill:rgb(192,140,113);stroke:rgb(112,69,50);stroke-width:22.49px;"/>
        </g>
        <g transform="matrix(0.063137,0,0,0.063137,261.769,13.8995)">
            <path d="M2153.44,1615.05c-71.899,116.126 48.138,386.174 104.501,401.73c31.246,8.624 500.93,78.45 790.052,2.332c169.709,-44.68 229.314,-251.81 229.314,-251.81c2.135,14.945 -53.475,-416.448 -587.975,-447.278c-299.811,-17.293 -463.994,178.9 -535.892,295.026Z" style="fill:rgb(195,125,88);"/>
        </g>
        <g transform="matrix(0.0724921,0,0,0.0724921,430.592,-40.6799)">
            <path d="M2182.67,1751.95c-66.196,109 18.912,249.272 75.275,264.828c31.246,8.624 542.989,116.465 670.07,102.317c70.942,-7.898 103.134,-123.116 92.412,-187.204c-5.336,-31.897 -27.015,-287.713 -457.226,-311.914c-264.882,-14.901 -346.35,75.69 -380.531,131.973Z" style="fill:rgb(195,125,88);"/>
        </g>
        <g transform="matrix(0.0571751,0,0,0.0559761,199.323,249.986)">
            <path d="M2067.21,1981.72c-74.525,149.964 -150.814,623.514 -194.529,1187.07c-0,0 379.196,-284.812 413.602,-407.962c90.17,-322.754 85.945,-348.28 90.009,-413.132c11.488,-183.316 -309.082,-365.974 -309.082,-365.974Z" style="fill:rgb(195,125,88);"/>
        </g>
        <g transform="matrix(0.0483259,0,0,0.0483259,592.76,35.4926)">
            <path d="M2218.72,2462.78c-309.061,-363.129 -673.591,-337.137 -585.684,-84.278c20.109,57.843 178.956,258.237 358.819,373.31c143.169,91.597 433.007,163.068 491.472,144.846c92.56,-28.848 -230.632,-421.886 -264.607,-433.878Z" style="fill:rgb(195,125,88);"/>
        </g>
        <g transform="matrix(0.238196,0,0,0.238196,91.4217,-80.4722)">
            <path d="M2637.37,1786.6l187.122,86.492" style="fill:none;stroke:rgb(112,69,50);stroke-width:23.9px;"/>
        </g>
        <g transform="matrix(0.238196,0,0,0.238196,91.4217,-80.4722)">
            <path d="M2676.46,1867.27c51.384,37.691 108.293,67.097 172.984,84.829" style="fill:none;stroke:rgb(112,69,50);stroke-width:23.9px;"/>
        </g>
        <g transform="matrix(0.238196,0,0,0.238196,91.4217,-80.4722)">
            <path d="M2629.81,1733.48l216.23,107.284" style="fill:none;stroke:rgb(112,69,50);stroke-width:23.9px;"/>
        </g>
        <g transform="matrix(0.238196,0,0,0.238196,91.4217,-80.4722)">
            <path d="M2147.45,1577.96c83.096,26.27 186.639,46.083 311.871,59.047" style="fill:none;stroke:rgb(112,69,50);stroke-width:23.9px;"/>
        </g>
        <g transform="matrix(0.238196,0,0,0.238196,91.4217,-80.4722)">
            <path d="M2217.3,1438.24c83.197,13.25 159.647,38.867 229.537,76.512" style="fill:none;stroke:rgb(112,69,50);stroke-width:23.9px;"/>
        </g>
        <g transform="matrix(0.238196,0,0,0.238196,91.4217,-80.4722)">
            <path d="M2095.88,1491.47c93.447,19.285 171.851,27.287 238.685,26.613" style="fill:none;stroke:rgb(112,69,50);stroke-width:23.9px;"/>
        </g>
        <g transform="matrix(0.238196,0,0,0.238196,91.4217,-80.4722)">
            <path d="M703.816,2499.06l77.923,-55.355" style="fill:none;stroke:rgb(112,69,50);stroke-width:23.9px;"/>
        </g>
        <g transform="matrix(0.238196,0,0,0.238196,91.4217,-80.4722)">
            <path d="M706.797,2582.52c48.736,-56.089 112.36,-93.229 186.078,-117.523" style="fill:none;stroke:rgb(112,69,50);stroke-width:23.9px;"/>
        </g>
        <g transform="matrix(0.238196,0,0,0.238196,91.4217,-80.4722)">
            <path d="M1197.9,1690.64c-0,-0 96.647,-51.166 147.813,-63.349c51.167,-12.182 159.184,-9.746 159.184,-9.746" style="fill:none;stroke:rgb(112,69,50);stroke-width:23.9px;"/>
        </g>
        <g transform="matrix(0.238196,0,0,0.238196,91.4217,-80.4722)">
            <path d="M1165.87,1805l340.645,-104.749" style="fill:none;stroke:rgb(112,69,50);stroke-width:23.9px;"/>
        </g>
    </g>
    <defs>
        <linearGradient id="_Linear1" x1="0" y1="0" x2="1" y2="0" gradientUnits="userSpaceOnUse" gradientTransform="matrix(381.502,0,0,704.594,336.468,374.897)"><stop offset="0" style="stop-color:rgb(211,211,211);stop-opacity:1"/><stop offset="1" style="stop-color:rgb(47,47,47);stop-opacity:1"/></linearGradient>
    </defs>
    <style>
        #Hand {
            animation-name: handMove;
            animation-duration: 5s;
            animation-direction: normal;
            animation-fill-mode: forwards;
            animation-iteration-count: infinite;
            animation-timing-function: ease-in-out;
            transform: translate(0, 720px);
            opacity:1;
        }
        @keyframes handMove {
            from {
                opacity: 1;
                transform: translate(0px, 720px)
            }
            60% {
                transform: translate(0, 0);
            }
            90% {
                opacity:1;
                transform: translate(0, 0);
            }
            99%{
                opacity:0;
                transform: translate(0, 0);
            }
            100%{
                opacity:0;
                transform: translate(0px, 500px)
            }
        }
    </style>
</svg>
