<?xml version="1.0" encoding="UTF-8" standalone="no"?>
<!DOCTYPE svg PUBLIC "-//W3C//DTD SVG 1.1//EN" "http://www.w3.org/Graphics/SVG/1.1/DTD/svg11.dtd">
<svg width="100%" height="100%" viewBox="0 0 32 32" version="1.1" xmlns="http://www.w3.org/2000/svg" style="fill-rule:evenodd;clip-rule:evenodd;stroke-linecap:round;stroke-linejoin:round;stroke-miterlimit:1.5;">
    <g>
        <g>
            <path id="Paper" d="M26.392,3.705C26.392,3.466 26.198,3.272 25.959,3.272L6.041,3.272C5.802,3.272 5.608,3.466 5.608,3.705L5.608,30.827C5.608,31.066 5.802,31.26 6.041,31.26L25.959,31.26C26.198,31.26 26.392,31.066 26.392,30.827L26.392,3.705Z" style="fill:rgb(236,213,193);"/>
        </g>
        <path id="Paper1" d="M26.392,3.705C26.392,3.466 26.198,3.272 25.959,3.272L6.041,3.272C5.802,3.272 5.608,3.466 5.608,3.705L5.608,30.827C5.608,31.066 5.802,31.26 6.041,31.26L25.959,31.26C26.198,31.26 26.392,31.066 26.392,30.827L26.392,3.705Z" style="fill:rgb(236,213,193);"/>
        <g id="Lines">
            <path d="M8.644,12.706L23.898,12.706" style="fill:none;stroke:rgb(34,29,21);stroke-width:2.5px;"/>
            <path d="M8.644,19.778L23.898,19.778" style="fill:none;stroke:rgb(34,29,21);stroke-width:2.5px;"/>
            <path d="M8.644,26.85L23.898,26.85" style="fill:none;stroke:rgb(34,29,21);stroke-width:2.5px;"/>
        </g>
        <g>
            <path d="M9.465,6.008C9.465,5.816 9.309,5.661 9.118,5.661L7.176,5.661C6.985,5.661 6.829,5.816 6.829,6.008L6.829,6.702C6.829,6.894 6.985,7.049 7.176,7.049L9.118,7.049C9.309,7.049 9.465,6.894 9.465,6.702L9.465,6.008Z"/>
            <path d="M7.526,1.091C7.768,1.514 8.033,2.121 8.082,3.268L8.573,3.272C8.607,1.959 8.121,0.55 7.537,0.512C6.804,0.465 6.435,1.844 6.465,3.574C6.482,4.605 6.672,6.674 7.495,6.697C8.065,6.714 8.297,5.661 8.297,5.661L7.733,5.66L7.521,6.098C7.521,6.098 7.067,5.86 7.056,3.604C7.044,0.985 7.526,1.091 7.526,1.091Z" style="fill:rgb(136,124,139);"/>
            <path d="M8.309,1.083C8.551,1.507 8.8,2.122 8.849,3.269L9.372,3.269C9.406,1.956 8.904,0.543 8.32,0.505C7.587,0.457 7.218,1.837 7.248,3.566C7.265,4.597 7.455,6.666 8.278,6.69C8.848,6.706 9.078,5.659 9.078,5.659L8.513,5.661C8.469,5.85 8.4,5.994 8.304,6.09C8.304,6.09 7.85,5.852 7.839,3.597C7.827,0.978 8.309,1.083 8.309,1.083Z" style="fill:rgb(136,124,139);"/>
        </g>
        <g>
            <path d="M17.435,6.008C17.435,5.816 17.279,5.661 17.088,5.661L15.147,5.661C14.955,5.661 14.8,5.816 14.8,6.008L14.8,6.702C14.8,6.894 14.955,7.049 15.147,7.049L17.088,7.049C17.279,7.049 17.435,6.894 17.435,6.702L17.435,6.008Z"/>
            <path d="M15.496,1.091C15.738,1.514 16.003,2.121 16.052,3.268L16.544,3.272C16.577,1.959 16.091,0.55 15.507,0.512C14.774,0.465 14.406,1.844 14.435,3.574C14.452,4.605 14.643,6.674 15.466,6.697C16.035,6.714 16.267,5.661 16.267,5.661L15.703,5.66L15.492,6.098C15.492,6.098 15.038,5.86 15.027,3.604C15.014,0.985 15.496,1.091 15.496,1.091Z" style="fill:rgb(136,124,139);"/>
            <path d="M16.28,1.083C16.521,1.507 16.771,2.122 16.819,3.269L17.343,3.269C17.376,1.956 16.874,0.543 16.29,0.505C15.557,0.457 15.189,1.837 15.218,3.566C15.235,4.597 15.426,6.666 16.249,6.69C16.818,6.706 17.049,5.659 17.049,5.659L16.484,5.661C16.439,5.85 16.37,5.994 16.275,6.09C16.275,6.09 15.821,5.852 15.81,3.597C15.797,0.978 16.28,1.083 16.28,1.083Z" style="fill:rgb(136,124,139);"/>
        </g>
        <g>
            <path d="M25.405,6.008C25.405,5.816 25.25,5.661 25.058,5.661L23.117,5.661C22.925,5.661 22.77,5.816 22.77,6.008L22.77,6.702C22.77,6.894 22.925,7.049 23.117,7.049L25.058,7.049C25.25,7.049 25.405,6.894 25.405,6.702L25.405,6.008Z"/>
            <path d="M23.467,1.091C23.708,1.514 23.974,2.121 24.022,3.268L24.514,3.272C24.548,1.959 24.061,0.55 23.477,0.512C22.744,0.465 22.376,1.844 22.405,3.574C22.423,4.605 22.613,6.674 23.436,6.697C24.005,6.714 24.237,5.661 24.237,5.661L23.673,5.66L23.462,6.098C23.462,6.098 23.008,5.86 22.997,3.604C22.984,0.985 23.467,1.091 23.467,1.091Z" style="fill:rgb(136,124,139);"/>
            <path d="M24.25,1.083C24.491,1.507 24.741,2.122 24.79,3.269L25.313,3.269C25.347,1.956 24.845,0.543 24.261,0.505C23.527,0.457 23.159,1.837 23.188,3.566C23.206,4.597 23.396,6.666 24.219,6.69C24.788,6.706 25.019,5.659 25.019,5.659L24.454,5.661C24.41,5.85 24.34,5.994 24.245,6.09C24.245,6.09 23.791,5.852 23.78,3.597C23.767,0.978 24.25,1.083 24.25,1.083Z" style="fill:rgb(136,124,139);"/>
        </g>
    </g>
</svg>
