<?xml version="1.0" encoding="UTF-8" standalone="no"?>
<!DOCTYPE svg PUBLIC "-//W3C//DTD SVG 1.1//EN" "http://www.w3.org/Graphics/SVG/1.1/DTD/svg11.dtd">
<svg width="100%" height="100%" viewBox="0 0 1024 769" version="1.1" xmlns="http://www.w3.org/2000/svg" style="fill-rule:evenodd;clip-rule:evenodd;stroke-linecap:round;stroke-linejoin:round;stroke-miterlimit:1.5;" class="test">
    <g id="Background" transform="matrix(1.0168,0,0,2.45904,-1291.74,-2052.06)">
        <path d="M2277.48,840.094C2277.48,837.006 2271.42,834.498 2263.95,834.498L1283.93,834.498C1276.46,834.498 1270.4,837.006 1270.4,840.094L1270.4,1141.59C1270.4,1144.67 1276.46,1147.18 1283.93,1147.18L2263.95,1147.18C2271.42,1147.18 2277.48,1144.67 2277.48,1141.59L2277.48,840.094Z" style="fill:rgb(17,23,23);"/>
    </g>
    <g id="LMB" transform="matrix(0.50412,0,0,0.487705,-638.746,-405.345)">
        <path d="M2277.48,858.501C2277.48,845.253 2267.08,834.498 2254.26,834.498L1293.62,834.498C1280.81,834.498 1270.4,845.253 1270.4,858.501L1270.4,1123.18C1270.4,1136.43 1280.81,1147.18 1293.62,1147.18L2254.26,1147.18C2267.08,1147.18 2277.48,1136.43 2277.48,1123.18L2277.48,858.501Z" style="fill:white;stroke:rgb(17,23,23);stroke-width:9.26px;"/>
    </g>
    <g id="RMB" transform="matrix(0.50412,0,0,0.487705,-127.755,-405.345)">
        <path d="M2277.48,858.501C2277.48,845.253 2267.08,834.498 2254.26,834.498L1293.62,834.498C1280.81,834.498 1270.4,845.253 1270.4,858.501L1270.4,1123.18C1270.4,1136.43 1280.81,1147.18 1293.62,1147.18L2254.26,1147.18C2267.08,1147.18 2277.48,1136.43 2277.48,1123.18L2277.48,858.501Z" style="fill:white;stroke:rgb(17,23,23);stroke-width:9.26px;"/>
    </g>
    <g id="Touchpad" transform="matrix(1.01136,0,0,1.96161,-1283.14,-1482.39)">
        <path d="M2277.48,840.094C2277.48,837.006 2272.62,834.498 2266.63,834.498L1281.25,834.498C1275.26,834.498 1270.4,837.006 1270.4,840.094L1270.4,1141.59C1270.4,1144.67 1275.26,1147.18 1281.25,1147.18L2266.63,1147.18C2272.62,1147.18 2277.48,1144.67 2277.48,1141.59L2277.48,840.094Z" style="fill:white;stroke:rgb(17,23,23);stroke-width:2.94px;"/>
    </g>
    <style>
        .test #LMB {
            background-color: #ff0000;
        }
    </style>
</svg>
