<?xml version="1.0" encoding="UTF-8" standalone="no"?>
<!DOCTYPE svg PUBLIC "-//W3C//DTD SVG 1.1//EN" "http://www.w3.org/Graphics/SVG/1.1/DTD/svg11.dtd">
<svg width="100%" height="100%" viewBox="0 0 1024 769" version="1.1" xmlns="http://www.w3.org/2000/svg" style="fill-rule:evenodd;clip-rule:evenodd;stroke-linecap:round;stroke-linejoin:round;stroke-miterlimit:1.5;" calcMode="discrete">
    <g id="Laptop" transform="matrix(0.221453,0,0,0.221453,0,0)">
        <g transform="matrix(1,0,0,1,-1.40757,3.11033)">
            <path d="M3051.89,1637.64L910.338,1719.96L-18.882,2008.85L-25.001,3490.43L3903.84,3474.03L3051.89,1637.64Z" style="fill:rgb(45,44,39);stroke:rgb(24,16,13);stroke-width:8.97px;"/>
        </g>
        <path d="M1018.77,1731.42L-24.261,2030.77L-77.484,2770.71L-57.368,2956.94L2032.13,1691.32L1018.77,1731.42Z" style="fill:rgb(0,1,0);"/>
        <g transform="matrix(1,0,0,1,358.362,-402.159)">
            <g transform="matrix(1,0,0,1,452.42,103.125)">
                <path d="M242.855,2370.18L37.303,2374.11L-116.924,2437.39L79.499,2438.12C190.51,2403.88 194.296,2430.54 242.855,2370.18Z" style="fill:rgb(30,29,24);stroke:rgb(13,18,21);stroke-width:8.97px;"/>
            </g>
            <g transform="matrix(1,0,0,1,16.896,-46.0553)">
                <path d="M515.409,2586.39L316.199,2589.12L329.825,2612.83L554.107,2621.82L515.409,2586.39Z" style="fill:rgb(0,0,2);stroke:rgb(13,18,21);stroke-width:8.97px;"/>
            </g>
            <path d="M696.633,2473.3C647.633,2502.73 640.937,2510.66 532.033,2541.16L571.548,2574.68C676.115,2528.11 650.621,2542.93 724.975,2500.01L696.633,2473.3Z" style="fill:rgb(42,44,43);stroke:rgb(13,18,21);stroke-width:8.97px;"/>
        </g>
        <g id="LMB" transform="matrix(1,0,0,1,3.99182,-0.665345)">
            <path d="M1769.23,2092.26L1507.09,2094.25L1032.05,2402.96L1406.62,2399.64L1769.23,2092.26Z" style="fill:rgb(79,74,69);stroke:rgb(13,18,21);stroke-width:8.97px;"/>
        </g>
        <g transform="matrix(1,0,0,1,371.251,-308.045)">
            <path d="M1632.17,2201.37L1414.61,2212.01L1135.47,2404.56L1406.62,2399.64L1632.17,2201.37Z" style="fill:rgb(79,74,69);stroke:rgb(13,18,21);stroke-width:8.97px;"/>
        </g>
        <g transform="matrix(1,0,0,1,-379.687,871.045)">
            <path d="M3376.43,996.604L2383.56,1023L1788.65,1530.6L3506.38,1508.27L3376.43,996.604Z" style="fill:rgb(127,123,124);stroke:rgb(13,18,21);stroke-width:8.97px;"/>
        </g>
        <g transform="matrix(1,0,0,1,-5.94846e-05,-5.19783)">
            <path d="M93.092,-46.973L-221.378,-63.165L-107.033,2045.29L911.753,1724.89L93.092,-46.973Z" style="fill:rgb(35,34,32);stroke:rgb(13,18,21);stroke-width:3.44px;"/>
        </g>
        <path d="M54.108,-10.106L-90.132,-43.892L-84.934,1666.2L771.411,1540.15L54.108,-10.106Z" style="fill:rgb(26,111,243);stroke:rgb(13,18,21);stroke-width:3.44px;"/>
        <g transform="matrix(1,0,0,1,146.523,-298.901)">
            <path d="M714.074,2458.86C656.898,2504.09 640.937,2510.66 532.033,2541.16L564.462,2577.95C684.597,2529.55 697.757,2530.59 750.591,2490.19L714.074,2458.86Z" style="fill:rgb(42,44,43);stroke:rgb(13,18,21);stroke-width:8.97px;"/>
            <g transform="matrix(1,0,0,1,452.42,103.125)">
                <path d="M263.567,2354.37L46.569,2353.67L-159.982,2440.66L79.499,2438.12C190.51,2403.88 215.008,2414.73 263.567,2354.37Z" style="fill:rgb(30,29,24);stroke:rgb(13,18,21);stroke-width:8.97px;"/>
            </g>
            <g transform="matrix(1,0,0,1,16.896,-46.0553)">
                <path d="M515.409,2586.39L275.595,2589.39L281.862,2629.45L548.656,2623.18L515.409,2586.39Z" style="fill:rgb(0,0,2);stroke:rgb(13,18,21);stroke-width:8.97px;"/>
            </g>
        </g>
        <g transform="matrix(1,0,0,1,-133.896,-173.816)">
            <path d="M760.674,2439.51C703.499,2484.74 640.937,2510.66 532.033,2541.16L556.014,2592.39C676.149,2543.99 747.355,2516.69 800.189,2476.3L760.674,2439.51Z" style="fill:rgb(42,44,43);stroke:rgb(13,18,21);stroke-width:8.97px;"/>
            <g transform="matrix(1,0,0,1,452.42,103.125)">
                <path d="M308.259,2335.57L55.289,2338.14L-259.178,2436.84L79.499,2438.12C190.51,2403.88 259.7,2395.93 308.259,2335.57Z" style="fill:rgb(30,29,24);stroke:rgb(13,18,21);stroke-width:8.97px;"/>
            </g>
            <g transform="matrix(1,0,0,1,16.896,-46.0553)">
                <path d="M515.409,2586.39L180.214,2584.76L191.114,2626.45L540.753,2639.53L515.409,2586.39Z" style="fill:rgb(0,0,2);stroke:rgb(13,18,21);stroke-width:8.97px;"/>
            </g>
        </g>
        <g transform="matrix(1,0,0,1,-445.268,-3.49291)">
            <path d="M776.48,2400.81C727.208,2465.39 636.577,2507.12 532.033,2541.16L556.014,2592.39C683.097,2539.81 776.484,2488.36 817.085,2438.69L776.48,2400.81Z" style="fill:rgb(42,44,43);stroke:rgb(13,18,21);stroke-width:8.97px;"/>
            <g transform="matrix(0.489043,-0.240609,0.483925,-0.00376711,-1265.66,2676.53)">
                <g transform="matrix(195.583,0,0,195.583,825.389,2694.65)">
                </g>
                <text x="597.145px" y="2694.65px" style="font-family:'ArialMT', 'Arial', sans-serif;font-size:195.583px;fill:white;">Alt</text>
            </g>
            <g transform="matrix(1,0,0,1,452.42,103.125)">
                <path d="M324.338,2298.51L36.758,2291.27L-259.178,2436.84L79.499,2438.12C190.51,2403.88 275.779,2358.87 324.338,2298.51Z" style="fill:rgb(30,29,24);stroke:rgb(13,18,21);stroke-width:8.97px;"/>
            </g>
            <g transform="matrix(1,0,0,1,16.896,-46.0553)">
                <path d="M515.409,2586.39L180.214,2584.76L191.114,2626.45L540.753,2639.53L515.409,2586.39Z" style="fill:rgb(0,0,2);stroke:rgb(13,18,21);stroke-width:8.97px;"/>
            </g>
        </g>
        <path d="M131.404,1990.04L0.937,2028.87L105.515,2031.6C160.972,2022.51 208.119,2008.67 244.499,1988.67L131.404,1990.04Z" style="fill:rgb(30,29,24);stroke:rgb(13,18,21);stroke-width:2.98px;"/>
        <g transform="matrix(1,0,0,1,-204.517,63.8465)">
            <path d="M131.404,1990.04L0.937,2028.87L105.515,2031.6C160.972,2022.51 208.119,2008.67 244.499,1988.67L131.404,1990.04Z" style="fill:rgb(30,29,24);stroke:rgb(13,18,21);stroke-width:2.98px;"/>
        </g>
        <g transform="matrix(1,0,0,1,150.565,-48.3717)">
            <path d="M131.404,1990.04L0.937,2028.87L105.515,2031.6C160.972,2022.51 208.119,2008.67 244.499,1988.67L131.404,1990.04Z" style="fill:rgb(30,29,24);stroke:rgb(13,18,21);stroke-width:2.98px;"/>
        </g>
        <g transform="matrix(0.938462,0,0,0.809524,315.155,292.271)">
            <path d="M123.782,1988.35L0.937,2028.87L113.321,2030.52C168.777,2021.43 198.681,2009.09 235.061,1989.1L123.782,1988.35Z" style="fill:rgb(30,29,24);stroke:rgb(13,18,21);stroke-width:3.4px;"/>
        </g>
        <g transform="matrix(0.938462,0,0,0.809524,453.637,252.157)">
            <path d="M108.914,1992.23L0.937,2028.87L106.259,2027.07C161.715,2017.98 180.283,2010.38 216.662,1990.39L108.914,1992.23Z" style="fill:rgb(30,29,24);stroke:rgb(13,18,21);stroke-width:3.4px;"/>
        </g>
        <g transform="matrix(0.938462,0,0,0.809524,588.63,211.519)">
            <path d="M112.631,1994.13L0.937,2028.87L106.259,2027.07C161.715,2017.98 180.283,2010.38 216.662,1990.39L112.631,1994.13Z" style="fill:rgb(30,29,24);stroke:rgb(13,18,21);stroke-width:3.4px;"/>
        </g>
        <g transform="matrix(0.938462,0,0,0.809524,705.137,177.614)">
            <path d="M106.089,1998.61L11.642,2029.22L106.259,2027.93C161.715,2018.84 161.103,2016.58 197.483,1996.59L106.089,1998.61Z" style="fill:rgb(30,29,24);stroke:rgb(13,18,21);stroke-width:3.4px;"/>
        </g>
        <g transform="matrix(0.938462,0,0,0.809524,800.295,148.034)">
            <path d="M103.836,2005.32L16.495,2029.99L108.086,2029.49C161.124,2018.72 152.218,2020.39 191.287,2002.54L103.836,2005.32Z" style="fill:rgb(30,29,24);stroke:rgb(13,18,21);stroke-width:3.4px;"/>
        </g>
        <g transform="matrix(0.938462,0,0,0.809524,845.974,166.72)">
            <path d="M102.066,2003.52L1.008,2041.27L140.609,2038.46C194.913,2026.32 212.902,2019.28 239.518,1999.2L102.066,2003.52Z" style="fill:rgb(30,29,24);stroke:rgb(13,18,21);stroke-width:3.4px;"/>
        </g>
        <g transform="matrix(0.938462,0,0,0.809524,887.986,123.209)">
            <path d="M148.178,1990.64L17.161,2031.75L108.086,2029.49C161.124,2018.72 180.669,2008.25 219.738,1990.4L148.178,1990.64Z" style="fill:rgb(30,29,24);stroke:rgb(13,18,21);stroke-width:3.4px;"/>
        </g>
        <g transform="matrix(0.938462,0,0,0.809524,950.937,140.105)">
            <path d="M191.155,1965.4L17.161,2031.75L155.419,2027.47C233.482,2010.9 310.072,1968.83 331.536,1955.06L191.155,1965.4Z" style="fill:rgb(30,29,24);stroke:rgb(13,18,21);stroke-width:3.4px;"/>
        </g>
        <g transform="matrix(41.2222,0,0,1,-44118.2,0)">
            <path d="M1100.86,1723.17C1100.07,1741.15 1098.91,1760.26 1096.84,1782.11L1097.01,1794.72L1101.24,1736.79L1100.86,1723.17Z" style="fill:rgb(42,44,43);stroke:rgb(13,18,21);stroke-width:0.1px;"/>
        </g>
        <g transform="matrix(41.2222,0,0,1,-44235.9,33.8438)">
            <path d="M1099.06,1751.62C1098.57,1767.19 1097.92,1774.92 1096.84,1782.11L1097.04,1802.2L1099.6,1767.73L1099.06,1751.62Z" style="fill:rgb(42,44,43);stroke:rgb(13,18,21);stroke-width:0.1px;"/>
        </g>
        <g transform="matrix(0.938462,0,0,0.809524,721.614,206.345)">
            <path d="M102.066,2003.52L-8.961,2042.59L141.259,2043.3C195.562,2031.16 227.471,2018.96 254.087,1998.88L102.066,2003.52Z" style="fill:rgb(30,29,24);stroke:rgb(13,18,21);stroke-width:3.4px;"/>
        </g>
        <g transform="matrix(41.2222,0,0,1,-44360.3,73.4683)">
            <path d="M1099.41,1751.79C1098.92,1767.36 1097.92,1779.8 1096.84,1786.99L1097.16,1807.34L1099.73,1768.25L1099.41,1751.79Z" style="fill:rgb(42,44,43);stroke:rgb(13,18,21);stroke-width:0.1px;"/>
        </g>
        <g transform="matrix(0.938462,0,0,0.809524,577.459,252.32)">
            <path d="M108.071,1997.66L-8.961,2042.59L141.259,2043.3C195.562,2031.16 242.01,2012 268.626,1991.92L108.071,1997.66Z" style="fill:rgb(30,29,24);stroke:rgb(13,18,21);stroke-width:3.4px;"/>
        </g>
        <g transform="matrix(41.2222,0,0,1,-44504.5,119.444)">
            <path d="M1099.73,1745.39C1099.25,1760.95 1097.92,1779.8 1096.84,1786.99L1097.16,1807.34L1100.2,1766.45L1099.73,1745.39Z" style="fill:rgb(42,44,43);stroke:rgb(13,18,21);stroke-width:0.1px;"/>
        </g>
        <g transform="matrix(0.938462,0,0,0.809524,403.992,308.267)">
            <path d="M123.592,1989.07L-8.961,2042.59L152.194,2044.12C206.497,2031.98 263.88,2010.36 290.497,1990.28L123.592,1989.07Z" style="fill:rgb(30,29,24);stroke:rgb(13,18,21);stroke-width:3.4px;"/>
        </g>
        <g transform="matrix(41.2222,0,0,1,-44677.9,175.39)">
            <path d="M1100.23,1744.72C1099.74,1760.29 1098.15,1780.13 1097.07,1787.32L1097.56,1810.32L1100.82,1766.78L1100.23,1744.72Z" style="fill:rgb(42,44,43);stroke:rgb(13,18,21);stroke-width:0.1px;"/>
        </g>
        <g transform="matrix(0.938462,0,0,0.809524,208.47,367.234)">
            <path d="M146.71,1984.88L-22.687,2046.77L159.779,2047.26C214.083,2035.12 288.443,2000.73 315.06,1980.65L146.71,1984.88Z" style="fill:rgb(30,29,24);stroke:rgb(13,18,21);stroke-width:3.4px;"/>
        </g>
        <g transform="matrix(41.2222,0,0,1,-44873.4,234.357)">
            <path d="M1100.78,1736.76C1100.29,1752.32 1098.32,1783.01 1097.23,1790.2L1097.7,1814.89L1101.43,1759.32L1100.78,1736.76Z" style="fill:rgb(42,44,43);stroke:rgb(13,18,21);stroke-width:0.1px;"/>
        </g>
        <g transform="matrix(0.938462,0,0,0.809524,-0.00798663,435.879)">
            <path d="M163.725,1977.81L-22.687,2046.77L141.1,2050.48C195.404,2038.34 304.718,2000.52 331.335,1980.44L163.725,1977.81Z" style="fill:rgb(30,29,24);stroke:rgb(13,18,21);stroke-width:3.4px;"/>
        </g>
        <g transform="matrix(41.2222,0,0,1,-45081.9,303.002)">
            <path d="M1101.14,1737.11C1100.66,1752.67 1097.92,1786.14 1096.83,1793.32L1097.35,1824.27L1101.78,1760.71L1101.14,1737.11Z" style="fill:rgb(42,44,43);stroke:rgb(13,18,21);stroke-width:0.1px;"/>
        </g>
        <g transform="matrix(0.938462,0,0,0.809524,-228.295,511.621)">
            <path d="M163.725,1977.81L-22.687,2046.77L141.1,2050.48C195.404,2038.34 304.718,2000.52 331.335,1980.44L163.725,1977.81Z" style="fill:rgb(30,29,24);stroke:rgb(13,18,21);stroke-width:3.4px;"/>
        </g>
        <g transform="matrix(41.2222,0,0,1,-45310.2,378.745)">
            <path d="M1101.14,1737.11C1100.66,1752.67 1097.92,1786.14 1096.83,1793.32L1097.35,1824.27L1101.78,1760.71L1101.14,1737.11Z" style="fill:rgb(42,44,43);stroke:rgb(13,18,21);stroke-width:0.1px;"/>
        </g>
        <g transform="matrix(0.938462,0,0,0.809524,877.247,218.889)">
            <path d="M102.066,2003.52L-12.133,2052.04L147.123,2047.26C201.427,2035.12 234.895,2020.59 261.511,2000.51L102.066,2003.52Z" style="fill:rgb(30,29,24);stroke:rgb(13,18,21);stroke-width:3.4px;"/>
        </g>
        <g transform="matrix(41.2222,0,0,1,-44204.7,86.0125)">
            <path d="M1099.58,1752.43C1099.1,1768 1098.05,1782.94 1096.97,1790.12L1097.44,1809.71L1099.86,1767.83L1099.58,1752.43Z" style="fill:rgb(42,44,43);stroke:rgb(13,18,21);stroke-width:0.1px;"/>
        </g>
        <g transform="matrix(0.938462,0,0,0.809524,730.794,265.977)">
            <path d="M125.693,2001.27L-12.133,2052.04L159.746,2047.26C214.049,2035.12 253.99,2016.84 280.607,1996.76L125.693,2001.27Z" style="fill:rgb(30,29,24);stroke:rgb(13,18,21);stroke-width:3.4px;"/>
        </g>
        <g transform="matrix(41.2222,0,0,1,-44351.1,133.1)">
            <path d="M1100.02,1749.7C1099.53,1765.26 1098.35,1784.45 1097.27,1791.64L1097.69,1815.78L1100.51,1772.24L1100.02,1749.7Z" style="fill:rgb(42,44,43);stroke:rgb(13,18,21);stroke-width:0.1px;"/>
        </g>
        <g transform="matrix(0.938462,0,0,0.809524,582.155,318.944)">
            <path d="M125.693,2001.27L-35.414,2058.18L149.516,2058.71C203.82,2046.57 264.573,2020.52 291.189,2000.44L125.693,2001.27Z" style="fill:rgb(30,29,24);stroke:rgb(13,18,21);stroke-width:3.4px;"/>
        </g>
        <g transform="matrix(41.2222,0,0,1,-44499.8,186.067)">
            <path d="M1100.22,1754.66C1099.73,1770.23 1098.05,1793.39 1096.97,1800.58L1097.4,1824.72C1098.6,1808.97 1099.72,1792.41 1100.51,1772.24L1100.22,1754.66Z" style="fill:rgb(42,44,43);stroke:rgb(13,18,21);stroke-width:0.1px;"/>
        </g>
        <g transform="matrix(0.938462,0,0,0.809524,409.483,380.915)">
            <path d="M116.63,1996.98L-57.237,2066.97L127.138,2070.29C181.441,2058.15 264.573,2020.52 291.189,2000.44L116.63,1996.98Z" style="fill:rgb(30,29,24);stroke:rgb(13,18,21);stroke-width:3.4px;"/>
        </g>
        <g transform="matrix(41.2222,0,0,1,-44672.4,248.038)">
            <path d="M1100.31,1752.75C1099.82,1768.32 1097.67,1801.55 1096.59,1808.74L1097.04,1839.99C1098.23,1824.25 1100.01,1794.49 1100.8,1774.32L1100.31,1752.75Z" style="fill:rgb(42,44,43);stroke:rgb(13,18,21);stroke-width:0.1px;"/>
        </g>
        <g transform="matrix(0.938462,0,0,0.809524,169.808,461.028)">
            <path d="M166.103,1984.38L-57.237,2066.97L157.653,2067.07C211.957,2054.94 312.427,2006.32 339.043,1986.24L166.103,1984.38Z" style="fill:rgb(30,29,24);stroke:rgb(13,18,21);stroke-width:3.4px;"/>
        </g>
        <g transform="matrix(41.2222,0,0,1,-44912.1,328.151)">
            <path d="M1101.33,1740.39C1100.84,1755.95 1098.28,1798.51 1097.2,1805.7L1097.63,1841.73C1098.83,1825.98 1101.17,1791.89 1101.96,1771.72L1101.33,1740.39Z" style="fill:rgb(42,44,43);stroke:rgb(13,18,21);stroke-width:0.1px;"/>
        </g>
        <g transform="matrix(0.938462,0,0,0.809524,-75.6197,541.707)">
            <path d="M166.103,1984.38L-57.237,2066.97L124.06,2083.41C178.364,2071.27 333.377,2005.9 359.994,1985.82L166.103,1984.38Z" style="fill:rgb(30,29,24);stroke:rgb(13,18,21);stroke-width:3.4px;"/>
        </g>
        <g transform="matrix(41.2222,0,0,1,-45157.5,408.83)">
            <path d="M1101.8,1740.73C1101.31,1756.29 1097.54,1811.06 1096.46,1818.24L1097.05,1860.37C1098.25,1844.62 1101.89,1798.33 1102.68,1778.16L1101.8,1740.73Z" style="fill:rgb(42,44,43);stroke:rgb(13,18,21);stroke-width:0.1px;"/>
        </g>
        <g transform="matrix(0.938462,0,0,0.809524,1006.65,245.214)">
            <path d="M121.42,1997.97L-12.133,2052.04L159.746,2047.26C214.049,2035.12 253.99,2016.84 280.607,1996.76L121.42,1997.97Z" style="fill:rgb(30,29,24);stroke:rgb(13,18,21);stroke-width:3.4px;"/>
        </g>
        <g transform="matrix(41.2222,0,0,1,-44075.3,112.337)">
            <path d="M1100.02,1749.7C1099.53,1765.26 1098.35,1784.45 1097.27,1791.64L1097.69,1815.78L1100.51,1772.24L1100.02,1749.7Z" style="fill:rgb(42,44,43);stroke:rgb(13,18,21);stroke-width:0.1px;"/>
        </g>
        <g transform="matrix(0.938462,0,0,0.809524,998.047,177.492)">
            <path d="M102.066,2003.52L2.424,2043.41L140.609,2038.46C194.913,2026.32 212.902,2019.28 239.518,1999.2L102.066,2003.52Z" style="fill:rgb(30,29,24);stroke:rgb(13,18,21);stroke-width:3.4px;"/>
        </g>
        <g transform="matrix(41.2222,0,0,1,-44083.9,44.6157)">
            <path d="M1099.1,1750.82C1098.61,1766.39 1097.92,1774.92 1096.84,1782.11L1097.45,1803.66L1099.6,1767.73L1099.1,1750.82Z" style="fill:rgb(42,44,43);stroke:rgb(13,18,21);stroke-width:0.1px;"/>
        </g>
        <g transform="matrix(0.938462,0,0,0.809524,1232.72,157.826)">
            <path d="M102.066,2003.52L4.972,2046.69L152.786,2043.72C208.218,2032.75 221.611,2019.7 246.881,1998.22L102.066,2003.52Z" style="fill:rgb(30,29,24);stroke:rgb(13,18,21);stroke-width:3.4px;"/>
        </g>
        <g transform="matrix(41.2222,0,0,1,-43849.2,24.9489)">
            <path d="M1099.26,1752.68C1099.23,1753.54 1099.2,1754.39 1099.17,1755.24C1099.17,1755.27 1099.17,1755.31 1099.17,1755.35C1098.7,1769.7 1098.18,1781.45 1097.16,1788.22L1097.7,1805.79L1099.77,1774.37L1099.26,1752.68Z" style="fill:rgb(42,44,43);stroke:rgb(13,18,21);stroke-width:0.1px;"/>
        </g>
        <g transform="matrix(0.938462,0,0,0.809524,1387.2,171.778)">
            <path d="M102.066,2003.52L4.972,2046.69L191.065,2042.88C238.957,2032.92 243.651,2022.22 268.921,2000.74L102.066,2003.52Z" style="fill:rgb(30,29,24);stroke:rgb(13,18,21);stroke-width:3.4px;"/>
        </g>
        <g transform="matrix(41.2222,0,0,1,-43694.7,38.9017)">
            <path d="M1100.22,1771.11C1100.22,1771.11 1099.75,1752.55 1099.75,1752.59C1099.28,1766.95 1098.99,1780.09 1097.97,1786.86L1098.43,1807.28L1100.22,1771.11Z" style="fill:rgb(42,44,43);stroke:rgb(13,18,21);stroke-width:0.1px;"/>
        </g>
        <g transform="matrix(41.2222,0,0,1,-43981.2,9.96627)">
            <path d="M1099.06,1751.62C1098.57,1767.19 1098.13,1771.95 1097.05,1779.13L1097.33,1798.37L1099.4,1767.9L1099.06,1751.62Z" style="fill:rgb(42,44,43);stroke:rgb(13,18,21);stroke-width:0.1px;"/>
        </g>
        <path d="M1448.91,1719.08L1319.46,1721.44L1210.35,1757.73L1339.18,1755.99C1399.2,1743.68 1431.69,1731.38 1448.91,1719.08Z" style="fill:rgb(30,29,24);stroke:rgb(13,18,21);stroke-width:2.98px;"/>
        <path d="M1449.39,1719.48C1425.49,1733.99 1389.2,1746.41 1338.88,1756.45L1352,1772.92L1460.55,1732.87L1449.39,1719.48Z" style="fill:rgb(42,44,43);stroke:rgb(13,18,21);stroke-width:2.98px;"/>
        <path d="M1632.62,1708.55L1503.77,1714.13L1334.76,1777.26L1491.87,1769.93C1563.2,1749.22 1605.94,1728.8 1632.62,1708.55Z" style="fill:rgb(30,29,24);stroke:rgb(13,18,21);stroke-width:2.98px;"/>
        <path d="M1633.2,1708.26C1611.29,1727.28 1571.35,1747.65 1493.15,1770.87L1506.41,1788.14L1645.41,1726.39L1633.2,1708.26Z" style="fill:rgb(42,44,43);stroke:rgb(13,18,21);stroke-width:2.98px;"/>
        <path d="M1827.58,1700.83L1685.15,1704.92L1504.77,1789.75L1657.65,1783.5C1716.08,1765.22 1772.87,1738.46 1827.58,1700.83Z" style="fill:rgb(30,29,24);stroke:rgb(13,18,21);stroke-width:2.98px;"/>
        <path d="M1827.34,1700.97C1771.83,1740.19 1715.11,1765.42 1657.77,1783.61L1671.83,1805.84L1840.03,1718.52L1827.34,1700.97Z" style="fill:rgb(42,44,43);stroke:rgb(13,18,21);stroke-width:2.98px;"/>
        <path d="M1968.47,1697.2L1880.78,1697.2L1841.13,1717.74L1928.1,1717.56C1946.82,1713.17 1960.23,1706.36 1968.47,1697.2Z" style="fill:rgb(30,29,24);stroke:rgb(13,18,21);stroke-width:2.98px;"/>
        <g transform="matrix(1,0,0,1,-55.6199,28.8305)">
            <path d="M1982.92,1693.46L1887.83,1694.4L1841.13,1717.74L1944.94,1716.37C1963.65,1711.98 1974.69,1702.62 1982.92,1693.46Z" style="fill:rgb(30,29,24);stroke:rgb(13,18,21);stroke-width:2.98px;"/>
        </g>
        <path d="M1968.57,1697.44C1960.6,1705.43 1947.9,1712.09 1929.48,1717.14L1942.44,1727.81C1959.35,1723.32 1971.07,1715.73 1978.92,1705.81L1968.57,1697.44Z" style="fill:rgb(42,44,43);stroke:rgb(13,18,21);stroke-width:2.98px;"/>
        <g transform="matrix(1,0,0,1,-41.1621,24.5782)">
            <path d="M1968.57,1697.44C1960.6,1705.43 1949.52,1716.08 1931.1,1721.14L1943.63,1730.53C1960.54,1726.05 1971.49,1717.09 1979.34,1707.17L1968.57,1697.44Z" style="fill:rgb(42,44,43);stroke:rgb(13,18,21);stroke-width:2.98px;"/>
        </g>
        <g transform="matrix(1,0,0,1,-105.943,56.8025)">
            <path d="M1968.9,1694.95C1960.93,1702.94 1949.52,1716.08 1931.1,1721.14L1943.63,1730.53C1960.54,1726.05 1971.49,1717.09 1979.34,1707.17L1968.9,1694.95Z" style="fill:rgb(42,44,43);stroke:rgb(13,18,21);stroke-width:2.98px;"/>
        </g>
        <path d="M2101.7,1692.57L2004.03,1693.73L1969.27,1712.34L2069.36,1711.77C2082.99,1708.4 2094.24,1701.38 2101.7,1692.57Z" style="fill:rgb(30,29,24);stroke:rgb(13,18,21);stroke-width:2.98px;"/>
        <path d="M2101.89,1692.76C2093.59,1702.15 2082.76,1709.39 2069.38,1711.71L2074.61,1730.72C2086.4,1727.23 2095.83,1721.92 2102.91,1714.8L2101.89,1692.76Z" style="fill:rgb(42,44,43);stroke:rgb(13,18,21);stroke-width:2.98px;"/>
        <path d="M2069.57,1711.54L1969.22,1712.9L1969.28,1729.23L2074.06,1731.13L2069.57,1711.54Z" style="fill:rgb(0,0,2);stroke:rgb(13,18,21);stroke-width:2.98px;"/>
        <path d="M2067.58,1715.81L1965.18,1717.26L1921.3,1745.07L2030.67,1741.84C2044.98,1737.08 2057.34,1728.51 2067.58,1715.81Z" style="fill:rgb(30,29,24);stroke:rgb(13,18,21);stroke-width:2.98px;"/>
        <path d="M2067.07,1716.15C2057.05,1726.6 2045.39,1735.61 2030.84,1742.09L2036.11,1760.29C2053.68,1753.33 2064.67,1742.78 2070.98,1734.69L2067.07,1716.15Z" style="fill:rgb(42,44,43);stroke:rgb(13,18,21);stroke-width:2.98px;"/>
        <path d="M2067.45,1715.88C2055.65,1727.7 2043.21,1736.79 2030.84,1742.09L2036.11,1760.29C2053.68,1753.33 2064.67,1742.78 2070.98,1734.69L2067.45,1715.88Z" style="fill:rgb(42,44,43);stroke:rgb(13,18,21);stroke-width:2.98px;"/>
        <path d="M2030.5,1741.75L1921.38,1745.58L1921.81,1761.48L2035.94,1760.55L2030.5,1741.75Z" style="fill:rgb(0,0,2);stroke:rgb(13,18,21);stroke-width:2.98px;"/>
        <g transform="matrix(1,0,0,1,-59.532,33.2741)">
            <path d="M2030.5,1741.75L1928.61,1741.75L1921.81,1761.59L2037.11,1761.72L2030.5,1741.75Z" style="fill:rgb(0,0,2);stroke:rgb(13,18,21);stroke-width:2.98px;"/>
        </g>
        <g transform="matrix(1,0,0,1,-218.66,73.4715)">
            <path d="M2036.43,1740.69L1864.5,1745.4L1861.51,1762.42L2045.16,1760.44L2036.43,1740.69Z" style="fill:rgb(0,0,2);stroke:rgb(13,18,21);stroke-width:2.98px;"/>
        </g>
        <g transform="matrix(1,0,0,1,-55.9773,32.0583)">
            <path d="M2075.87,1716.87L1965.18,1717.26L1923.96,1743.58L2025.57,1742.69C2042.75,1740.16 2065.64,1729.57 2075.87,1716.87Z" style="fill:rgb(30,29,24);stroke:rgb(13,18,21);stroke-width:2.98px;"/>
        </g>
        <g transform="matrix(1,0,0,1,-46.3499,31.9985)">
            <path d="M2066.27,1717.08C2058.49,1730.84 2033.58,1740.1 2017.02,1743.37L2023.25,1762.63C2043.79,1756.83 2066.8,1743.61 2070.98,1734.69L2066.27,1717.08Z" style="fill:rgb(42,44,43);stroke:rgb(13,18,21);stroke-width:2.98px;"/>
        </g>
        <g transform="matrix(1,0,0,1,-55.6199,28.8305)">
            <path d="M1982.92,1693.46L1887.83,1694.4L1841.13,1717.74L1944.94,1716.37C1963.65,1711.98 1974.69,1702.62 1982.92,1693.46Z" style="fill:rgb(30,29,24);stroke:rgb(13,18,21);stroke-width:2.98px;"/>
        </g>
        <g transform="matrix(1,0,0,1,-195.978,101.418)">
            <path d="M2073.45,1680.01L1905.11,1684.27L1841.13,1717.74L2000.92,1713.22C2023.45,1714.98 2069.37,1695.86 2073.45,1680.01Z" style="fill:rgb(30,29,24);stroke:rgb(13,18,21);stroke-width:2.98px;"/>
        </g>
        <g transform="matrix(1,0,0,1,-118.906,62.3837)">
            <path d="M1982.09,1688.64L1888.5,1690.74L1841.13,1717.74L1944.94,1716.37C1967.12,1707.17 1976.16,1694.62 1982.09,1688.64Z" style="fill:rgb(30,29,24);stroke:rgb(13,18,21);stroke-width:2.98px;"/>
        </g>
        <g transform="matrix(1,0,0,1,-124.879,94.01)">
            <path d="M2002.62,1688.14C2000.02,1700.42 1965.87,1719.73 1941.74,1720.22L1951.55,1739.12C1968.45,1734.63 2001.06,1719.75 2008.91,1709.83L2002.62,1688.14Z" style="fill:rgb(42,44,43);stroke:rgb(13,18,21);stroke-width:2.98px;"/>
        </g>
        <g transform="matrix(0.938462,0,0,0.809524,1104.68,140.559)">
            <path d="M102.066,2003.52L1.008,2041.27L146.361,2036.15C209.101,2022.57 215.307,2022.36 234.43,2003.56L102.066,2003.52Z" style="fill:rgb(30,29,24);stroke:rgb(13,18,21);stroke-width:3.4px;"/>
        </g>
        <g transform="matrix(0.938462,0,0,0.809524,1125.08,198.624)">
            <path d="M102.066,2003.52L4.687,2048.85L170.758,2045.58C225.061,2033.44 238.23,2023.28 264.846,2003.2L102.066,2003.52Z" style="fill:rgb(30,29,24);stroke:rgb(13,18,21);stroke-width:3.4px;"/>
        </g>
        <g transform="matrix(41.2222,0,0,1,-43956.8,65.7477)">
            <path d="M1099.67,1754.61C1099.18,1770.17 1098.59,1782.26 1097.51,1789.44L1097.92,1812.43L1100.02,1771.64L1099.67,1754.61Z" style="fill:rgb(42,44,43);stroke:rgb(13,18,21);stroke-width:0.1px;"/>
        </g>
        <g transform="matrix(0.938462,0,0,0.809524,1298.14,213.72)">
            <path d="M102.066,2003.52L4.687,2048.85L191.202,2045.08C245.506,2032.94 249.104,2017.4 275.721,1997.32L102.066,2003.52Z" style="fill:rgb(30,29,24);stroke:rgb(13,18,21);stroke-width:3.4px;"/>
        </g>
        <g transform="matrix(41.2222,0,0,1,-43783.8,80.8433)">
            <path d="M1099.89,1749.85C1099.4,1765.41 1099.05,1780.62 1097.97,1787.81L1098.48,1814.2C1099.24,1802.27 1099.88,1787.88 1100.38,1770.15L1099.89,1749.85Z" style="fill:rgb(42,44,43);stroke:rgb(13,18,21);stroke-width:0.1px;"/>
        </g>
        <g transform="matrix(1,0,0,1,-300.061,115.387)">
            <path d="M2030.5,1741.75L1864.13,1744.55L1861.27,1765.82L2047.66,1765.82L2030.5,1741.75Z" style="fill:rgb(0,0,2);stroke:rgb(13,18,21);stroke-width:2.98px;"/>
        </g>
        <g transform="matrix(1,0,0,1,-561.424,128.144)">
            <path d="M2038.39,1740.84L1864.13,1744.55L1861.27,1765.82L2060.86,1766.18L2038.39,1740.84Z" style="fill:rgb(0,0,2);stroke:rgb(13,18,21);stroke-width:2.98px;"/>
        </g>
        <g transform="matrix(1,0,0,1,-869.692,160.771)">
            <path d="M2024.62,1741.69L1864.13,1744.55L1861.27,1765.82L2044.34,1767.45L2024.62,1741.69Z" style="fill:rgb(0,0,2);stroke:rgb(13,18,21);stroke-width:2.98px;"/>
        </g>
        <g transform="matrix(1,0,0,1,-277.379,143.334)">
            <path d="M2080.98,1683.29L1904.74,1685.12L1841.13,1717.74L2009.79,1715.89C2032.32,1717.65 2076.9,1699.13 2080.98,1683.29Z" style="fill:rgb(30,29,24);stroke:rgb(13,18,21);stroke-width:2.98px;"/>
        </g>
        <g transform="matrix(1,0,0,1,-206.28,135.925)">
            <path d="M2010.4,1690.94C2007.79,1703.21 1963.52,1724.77 1939.39,1725.26L1954.29,1744.85C1971.19,1740.36 2012.6,1721.33 2020.45,1711.41L2010.4,1690.94Z" style="fill:rgb(42,44,43);stroke:rgb(13,18,21);stroke-width:2.98px;"/>
        </g>
        <g transform="matrix(1,0,0,1,-407.317,174.71)">
            <path d="M2056.63,1739.94L1862.43,1739.82L1862.25,1756.6L2067.69,1759.54L2056.63,1739.94Z" style="fill:rgb(0,0,2);stroke:rgb(13,18,21);stroke-width:2.98px;"/>
        </g>
        <g transform="matrix(1,0,0,1,-384.398,200.521)">
            <path d="M2106.25,1673.2L1926.73,1671.75L1838.21,1715.43L2024.25,1714.55C2046.78,1716.31 2102.17,1689.05 2106.25,1673.2Z" style="fill:rgb(30,29,24);stroke:rgb(13,18,21);stroke-width:2.98px;"/>
        </g>
        <g transform="matrix(1,0,0,1,-294.315,190.028)">
            <path d="M2016.47,1683.04C2013.87,1695.31 1967.62,1723.52 1943.49,1724.01L1954.83,1743.94C1976.29,1739.28 2025.71,1713.77 2029.68,1704L2016.47,1683.04Z" style="fill:rgb(42,44,43);stroke:rgb(13,18,21);stroke-width:2.98px;"/>
        </g>
        <g transform="matrix(1,0,0,1,-1313.81,629.248)">
            <path d="M2163.22,1737.29L1860.9,1732.7L1861.27,1765.82L2192.85,1785.35L2163.22,1737.29Z" style="fill:rgb(0,0,2);stroke:rgb(13,18,21);stroke-width:2.98px;"/>
        </g>
        <g transform="matrix(1,0,0,1,-1061.15,647.152)">
            <path d="M2699.41,1279.74C2696.81,1292.02 1935.07,1719.32 1910.94,1719.81L1938.82,1766.89C1960.28,1762.23 2715.92,1309.66 2719.9,1299.89L2699.41,1279.74Z" style="fill:rgb(42,44,43);stroke:rgb(13,18,21);stroke-width:2.98px;"/>
        </g>
        <g transform="matrix(0.938462,0,0,0.809524,1193.88,265.606)">
            <path d="M107.989,1994.78L-12.133,2052.04L182.401,2050.83C236.705,2038.69 254.475,2012.53 281.092,1992.45L107.989,1994.78Z" style="fill:rgb(30,29,24);stroke:rgb(13,18,21);stroke-width:3.4px;"/>
        </g>
        <g transform="matrix(41.2222,0,0,1,-43888,132.729)">
            <path d="M1100.04,1746.05C1099.56,1761.62 1098.85,1786.28 1097.77,1793.46L1098.36,1815.02L1100.51,1772.24L1100.04,1746.05Z" style="fill:rgb(42,44,43);stroke:rgb(13,18,21);stroke-width:0.1px;"/>
        </g>
        <g transform="matrix(0.938462,0,0,0.809524,863.635,302.815)">
            <path d="M123.001,1991.42L-12.133,2052.04L178.484,2047.53C232.787,2035.39 266.181,2009.25 292.798,1989.17L123.001,1991.42Z" style="fill:rgb(30,29,24);stroke:rgb(13,18,21);stroke-width:3.4px;"/>
        </g>
        <g transform="matrix(41.2222,0,0,1,-44218.3,169.939)">
            <path d="M1100.27,1742.71C1099.78,1758.27 1098.77,1783.61 1097.69,1790.79L1098.23,1815.78L1100.94,1765.67L1100.27,1742.71Z" style="fill:rgb(42,44,43);stroke:rgb(13,18,21);stroke-width:0.1px;"/>
        </g>
        <g transform="matrix(1,0,0,1,-1012.45,222.428)">
            <path d="M2043.61,1737.62L1864.3,1742.35L1861.27,1765.82L2066.03,1763.21L2043.61,1737.62Z" style="fill:rgb(0,0,2);stroke:rgb(13,18,21);stroke-width:2.98px;"/>
        </g>
        <g transform="matrix(0.938462,0,0,0.809524,686.726,369.554)">
            <path d="M149.817,1984.78L-12.133,2052.04L178.484,2047.53C232.787,2035.39 305.759,2001.53 332.375,1981.45L149.817,1984.78Z" style="fill:rgb(30,29,24);stroke:rgb(13,18,21);stroke-width:3.4px;"/>
        </g>
        <g transform="matrix(41.2222,0,0,1,-44395.2,236.677)">
            <path d="M1101.26,1736.98C1100.77,1752.55 1098.77,1783.61 1097.69,1790.79L1098.23,1815.78L1101.93,1762.55L1101.26,1736.98Z" style="fill:rgb(42,44,43);stroke:rgb(13,18,21);stroke-width:0.1px;"/>
        </g>
        <g transform="matrix(1,0,0,1,-1189.36,289.166)">
            <path d="M2043.61,1737.62L1864.3,1742.35L1861.27,1765.82L2066.03,1763.21L2043.61,1737.62Z" style="fill:rgb(0,0,2);stroke:rgb(13,18,21);stroke-width:2.98px;"/>
        </g>
        <g transform="matrix(41.2222,0,0,1,-44587.7,313.773)">
            <path d="M1101.76,1724.97C1101.27,1740.54 1098.77,1783.61 1097.69,1790.79L1098.34,1824.69L1102.51,1755.18L1101.76,1724.97Z" style="fill:rgb(42,44,43);stroke:rgb(13,18,21);stroke-width:0.1px;"/>
        </g>
        <g transform="matrix(1,0,0,1,-1381.91,366.262)">
            <path d="M2043.61,1737.62L1864.69,1734.6L1861.27,1765.82L2073.39,1772.51L2043.61,1737.62Z" style="fill:rgb(0,0,2);stroke:rgb(13,18,21);stroke-width:2.98px;"/>
        </g>
        <g transform="matrix(0.938462,0,0,0.809524,1056.83,323.87)">
            <path d="M117.525,1987.24L-12.133,2052.04L192.517,2048.89C246.821,2036.76 289.751,2008.03 316.367,1987.95L117.525,1987.24Z" style="fill:rgb(30,29,24);stroke:rgb(13,18,21);stroke-width:3.4px;"/>
        </g>
        <g transform="matrix(41.2222,0,0,1,-44025.1,190.993)">
            <path d="M1100.82,1742.19C1100.33,1757.76 1099.1,1784.32 1098.01,1791.51L1098.61,1820.72C1099.84,1801.9 1100.81,1784.13 1101.15,1768.93L1100.82,1742.19Z" style="fill:rgb(42,44,43);stroke:rgb(13,18,21);stroke-width:0.1px;"/>
        </g>
        <g transform="matrix(0.938462,0,0,0.809524,894.118,400.566)">
            <path d="M144.077,1971.77L-14.94,2046.11L192.517,2048.89C246.821,2036.76 316.435,1992.1 343.052,1972.02L144.077,1971.77Z" style="fill:rgb(30,29,24);stroke:rgb(13,18,21);stroke-width:3.4px;"/>
        </g>
        <g transform="matrix(41.2222,0,0,1,-44187.8,267.689)">
            <path d="M1101.46,1729.3C1100.97,1744.87 1099.1,1784.32 1098.01,1791.51L1098.61,1820.72C1099.84,1801.9 1101.68,1772.23 1102.02,1757.03L1101.46,1729.3Z" style="fill:rgb(42,44,43);stroke:rgb(13,18,21);stroke-width:0.1px;"/>
        </g>
        <g>
            <g transform="matrix(1,0,0,1,452.42,103.125)">
                <path d="M324.338,2298.51L36.758,2291.27L-259.178,2436.84L79.499,2438.12C190.51,2403.88 275.779,2358.87 324.338,2298.51Z" style="fill:rgb(30,29,24);stroke:rgb(13,18,21);stroke-width:8.97px;"/>
            </g>
            <g transform="matrix(1,0,0,1,16.896,-46.0553)">
                <path d="M515.409,2586.39L180.214,2584.76L191.114,2626.45L540.753,2639.53L515.409,2586.39Z" style="fill:rgb(0,0,2);stroke:rgb(13,18,21);stroke-width:8.97px;"/>
            </g>
            <path d="M776.48,2400.81C727.208,2465.39 636.577,2507.12 532.033,2541.16L556.014,2592.39C683.097,2539.81 776.484,2488.36 817.085,2438.69L776.48,2400.81Z" style="fill:rgb(42,44,43);stroke:rgb(13,18,21);stroke-width:8.97px;"/>
        </g>
        <g>
            <g transform="matrix(1,0,0,1,-767.149,429.112)">
                <path d="M770.641,2402.43C721.368,2467.01 553.97,2542.03 449.426,2576.07L491.717,2639.65C625.075,2596.49 784.485,2522.59 820.005,2465.29L770.641,2402.43Z" style="fill:rgb(42,44,43);stroke:rgb(13,18,21);stroke-width:8.97px;"/>
            </g>
            <g transform="matrix(1,0,0,1,135.789,282.583)">
                <path d="M324.338,2298.51L36.758,2291.27L-259.178,2436.84L-0.979,2471.76C110.033,2437.51 275.779,2358.87 324.338,2298.51Z" style="fill:rgb(30,29,24);stroke:rgb(13,18,21);stroke-width:8.97px;"/>
            </g>
            <g transform="matrix(1,0,0,1,-299.735,133.402)">
                <path d="M432.377,2620.46L180.214,2584.76L191.114,2626.45L476.882,2683.82L432.377,2620.46Z" style="fill:rgb(0,0,2);stroke:rgb(13,18,21);stroke-width:8.97px;"/>
            </g>
            <g transform="matrix(1,0,0,1,-316.631,179.458)">
                <path d="M776.48,2400.81C727.208,2465.39 553.97,2542.03 449.426,2576.07L491.717,2639.65C625.075,2596.49 781.565,2495.98 817.085,2438.69L776.48,2400.81Z" style="fill:rgb(42,44,43);stroke:rgb(13,18,21);stroke-width:8.97px;"/>
            </g>
        </g>
        <g transform="matrix(1,0,0,1,-1292.83,646.654)">
            <path d="M2931.16,1279.1L2732.81,1279.1L1838.21,1715.43L2142.55,1720.49C2165.09,1722.25 2927.08,1294.94 2931.16,1279.1Z" style="fill:rgb(30,29,24);stroke:rgb(13,18,21);stroke-width:2.98px;"/>
        </g>
        <g transform="matrix(0.938462,0,0,0.809524,494.18,446.649)">
            <path d="M160.964,1973.77L-10.969,2043.53L178.484,2047.53C232.787,2035.39 330.941,1986.7 357.557,1966.62L160.964,1973.77Z" style="fill:rgb(30,29,24);stroke:rgb(13,18,21);stroke-width:3.4px;"/>
        </g>
        <g transform="matrix(41.2222,0,0,1,-44813.4,404.815)">
            <path d="M1102.07,1727.22C1101.58,1742.79 1098.93,1791.74 1097.85,1798.93L1098.34,1824.69L1102.51,1755.18L1102.07,1727.22Z" style="fill:rgb(42,44,43);stroke:rgb(13,18,21);stroke-width:0.1px;"/>
        </g>
        <g transform="matrix(1,0,0,1,-1607.58,457.304)">
            <path d="M2051.34,1746.94L1871.23,1727.86L1866.03,1756.89L2073.79,1775.29L2051.34,1746.94Z" style="fill:rgb(0,0,2);stroke:rgb(13,18,21);stroke-width:2.98px;"/>
        </g>
        <g transform="matrix(0.938462,0,0,0.809524,268.511,537.692)">
            <path d="M189.286,1956.62L-3.994,2035.2L186.516,2058.31C240.819,2046.17 346.919,1985.46 373.535,1965.38L189.286,1956.62Z" style="fill:rgb(30,29,24);stroke:rgb(13,18,21);stroke-width:3.4px;"/>
        </g>
        <g transform="matrix(41.2222,0,0,1,-45095.7,508.933)">
            <path d="M1103.8,1715.32C1103.32,1730.88 1098.93,1791.74 1097.85,1798.93L1098.32,1846.51L1104.44,1748.24L1103.8,1715.32Z" style="fill:rgb(42,44,43);stroke:rgb(13,18,21);stroke-width:0.1px;"/>
        </g>
        <g transform="matrix(1,0,0,1,-1888.92,612.995)">
            <path d="M2051.94,1694.97L1837.12,1689.77L1824.18,1710.08L2069.92,1741.45L2051.94,1694.97Z" style="fill:rgb(0,0,2);stroke:rgb(13,18,21);stroke-width:2.98px;"/>
        </g>
        <g transform="matrix(0.938462,0,0,0.809524,-13.8173,641.809)">
            <path d="M253.801,1928.47L-62.964,2050.88L186.516,2058.31C240.819,2046.17 421.841,1973.28 448.458,1953.2L253.801,1928.47Z" style="fill:rgb(30,29,24);stroke:rgb(13,18,21);stroke-width:3.4px;"/>
        </g>
        <g transform="matrix(41.2222,0,0,1,-45398,621.599)">
            <path d="M1103.8,1715.32C1103.32,1730.88 1098.93,1791.74 1097.85,1798.93L1098.34,1824.69L1104.44,1748.24L1103.8,1715.32Z" style="fill:rgb(42,44,43);stroke:rgb(13,18,21);stroke-width:0.1px;"/>
        </g>
        <g transform="matrix(0.938462,0,0,0.809524,-316.112,754.476)">
            <path d="M240.062,1942.19L-62.964,2050.88L186.516,2058.31C240.819,2046.17 421.841,1973.28 448.458,1953.2L240.062,1942.19Z" style="fill:rgb(30,29,24);stroke:rgb(13,18,21);stroke-width:3.4px;"/>
        </g>
    </g>
    <g id="Hand" transform="matrix(0.221453,0,0,0.221453,0,0)">
        <path d="M2941.06,1864.49C2944.86,1865.2 2968.82,1847.05 2985.03,1830.91C2985.01,1830.93 2984.99,1830.95 2984.97,1830.97C2982.05,1833.52 2867.29,1852.21 2827.47,1822.73C2704.73,1731.84 2551.93,1499.92 2551.93,1499.92L2591.92,1395.58L2426.38,1456.11C2336.04,1479.16 2263.24,1488.05 2238.47,1458.14L2212.97,1413.22C2201.46,1389.67 2186.91,1367.06 2176.07,1348.19L2173.68,1343.99C2174.45,1345.37 2175.25,1346.77 2176.07,1348.19L2212.97,1413.22C2232.59,1453.34 2243.38,1496.17 2211.89,1527.76L2245.03,1651.72C2227.57,1656.24 1983.77,1697.32 1964.58,1711.54C1945.56,1751.58 1946.07,1687.43 1933.8,1656.68C1933.62,1656.22 1932.98,1657.47 1932.98,1657.47C1932.98,1657.47 1909.6,1573.96 1922.95,1514.49L1994.79,1177.21C2014.12,1034.32 2088.67,997.821 2192.11,1016.99C2349.8,1040.47 2479.75,1082.45 2575.92,1146.95L2955.24,1240.07C3080.7,1216.05 3249.36,1256.82 3436.38,1325.13C3652.55,1407.65 3868.72,1428.88 4084.88,1391.21L4692.07,1070.17L4743.83,2074.39L4273.86,2206.84C4145.57,2452.79 3992.97,2522.51 3832.59,2535.9L3627.18,2551.07L3087.08,2575.09L2796.14,2616.64L2291.39,2646.08C2291.39,2646.08 2019.44,2676.08 1997.27,2476.49C1974.86,2274.69 2214.02,2175.72 2214.02,2175.72C2521.41,2074.75 2776.99,2018.33 2967.47,2017.87L3403.66,1937.61L2982.41,2014.31C2947.98,1964.95 2941.06,1864.49 2941.06,1864.49Z" style="fill:rgb(192,140,113);stroke:rgb(13,18,21);stroke-width:5.74px;"/>
        <g transform="matrix(0.739907,0,0,0.739907,328.743,1193.52)">
            <path d="M2601.8,1433.25C2601.8,1433.25 2274.02,1467.17 2310.26,1724.37C2337.33,1916.53 2559.18,1910.11 2587.64,1908.09C2638.96,1904.46 2801.82,1900.08 2855.28,1841.84C2893.51,1800.18 2855.62,1460.71 2787.1,1412.02C2755.67,1389.68 2601.8,1433.25 2601.8,1433.25Z" style="fill:rgb(195,125,88);"/>
        </g>
        <g transform="matrix(0.739907,0,0,0.739907,1006.12,661.602)">
            <path d="M2424.78,1891.07C2586.2,2039.65 2660.62,2206.27 2640.18,2392.55" style="fill:none;stroke:rgb(13,18,21);stroke-width:7.76px;"/>
        </g>
        <g transform="matrix(0.739907,0,0,0.739907,1006.12,661.602)">
            <path d="M2264.27,1964.25C2285.35,2145.91 2329.13,2324.84 2405.65,2499.84" style="fill:none;stroke:rgb(13,18,21);stroke-width:7.76px;"/>
        </g>
        <g transform="matrix(0.739907,0,0,0.739907,1006.12,661.602)">
            <path d="M2446.4,2309.39C2491.4,2407.54 2503.16,2491.24 2497.13,2567.2" style="fill:none;stroke:rgb(13,18,21);stroke-width:7.76px;"/>
        </g>
        <g transform="matrix(0.739907,0,0,0.739907,1006.12,661.602)">
            <path d="M2726.67,2038.27C2828.49,2204.76 2839.69,2363.01 2770.75,2513.98" style="fill:none;stroke:rgb(13,18,21);stroke-width:7.76px;"/>
        </g>
        <g transform="matrix(0.739907,0,0,0.739907,1006.12,661.602)">
            <path d="M2417.3,1999.18C2474.05,2111.17 2515.51,2222.07 2541.21,2331.84" style="fill:none;stroke:rgb(13,18,21);stroke-width:7.76px;"/>
        </g>
        <g id="Finger">
            <g transform="matrix(1,0,0,1,0.945763,2.22978)">
                <path d="M2591.92,1395.58C2591.92,1395.58 3001.86,1788.56 2987.26,1828.45C2972.65,1842.11 2955.76,1855.64 2941.06,1864.49C2828.67,1932.19 2714.21,1869.93 2600.33,1843.51C2618,1828.63 2632.96,1812.74 2646.34,1796.25C2631.65,1813.71 2616.29,1829.4 2600.33,1843.51C2482.99,1947.22 2333.1,1965.77 2179.09,1973.54C2019.67,2070.81 1880.57,2134.82 1765.21,2159.97L1553.39,2277.15C1553.39,2277.15 1362.33,2322.61 1307.28,2275.53C1223.72,2204.06 1303.3,2146.11 1303.3,2146.11L1455.09,2034.44C1513.3,1958.4 1578.34,1901.49 1652.58,1870.32L1932.98,1657.47C1933.25,1657.21 1933.53,1656.94 1933.8,1656.68C1938.15,1652.55 1959.13,1632.91 1983.74,1614.67C2004.23,1599.91 2023.56,1589.27 2041.79,1582.56C2076.93,1573.47 2211.89,1527.76 2211.89,1527.76L2426.38,1456.11L2591.92,1395.58Z" style="fill:rgb(192,140,113);stroke:rgb(13,18,21);stroke-width:5.74px;"/>
            </g>
            <g transform="matrix(0.739907,0,0,0.739907,-398.136,1006.99)">
                <path d="M2504.3,1411.96C2425.6,1454.29 2352.19,1507.17 2285.99,1574.48C2306.9,1599.9 2353.92,1603.28 2353.92,1603.28C2420.63,1562.27 2541.61,1433.74 2504.3,1411.96Z" style="fill:rgb(195,125,88);"/>
            </g>
            <g transform="matrix(0.739907,0,0,0.739907,1006.12,661.602)">
                <path d="M1233.91,1390.37C1285.86,1458.79 1340.21,1520.01 1407.72,1541.73" style="fill:none;stroke:rgb(13,18,21);stroke-width:7.76px;"/>
            </g>
            <g transform="matrix(0.739907,0,0,0.739907,1006.12,661.602)">
                <path d="M1379.45,1273.11L1440.99,1366.25" style="fill:none;stroke:rgb(13,18,21);stroke-width:7.76px;"/>
            </g>
            <g transform="matrix(0.739907,0,0,0.739907,1006.12,661.602)">
                <path d="M1504.19,1231.52C1553.19,1315.52 1564.98,1399.52 1534.13,1483.51" style="fill:none;stroke:rgb(13,18,21);stroke-width:7.76px;"/>
            </g>
        </g>
        <path d="M2611.31,1384.66C2596.93,1390.31 2587.35,1399.1 2590.25,1416.06L2935.22,1827.57L3062.25,1829.95L2611.31,1384.66Z" style="fill:rgb(192,140,113);"/>
    </g>
    <g id="Arrow" transform="matrix(9.73988e-17,-1.59064,1.59064,9.73988e-17,-282.69,910.726)">
        <path d="M452.036,345.306L338.942,345.306L338.942,337.27L304.854,372.654L338.942,409.699L338.942,402.285L452.036,402.285L452.036,345.306Z" style="fill:rgb(255,0,0);"/>
    </g>
    <g id="Click" transform="matrix(0.221453,0,0,0.221453,125.034,50.6571)">
        <g transform="matrix(1,0,0,1,25,-59)">
            <path d="M704.728,1982.85L393.611,1638.31" style="fill:none;stroke:white;stroke-width:36.5px;"/>
        </g>
        <g transform="matrix(1,0,0,1,25,-59)">
            <path d="M812.332,1916.91L782.557,1495.83" style="fill:none;stroke:white;stroke-width:36.5px;"/>
        </g>
        <g transform="matrix(1,0,0,1,25,-59)">
            <path d="M912.576,1946.61L1106.5,1587.09" style="fill:none;stroke:white;stroke-width:36.5px;"/>
        </g>
        <g transform="matrix(1,0,0,1,25,-59)">
            <path d="M999.339,2057.87L1325.12,1823.81" style="fill:none;stroke:white;stroke-width:36.5px;"/>
        </g>
        <g transform="matrix(1,0,0,1,25,-59)">
            <path d="M644.021,2072.31L207.193,1866.95" style="fill:none;stroke:white;stroke-width:36.5px;"/>
        </g>
    </g>
    <style>
        #Arrow {
            animation-name: arrow;
            animation-duration: 5s;
            animation-direction: normal;
            animation-fill-mode: forwards;
            animation-iteration-count: infinite;
            animation-timing-function: ease-in-out;
            opacity:0;
        }

        @keyframes arrow {
            from {
                opacity:0;
            }
            30% {
                opacity:0;
            }
            35% {
                opacity:1;
            }
            55% {
                opacity:1;
            }
            60% {
                opacity:0;
            }
        }

        #LMB {
            animation-name: lmb;
            animation-duration: 5s;
            animation-direction: normal;
            animation-fill-mode: forwards;
            animation-iteration-count: infinite;
            animation-timing-function: linear;
            rotate: 0deg;
        }
        @keyframes lmb {
            from {
                transform: translate(0, 0);
            }
            45% {
                transform: translate(0, 0);
            }
            50% {
                transform: translate(0, 20px);
            }
            55% {
                transform: translate(0, 0);
            }
        }

        #Finger {
            animation-name: finger;
            animation-duration: 5s;
            animation-direction: normal;
            animation-fill-mode: forwards;
            animation-iteration-count: infinite;
            animation-timing-function: linear;
            transform-origin: 250% 100%;
            transform: rotate(0deg);
        }
        @keyframes finger {
            from {
                transform: rotate(0deg);
            }
            45% {
                transform: rotate(0deg);
            }
            50% {
                transform: rotate(-1deg);
            }
            55% {
                transform: rotate(0deg);
            }
        }

        #Click {
            opacity:0;
            animation-name: click;
            animation-duration: 5s;
            animation-direction: normal;
            animation-fill-mode: forwards;
            animation-iteration-count: infinite;
            animation-timing-function: ease-in-out;
        }
        @keyframes click {
            from {
                opacity:0;
            }
            45% {
                opacity:0;
            }
            50% {
                opacity:1;
            }
            55% {
                opacity:0;
            }
        }
    </style>
</svg>
