<?xml version="1.0" encoding="UTF-8" standalone="no"?>
<!DOCTYPE svg PUBLIC "-//W3C//DTD SVG 1.1//EN" "http://www.w3.org/Graphics/SVG/1.1/DTD/svg11.dtd">
<svg width="100%" height="100%" viewBox="0 0 1024 769" version="1.1" xmlns="http://www.w3.org/2000/svg" style="fill-rule:evenodd;clip-rule:evenodd;stroke-linecap:round;stroke-linejoin:round;stroke-miterlimit:1.5;" calcMode="discrete">
    <g id="front">
        <g id="front-laptop" transform="matrix(1,0,0,1,0,1)">
            <g transform="matrix(0.0584063,0,0,0.0584063,449.397,271.125)">
                <path d="M8511.62,-2659.1C8509.46,-2794.11 8436.69,-2867.93 8280.71,-2869.62L-6040.23,-2922.98C-6138.25,-2925.33 -6189.64,-2881.06 -6193.31,-2789.06L-6935.15,6973.86L9141.86,6980.76L8511.62,-2659.1Z" style="fill:rgb(35,34,32);stroke:rgb(13,18,21);stroke-width:2.89px;"/>
            </g>
            <g transform="matrix(0.263741,0,0,0.263741,-93.9668,-18.9809)">
                <path d="M4306.13,2983.91L305.726,2983.91L486.931,2666.43C495.877,2651.27 507.711,2642.18 523.923,2642.28L4082.16,2643.05C4108.46,2642.84 4122.62,2659.39 4133.64,2680.28L4306.13,2983.91Z" style="fill:rgb(35,34,32);stroke:rgb(13,18,21);stroke-width:0.64px;"/>
            </g>
            <g transform="matrix(0.263741,0,0,0.263741,-93.9668,-17.9809)">
                <path d="M903.832,2823.13L622.254,2912.54L611.092,2933.25L881.061,2938.61L920.631,2833.45L903.832,2823.13Z" style="fill:rgb(22,16,16);"/>
            </g>
            <g transform="matrix(0.263741,0,0,0.263741,-46.1707,-17.7653)">
                <path d="M903.832,2823.13L710.919,2916.81L706.116,2937.45L880.704,2939.77L920.631,2833.45L903.832,2823.13Z" style="fill:rgb(22,16,16);"/>
            </g>
            <g transform="matrix(0.278615,0.116688,-0.114355,0.273045,164.44,-439.273)">
                <ellipse cx="3398.84" cy="2709" rx="61.916" ry="46.873" style="fill:rgb(54,49,43);"/>
            </g>
            <g transform="matrix(0.0584063,0,0,0.0584063,344.005,264.413)">
                <path d="M9929.75,-2069.73L-4050.95,-2156.33L-4626.67,5914.55L10447.5,5929.33L9929.75,-2069.73Z" style="fill:rgb(26,111,243);stroke:rgb(13,18,21);stroke-width:2.89px;"/>
            </g>
            <g transform="matrix(0.263741,0,0,0.263741,-93.9668,-17.9809)">
                <path d="M904.682,2822.31L664.143,2819.86L621.358,2913.04L867.347,2916.86L904.682,2822.31Z" style="fill:rgb(54,49,43);"/>
            </g>
            <g transform="matrix(0.263741,0,0,0.263741,-93.9668,-17.9809)">
                <path d="M1084.27,2823.13L927.939,2821.77L891.967,2917.4L1049.66,2920.4L1084.27,2823.13Z" style="fill:rgb(54,49,43);"/>
            </g>
            <g transform="matrix(0.263741,0,0,0.263741,1.12222,-17.0465)">
                <path d="M903.832,2823.13L710.54,2916.75L706.745,2936.25L883.294,2934.93L920.631,2833.45L903.832,2823.13Z" style="fill:rgb(22,16,16);"/>
            </g>
            <g transform="matrix(0.263741,0,0,0.263741,-46.6738,-17.2622)">
                <path d="M1084.27,2823.13L927.939,2821.77L891.967,2917.4L1051.02,2918.02L1084.27,2823.13Z" style="fill:rgb(54,49,43);"/>
            </g>
            <g transform="matrix(0.263741,0,0,0.263741,50.2547,-17.8888)">
                <path d="M903.832,2823.13L710.818,2919.64L706.745,2936.25L881.061,2938.61L916.271,2838.25L903.832,2823.13Z" style="fill:rgb(22,16,16);"/>
            </g>
            <g transform="matrix(0.263741,0,0,0.263741,98.729,-16.7921)">
                <path d="M892.853,2819.59L713.683,2915.61L707.174,2932.82L884.898,2932.51L902.769,2833.82L892.853,2819.59Z" style="fill:rgb(22,16,16);"/>
            </g>
            <g transform="matrix(0.263741,0,0,0.263741,154.003,-17.2308)">
                <path d="M898.426,2821.39L745.073,2819.43L739.567,2833.55L720,2933.11L892.398,2931.98L905.632,2838.42L898.426,2821.39Z" style="fill:rgb(22,16,16);"/>
            </g>
            <g transform="matrix(0.263741,0,0,0.263741,204.232,-19.2048)">
                <path d="M888.135,2829.23L732.08,2829.6L725.016,2851L714.07,2940.96L885.422,2939.48L896.388,2845.57L888.135,2829.23Z" style="fill:rgb(22,16,16);"/>
            </g>
            <g transform="matrix(0.263741,0,0,0.263741,252.048,-17.2308)">
                <path d="M883.426,2820.86L729.339,2821.38L722.923,2839.14L717.558,2931.37L886.468,2931.81L888.366,2834.59L883.426,2820.86Z" style="fill:rgb(22,16,16);"/>
            </g>
            <g transform="matrix(0.263741,0,0,0.263741,299.449,-17.0656)">
                <path d="M883.426,2820.86L729.339,2821.38L724.179,2836.35L722.442,2930.11L891.112,2930.83L888.366,2834.59L883.426,2820.86Z" style="fill:rgb(22,16,16);"/>
            </g>
            <g transform="matrix(0.263741,0,0,0.263741,355.972,-17.4336)">
                <path d="M884.403,2819.47L729.339,2821.38L722.923,2839.14L727.604,2930.67L898.925,2930.27L891.017,2833.61L884.403,2819.47Z" style="fill:rgb(22,16,16);"/>
            </g>
            <g transform="matrix(0.263741,0,0,0.263741,402.523,-18.3903)">
                <path d="M884.403,2819.47L729.339,2821.38L721.137,2837.78L727.428,2933.9L905.622,2933.9L891.017,2833.61L884.403,2819.47Z" style="fill:rgb(22,16,16);"/>
            </g>
            <g transform="matrix(0.263741,0,0,0.263741,449.442,-18.2753)">
                <path d="M882.189,2822.9L729.339,2821.38L722.923,2839.14L729,2933.18L905.622,2933.9L888.088,2841.25L882.189,2822.9Z" style="fill:rgb(22,16,16);"/>
            </g>
            <g transform="matrix(0.263741,0,0,0.263741,496.707,-17.6429)">
                <path d="M884.309,2821L729.339,2821.38L719.463,2840.59L734.246,2930.84L911.762,2933.34L908.738,2916.6L884.309,2821Z" style="fill:rgb(22,16,16);"/>
            </g>
            <g transform="matrix(0.263741,0,0,0.263741,552.984,-17.571)">
                <path d="M913.342,2915.48L729.625,2819.66L711.962,2834.31L740.943,2935.44L914.971,2934.32L913.342,2915.48Z" style="fill:rgb(22,16,16);"/>
            </g>
            <g transform="matrix(0.263741,0,0,0.263741,602.145,-17.1397)">
                <path d="M909.081,2915.17L722.711,2819.46L708.824,2832.57L741.397,2933.11L911.762,2933.34L909.081,2915.17Z" style="fill:rgb(22,16,16);"/>
            </g>
            <g transform="matrix(0.263741,0,0,0.263741,649.007,-17.3554)">
                <path d="M918.33,2917.3L725.851,2820.51L718.94,2839.72L743.838,2932.93L920.831,2932.12L918.33,2917.3Z" style="fill:rgb(22,16,16);"/>
            </g>
            <g transform="matrix(0.263741,0,0,0.263741,691.699,-18.721)">
                <path d="M1016,2917.3L736.664,2826.26L728.707,2842.86L762.326,2937.29L1029.83,2933.34L1016,2917.3Z" style="fill:rgb(22,16,16);"/>
            </g>
            <g transform="matrix(0.263741,0,0,0.263741,2.45862,-18.1044)">
                <path d="M1084.27,2823.13L927.939,2821.77L891.967,2920.47L1052.59,2921.38L1084.27,2823.13Z" style="fill:rgb(54,49,43);"/>
            </g>
            <g transform="matrix(0.263741,0,0,0.263741,49.1766,-17.8349)">
                <path d="M1080.86,2823.13L927.939,2821.77L901.505,2919.79L1061.24,2919.38L1080.86,2823.13Z" style="fill:rgb(54,49,43);"/>
            </g>
            <g transform="matrix(0.263741,0,0,0.263741,105.777,-17.8349)">
                <path d="M1080.86,2823.13L927.939,2821.77L908.318,2917.74L1069.08,2917.68L1080.86,2823.13Z" style="fill:rgb(54,49,43);"/>
            </g>
            <g transform="matrix(0.263741,0,0,0.263741,154.067,-17.5541)">
                <path d="M1078.2,2822.6L922.617,2822.83L908.318,2917.74L1069.08,2917.68L1078.2,2822.6Z" style="fill:rgb(54,49,43);"/>
            </g>
            <g transform="matrix(0.263741,0,0,0.263741,203.2,-17.8349)">
                <path d="M1068.83,2823.25L914.332,2823.05L908.318,2917.74L1067.33,2917.89L1068.83,2823.25Z" style="fill:rgb(54,49,43);"/>
            </g>
            <g transform="matrix(0.263741,0,0,0.263741,251.786,-17.3749)">
                <path d="M1063.94,2821.33L910.19,2822.39L908.318,2917.74L1067.33,2917.89L1063.94,2821.33Z" style="fill:rgb(54,49,43);"/>
            </g>
            <g transform="matrix(0.263741,0,0,0.263741,310.049,-19.4312)">
                <path d="M1058.77,2826.24L903.65,2829.21L907.228,2921.56L1065.7,2921.16L1058.77,2826.24Z" style="fill:rgb(54,49,43);"/>
            </g>
            <g transform="matrix(0.263741,0,0,0.263741,358.373,-18.7458)">
                <path d="M1050.59,2821.61L896.837,2822.67L902.323,2921.29L1064.19,2920.13L1050.59,2821.61Z" style="fill:rgb(54,49,43);"/>
            </g>
            <g transform="matrix(0.263741,0,0,0.263741,404.64,-19.0885)">
                <path d="M1052.22,2825.52L899.167,2824.35L914.039,2921.65L1069.85,2923.34L1052.22,2825.52Z" style="fill:rgb(54,49,43);"/>
            </g>
            <g transform="matrix(0.263741,0,0,0.263741,453.306,-15.3186)">
                <path d="M1048.68,2811.52L894.144,2812.63L911.37,2908.81L1074.09,2908.3L1048.68,2811.52Z" style="fill:rgb(54,49,43);"/>
            </g>
            <g transform="matrix(0.263741,0,0,0.263741,513.625,-19.0885)">
                <path d="M1031.43,2825.1L878.936,2825.33L906.365,2920.95L1063.01,2921.66L1031.43,2825.1Z" style="fill:rgb(54,49,43);"/>
            </g>
            <g transform="matrix(0.263741,0,0,0.263741,562.977,-19.0885)">
                <path d="M1023.48,2826.77L870.006,2826.16L902.877,2924.02L1057.75,2922.68L1023.48,2826.77Z" style="fill:rgb(54,49,43);"/>
            </g>
            <g transform="matrix(0.263741,0,0,0.263741,611.643,-20.4594)">
                <path d="M1017.29,2832.67L866.239,2831.88L901.202,2927.93L1059.92,2928.8L1017.29,2832.67Z" style="fill:rgb(54,49,43);"/>
            </g>
            <g transform="matrix(0.263741,0,0,0.263741,662.366,-20.4594)">
                <path d="M1078.59,2829.85L847.402,2832.21L886.299,2924.72L1128.31,2924.37L1078.59,2829.85Z" style="fill:rgb(54,49,43);"/>
            </g>
        </g>
        <g id="front-ArrowLeft" transform="matrix(1,0,0,1,-2.24819,-13.3885)">
            <path d="M452.036,345.306L338.942,345.306L338.942,337.27L304.854,372.654L338.942,409.699L338.942,402.285L452.036,402.285L452.036,345.306Z" style="fill:rgb(255,0,0);"/>
        </g>
        <g id="front-ArrowRight" transform="matrix(-1,-1.22465e-16,1.22465e-16,-1,1011.84,733.58)">
            <path d="M452.036,345.306L338.942,345.306L338.942,337.27L304.854,372.654L338.942,409.699L338.942,402.285L452.036,402.285L452.036,345.306Z" style="fill:rgb(255,0,0);"/>
        </g>
        <g id="front-ArrowUp" transform="matrix(-1.83697e-16,1,-1,-1.83697e-16,876.929,-148.745)">
            <path d="M452.036,345.306L338.942,345.306L338.942,337.27L304.854,372.654L338.942,409.699L338.942,402.285L452.036,402.285L452.036,345.306Z" style="fill:rgb(255,0,0);"/>
        </g>
        <g id="front-ArrowDown" transform="matrix(3.06162e-16,-1,1,3.06162e-16,131.31,878.829)">
            <path d="M452.036,345.306L338.942,345.306L338.942,337.27L304.854,372.654L338.942,409.699L338.942,402.285L452.036,402.285L452.036,345.306Z" style="fill:rgb(255,0,0);"/>
        </g>
        <g id="Cursor">
            <g transform="matrix(0.557059,0,0,0.557059,292.729,192.725)">
                <path d="M446.106,330.171L331.711,215.422L330.741,375.646L369.351,336.413L396.756,388.566L416.9,377.421L391.828,329.905L446.106,330.171Z" style="fill:rgb(235,235,235);stroke:black;stroke-width:7.48px;"/>
            </g>
        </g>
    </g>
    <g id="top">
        <g id="top-Laptop" transform="matrix(0.221453,0,0,0.221453,-5.20006,2.91461)">
            <g transform="matrix(1,0,0,1,-22.8422,-12.6902)">
                <rect x="-34.838" y="-59.172" width="4718.16" height="2700.44" style="fill:url(#topLaptop);stroke:rgb(17,23,23);stroke-width:5.28px;"/>
            </g>
            <g id="Touchpad" transform="matrix(1,0,0,1,78.6781,-40.6082)">
                <g transform="matrix(2.01327,0,0,5.04206,-1379.04,-3349.81)">
                    <path d="M2277.48,840.094C2277.48,837.006 2271.2,834.498 2263.47,834.498L1284.41,834.498C1276.68,834.498 1270.4,837.006 1270.4,840.094L1270.4,1141.59C1270.4,1144.67 1276.68,1147.18 1284.41,1147.18L2263.47,1147.18C2271.2,1147.18 2277.48,1144.67 2277.48,1141.59L2277.48,840.094Z" style="fill:rgb(17,23,23);"/>
                </g>
                <g transform="matrix(1,0,0,1,-88.4134,26.6529)">
                    <path d="M2277.48,858.501C2277.48,845.253 2266.73,834.498 2253.48,834.498L1294.4,834.498C1281.15,834.498 1270.4,845.253 1270.4,858.501L1270.4,1123.18C1270.4,1136.43 1281.15,1147.18 1294.4,1147.18L2253.48,1147.18C2266.73,1147.18 2277.48,1136.43 2277.48,1123.18L2277.48,858.501Z" style="fill:rgb(47,51,52);stroke:rgb(17,23,23);stroke-width:4.59px;"/>
                </g>
                <g transform="matrix(1,0,0,1,925.217,27.9021)">
                    <path d="M2277.48,858.501C2277.48,845.253 2266.73,834.498 2253.48,834.498L1294.4,834.498C1281.15,834.498 1270.4,845.253 1270.4,858.501L1270.4,1123.18C1270.4,1136.43 1281.15,1147.18 1294.4,1147.18L2253.48,1147.18C2266.73,1147.18 2277.48,1136.43 2277.48,1123.18L2277.48,858.501Z" style="fill:rgb(47,51,52);stroke:rgb(17,23,23);stroke-width:4.59px;"/>
                </g>
                <g transform="matrix(2.00852,0,0,4.02213,-1370.89,-2181.74)">
                    <path d="M2277.48,840.094C2277.48,837.006 2272.46,834.498 2266.28,834.498L1281.61,834.498C1275.42,834.498 1270.4,837.006 1270.4,840.094L1270.4,1141.59C1270.4,1144.67 1275.42,1147.18 1281.61,1147.18L2266.28,1147.18C2272.46,1147.18 2277.48,1144.67 2277.48,1141.59L2277.48,840.094Z" style="fill:rgb(47,51,52);stroke:rgb(17,23,23);stroke-width:1.44px;"/>
                </g>
            </g>
            <g transform="matrix(0.955208,0,0,0.982542,75.3682,24.6872)">
                <path d="M3107.64,491.151C3107.64,474.696 3093.9,461.337 3076.97,461.337L1397.65,461.337C1380.73,461.337 1366.98,474.696 1366.98,491.151L1366.98,729.255C1366.98,745.71 1380.73,759.069 1397.65,759.069L3076.97,759.069C3093.9,759.069 3107.64,745.71 3107.64,729.255L3107.64,491.151Z" style="fill:rgb(47,51,52);stroke:rgb(17,23,23);stroke-width:5.45px;"/>
            </g>
            <g transform="matrix(0.175311,0,0,0.961474,2841.09,34.4067)">
                <path d="M3107.64,491.151C3107.64,474.696 3039.89,461.337 2956.45,461.337L1518.17,461.337C1434.73,461.337 1366.98,474.696 1366.98,491.151L1366.98,729.255C1366.98,745.71 1451.08,755.795 1518.17,759.069C2025.5,783.827 2500.94,780.294 2956.45,759.069C3051.54,754.639 3107.64,745.71 3107.64,729.255L3107.64,491.151Z" style="fill:rgb(47,51,52);stroke:rgb(17,23,23);stroke-width:7.64px;"/>
            </g>
            <g transform="matrix(0.499413,0,0,0.499413,1528.76,252.362)">
                <g transform="matrix(141.5,0,0,141.5,3492.93,662.991)">
                </g>
                <text x="3170.62px" y="662.991px" style="font-family:'ArialMT', 'Arial', sans-serif;font-size:141.5px;fill:white;">AltGr</text>
            </g>
            <g transform="matrix(0.175311,0,0,0.961474,3179.44,34.4067)">
                <path d="M3107.64,491.151C3107.64,474.696 3039.89,461.337 2956.45,461.337L1518.17,461.337C1434.73,461.337 1366.98,474.696 1366.98,491.151L1366.98,729.255C1366.98,745.71 1451.08,755.795 1518.17,759.069C2025.5,783.827 2500.94,780.294 2956.45,759.069C3051.54,754.639 3107.64,745.71 3107.64,729.255L3107.64,491.151Z" style="fill:rgb(47,51,52);stroke:rgb(17,23,23);stroke-width:7.64px;"/>
            </g>
            <g transform="matrix(0.175311,0,0,0.961474,3513.92,34.4067)">
                <path d="M3107.64,491.151C3107.64,474.696 3039.89,461.337 2956.45,461.337L1518.17,461.337C1434.73,461.337 1366.98,474.696 1366.98,491.151L1366.98,729.255C1366.98,745.71 1451.08,755.795 1518.17,759.069C2025.5,783.827 2500.94,780.294 2956.45,759.069C3051.54,754.639 3107.64,745.71 3107.64,729.255L3107.64,491.151Z" style="fill:rgb(47,51,52);stroke:rgb(17,23,23);stroke-width:7.64px;"/>
            </g>
            <g transform="matrix(1,0,0,1,-100.49,-5.7484)">
                <path d="M4478.11,507.939C4478.11,494.619 4467.29,483.804 4453.97,483.804L4221.15,483.804C4207.82,483.804 4197.01,494.619 4197.01,507.939L4197.01,644.296C4197.01,657.616 4207.82,668.431 4221.15,668.431L4453.97,668.431C4467.29,668.431 4478.11,657.616 4478.11,644.296L4478.11,507.939Z" style="fill:rgb(47,51,52);stroke:rgb(17,23,23);stroke-width:5.28px;"/>
            </g>
            <g transform="matrix(1,0,0,1,-101.342,208.007)">
                <path d="M4478.11,507.939C4478.11,494.619 4467.29,483.804 4453.97,483.804L4221.15,483.804C4207.82,483.804 4197.01,494.619 4197.01,507.939L4197.01,644.296C4197.01,657.616 4207.82,668.431 4221.15,668.431L4453.97,668.431C4467.29,668.431 4478.11,657.616 4478.11,644.296L4478.11,507.939Z" style="fill:rgb(47,51,52);stroke:rgb(17,23,23);stroke-width:5.28px;"/>
            </g>
            <g transform="matrix(1,0,0,1,205.558,-5.7484)">
                <path d="M4478.11,507.939C4478.11,494.619 4467.29,483.804 4453.97,483.804L4221.15,483.804C4207.82,483.804 4197.01,494.619 4197.01,507.939L4197.01,644.296C4197.01,657.616 4207.82,668.431 4221.15,668.431L4453.97,668.431C4467.29,668.431 4478.11,657.616 4478.11,644.296L4478.11,507.939Z" style="fill:rgb(47,51,52);stroke:rgb(17,23,23);stroke-width:5.28px;"/>
            </g>
            <g transform="matrix(1,0,0,1,204.707,208.007)">
                <path d="M4478.11,507.939C4478.11,494.619 4467.29,483.804 4453.97,483.804L4221.15,483.804C4207.82,483.804 4197.01,494.619 4197.01,507.939L4197.01,644.296C4197.01,657.616 4207.82,668.431 4221.15,668.431L4453.97,668.431C4467.29,668.431 4478.11,657.616 4478.11,644.296L4478.11,507.939Z" style="fill:rgb(47,51,52);stroke:rgb(17,23,23);stroke-width:5.28px;"/>
            </g>
            <g transform="matrix(0.217304,0,0,0.961474,-9.97162,34.4067)">
                <path d="M3107.64,491.151C3107.64,474.696 3039.89,461.337 2956.45,461.337L1518.17,461.337C1434.73,461.337 1366.98,474.696 1366.98,491.151L1366.98,729.255C1366.98,745.71 1451.08,755.795 1518.17,759.069C2025.5,783.827 2500.94,780.294 2956.45,759.069C3051.54,754.639 3107.64,745.71 3107.64,729.255L3107.64,491.151Z" style="fill:rgb(47,51,52);stroke:rgb(17,23,23);stroke-width:7.58px;"/>
            </g>
            <g transform="matrix(0.408312,0,0,0.961474,-601.018,-302.153)">
                <path d="M3107.64,491.151C3107.64,474.696 3103.29,461.891 3044.62,461.337L1464.29,461.337C1380.85,461.337 1366.98,474.696 1366.98,491.151L1366.98,729.255C1366.98,745.71 1422.37,758.918 1489.53,760.421C1941.71,770.541 2487.55,765.712 2993.99,758.007C3089.17,756.558 3107.64,745.71 3107.64,729.255L3107.64,491.151Z" style="fill:rgb(47,51,52);stroke:rgb(17,23,23);stroke-width:7.15px;"/>
            </g>
            <g transform="matrix(0.408312,0,0,0.961474,3537.47,-305.229)">
                <path d="M3107.64,491.151C3107.64,474.696 3103.29,461.891 3044.62,461.337L1464.29,461.337C1380.85,461.337 1366.98,474.696 1366.98,491.151L1366.98,729.255C1366.98,745.71 1422.37,758.918 1489.53,760.421C1941.71,770.541 2487.55,765.712 2993.99,758.007C3089.17,756.558 3107.64,745.71 3107.64,729.255L3107.64,491.151Z" style="fill:rgb(47,51,52);stroke:rgb(17,23,23);stroke-width:7.15px;"/>
            </g>
            <g transform="matrix(0.408312,0,0,0.961474,3689.75,-635.17)">
                <path d="M3107.64,491.151C3107.64,474.696 3103.29,461.891 3044.62,461.337L1464.29,461.337C1380.85,461.337 1366.98,474.696 1366.98,491.151L1366.98,729.255C1366.98,745.71 1422.37,758.918 1489.53,760.421C1941.71,770.541 2487.55,765.712 2993.99,758.007C3089.17,756.558 3107.64,745.71 3107.64,729.255L3107.64,491.151Z" style="fill:rgb(47,51,52);stroke:rgb(17,23,23);stroke-width:7.15px;"/>
            </g>
            <g transform="matrix(0.408312,0,0,0.961474,-778.678,-632.094)">
                <path d="M3107.64,491.151C3107.64,474.696 3103.29,461.891 3044.62,461.337L1464.29,461.337C1380.85,461.337 1366.98,474.696 1366.98,491.151L1366.98,729.255C1366.98,745.71 1422.37,758.918 1489.53,760.421C1941.71,770.541 2487.55,765.712 2993.99,758.007C3089.17,756.558 3107.64,745.71 3107.64,729.255L3107.64,491.151Z" style="fill:rgb(47,51,52);stroke:rgb(17,23,23);stroke-width:7.15px;"/>
            </g>
            <g transform="matrix(0.175311,0,0,0.961474,455.002,34.4067)">
                <path d="M3107.64,491.151C3107.64,474.696 3039.89,461.337 2956.45,461.337L1518.17,461.337C1434.73,461.337 1366.98,474.696 1366.98,491.151L1366.98,729.255C1366.98,745.71 1451.08,755.795 1518.17,759.069C2025.5,783.827 2500.94,780.294 2956.45,759.069C3051.54,754.639 3107.64,745.71 3107.64,729.255L3107.64,491.151Z" style="fill:rgb(47,51,52);stroke:rgb(17,23,23);stroke-width:7.64px;"/>
            </g>
            <g transform="matrix(0.175311,0,0,0.961474,-296.249,32.3763)">
                <path d="M3107.64,491.151C3107.64,474.696 3039.89,461.337 2956.45,461.337L1518.17,461.337C1434.73,461.337 1366.98,474.696 1366.98,491.151L1366.98,729.255C1366.98,745.71 1451.08,755.795 1518.17,759.069C2025.5,783.827 2500.94,780.294 2956.45,759.069C3051.54,754.639 3107.64,745.71 3107.64,729.255L3107.64,491.151Z" style="fill:rgb(47,51,52);stroke:rgb(17,23,23);stroke-width:7.64px;"/>
            </g>
            <g transform="matrix(0.175311,0,0,0.961474,794.982,34.4067)">
                <path d="M3107.64,491.151C3107.64,474.696 3039.89,461.337 2956.45,461.337L1518.17,461.337C1434.73,461.337 1366.98,474.696 1366.98,491.151L1366.98,729.255C1366.98,745.71 1451.08,755.795 1518.17,759.069C2025.5,783.827 2500.94,780.294 2956.45,759.069C3051.54,754.639 3107.64,745.71 3107.64,729.255L3107.64,491.151Z" style="fill:rgb(47,51,52);stroke:rgb(17,23,23);stroke-width:7.64px;"/>
            </g>
            <g transform="matrix(0.175311,0,0,0.961474,461.021,-302.153)">
                <path d="M3107.64,491.151C3107.64,474.696 3039.89,461.337 2956.45,461.337L1518.17,461.337C1434.73,461.337 1366.98,474.696 1366.98,491.151L1366.98,729.255C1366.98,745.71 1451.08,755.795 1518.17,759.069C2025.5,783.827 2500.94,780.294 2956.45,759.069C3051.54,754.639 3107.64,745.71 3107.64,729.255L3107.64,491.151Z" style="fill:rgb(47,51,52);stroke:rgb(17,23,23);stroke-width:7.64px;"/>
            </g>
            <g transform="matrix(0.175311,0,0,0.961474,800.119,-302.153)">
                <path d="M3107.64,491.151C3107.64,474.696 3039.89,461.337 2956.45,461.337L1518.17,461.337C1434.73,461.337 1366.98,474.696 1366.98,491.151L1366.98,729.255C1366.98,745.71 1451.08,755.795 1518.17,759.069C2025.5,783.827 2500.94,780.294 2956.45,759.069C3051.54,754.639 3107.64,745.71 3107.64,729.255L3107.64,491.151Z" style="fill:rgb(47,51,52);stroke:rgb(17,23,23);stroke-width:7.64px;"/>
            </g>
            <g transform="matrix(0.175311,0,0,0.961474,1139.22,-302.153)">
                <path d="M3107.64,491.151C3107.64,474.696 3039.89,461.337 2956.45,461.337L1518.17,461.337C1434.73,461.337 1366.98,474.696 1366.98,491.151L1366.98,729.255C1366.98,745.71 1451.08,755.795 1518.17,759.069C2025.5,783.827 2500.94,780.294 2956.45,759.069C3051.54,754.639 3107.64,745.71 3107.64,729.255L3107.64,491.151Z" style="fill:rgb(47,51,52);stroke:rgb(17,23,23);stroke-width:7.64px;"/>
            </g>
            <g transform="matrix(0.175311,0,0,0.961474,1478.31,-302.153)">
                <path d="M3107.64,491.151C3107.64,474.696 3039.89,461.337 2956.45,461.337L1518.17,461.337C1434.73,461.337 1366.98,474.696 1366.98,491.151L1366.98,729.255C1366.98,745.71 1451.08,755.795 1518.17,759.069C2025.5,783.827 2500.94,780.294 2956.45,759.069C3051.54,754.639 3107.64,745.71 3107.64,729.255L3107.64,491.151Z" style="fill:rgb(47,51,52);stroke:rgb(17,23,23);stroke-width:7.64px;"/>
            </g>
            <g transform="matrix(0.175311,0,0,0.961474,1817.41,-302.153)">
                <path d="M3107.64,491.151C3107.64,474.696 3039.89,461.337 2956.45,461.337L1518.17,461.337C1434.73,461.337 1366.98,474.696 1366.98,491.151L1366.98,729.255C1366.98,745.71 1451.08,755.795 1518.17,759.069C2025.5,783.827 2500.94,780.294 2956.45,759.069C3051.54,754.639 3107.64,745.71 3107.64,729.255L3107.64,491.151Z" style="fill:rgb(47,51,52);stroke:rgb(17,23,23);stroke-width:7.64px;"/>
            </g>
            <g transform="matrix(0.175311,0,0,0.961474,2156.51,-302.153)">
                <path d="M3107.64,491.151C3107.64,474.696 3039.89,461.337 2956.45,461.337L1518.17,461.337C1434.73,461.337 1366.98,474.696 1366.98,491.151L1366.98,729.255C1366.98,745.71 1451.08,755.795 1518.17,759.069C2025.5,783.827 2500.94,780.294 2956.45,759.069C3051.54,754.639 3107.64,745.71 3107.64,729.255L3107.64,491.151Z" style="fill:rgb(47,51,52);stroke:rgb(17,23,23);stroke-width:7.64px;"/>
            </g>
            <g transform="matrix(0.175311,0,0,0.961474,2495.61,-302.153)">
                <path d="M3107.64,491.151C3107.64,474.696 3039.89,461.337 2956.45,461.337L1518.17,461.337C1434.73,461.337 1366.98,474.696 1366.98,491.151L1366.98,729.255C1366.98,745.71 1451.08,755.795 1518.17,759.069C2025.5,783.827 2500.94,780.294 2956.45,759.069C3051.54,754.639 3107.64,745.71 3107.64,729.255L3107.64,491.151Z" style="fill:rgb(47,51,52);stroke:rgb(17,23,23);stroke-width:7.64px;"/>
            </g>
            <g transform="matrix(0.175311,0,0,0.961474,2834.71,-302.153)">
                <path d="M3107.64,491.151C3107.64,474.696 3039.89,461.337 2956.45,461.337L1518.17,461.337C1434.73,461.337 1366.98,474.696 1366.98,491.151L1366.98,729.255C1366.98,745.71 1451.08,755.795 1518.17,759.069C2025.5,783.827 2500.94,780.294 2956.45,759.069C3051.54,754.639 3107.64,745.71 3107.64,729.255L3107.64,491.151Z" style="fill:rgb(47,51,52);stroke:rgb(17,23,23);stroke-width:7.64px;"/>
            </g>
            <g transform="matrix(0.175311,0,0,0.961474,3173.8,-302.153)">
                <path d="M3107.64,491.151C3107.64,474.696 3039.89,461.337 2956.45,461.337L1518.17,461.337C1434.73,461.337 1366.98,474.696 1366.98,491.151L1366.98,729.255C1366.98,745.71 1451.08,755.795 1518.17,759.069C2025.5,783.827 2500.94,780.294 2956.45,759.069C3051.54,754.639 3107.64,745.71 3107.64,729.255L3107.64,491.151Z" style="fill:rgb(47,51,52);stroke:rgb(17,23,23);stroke-width:7.64px;"/>
            </g>
            <g transform="matrix(0.175311,0,0,0.961474,3512.9,-302.153)">
                <path d="M3107.64,491.151C3107.64,474.696 3039.89,461.337 2956.45,461.337L1518.17,461.337C1434.73,461.337 1366.98,474.696 1366.98,491.151L1366.98,729.255C1366.98,745.71 1451.08,755.795 1518.17,759.069C2025.5,783.827 2500.94,780.294 2956.45,759.069C3051.54,754.639 3107.64,745.71 3107.64,729.255L3107.64,491.151Z" style="fill:rgb(47,51,52);stroke:rgb(17,23,23);stroke-width:7.64px;"/>
            </g>
            <g transform="matrix(0.175311,0,0,0.961474,280.188,-641.877)">
                <path d="M3107.64,491.151C3107.64,474.696 3039.89,461.337 2956.45,461.337L1518.17,461.337C1434.73,461.337 1366.98,474.696 1366.98,491.151L1366.98,729.255C1366.98,745.71 1451.08,755.795 1518.17,759.069C2025.5,783.827 2500.94,780.294 2956.45,759.069C3051.54,754.639 3107.64,745.71 3107.64,729.255L3107.64,491.151Z" style="fill:rgb(47,51,52);stroke:rgb(17,23,23);stroke-width:7.64px;"/>
            </g>
            <g transform="matrix(0.175311,0,0,0.961474,619.286,-641.877)">
                <path d="M3107.64,491.151C3107.64,474.696 3039.89,461.337 2956.45,461.337L1518.17,461.337C1434.73,461.337 1366.98,474.696 1366.98,491.151L1366.98,729.255C1366.98,745.71 1451.08,755.795 1518.17,759.069C2025.5,783.827 2500.94,780.294 2956.45,759.069C3051.54,754.639 3107.64,745.71 3107.64,729.255L3107.64,491.151Z" style="fill:rgb(47,51,52);stroke:rgb(17,23,23);stroke-width:7.64px;"/>
            </g>
            <g transform="matrix(0.175311,0,0,0.961474,958.384,-641.877)">
                <path d="M3107.64,491.151C3107.64,474.696 3039.89,461.337 2956.45,461.337L1518.17,461.337C1434.73,461.337 1366.98,474.696 1366.98,491.151L1366.98,729.255C1366.98,745.71 1451.08,755.795 1518.17,759.069C2025.5,783.827 2500.94,780.294 2956.45,759.069C3051.54,754.639 3107.64,745.71 3107.64,729.255L3107.64,491.151Z" style="fill:rgb(47,51,52);stroke:rgb(17,23,23);stroke-width:7.64px;"/>
            </g>
            <g transform="matrix(0.175311,0,0,0.961474,1297.48,-641.877)">
                <path d="M3107.64,491.151C3107.64,474.696 3039.89,461.337 2956.45,461.337L1518.17,461.337C1434.73,461.337 1366.98,474.696 1366.98,491.151L1366.98,729.255C1366.98,745.71 1451.08,755.795 1518.17,759.069C2025.5,783.827 2500.94,780.294 2956.45,759.069C3051.54,754.639 3107.64,745.71 3107.64,729.255L3107.64,491.151Z" style="fill:rgb(47,51,52);stroke:rgb(17,23,23);stroke-width:7.64px;"/>
            </g>
            <g transform="matrix(0.175311,0,0,0.961474,1636.58,-641.877)">
                <path d="M3107.64,491.151C3107.64,474.696 3039.89,461.337 2956.45,461.337L1518.17,461.337C1434.73,461.337 1366.98,474.696 1366.98,491.151L1366.98,729.255C1366.98,745.71 1451.08,755.795 1518.17,759.069C2025.5,783.827 2500.94,780.294 2956.45,759.069C3051.54,754.639 3107.64,745.71 3107.64,729.255L3107.64,491.151Z" style="fill:rgb(47,51,52);stroke:rgb(17,23,23);stroke-width:7.64px;"/>
            </g>
            <g transform="matrix(0.175311,0,0,0.961474,1975.68,-641.877)">
                <path d="M3107.64,491.151C3107.64,474.696 3039.89,461.337 2956.45,461.337L1518.17,461.337C1434.73,461.337 1366.98,474.696 1366.98,491.151L1366.98,729.255C1366.98,745.71 1451.08,755.795 1518.17,759.069C2025.5,783.827 2500.94,780.294 2956.45,759.069C3051.54,754.639 3107.64,745.71 3107.64,729.255L3107.64,491.151Z" style="fill:rgb(47,51,52);stroke:rgb(17,23,23);stroke-width:7.64px;"/>
            </g>
            <g transform="matrix(0.175311,0,0,0.961474,2314.78,-641.877)">
                <path d="M3107.64,491.151C3107.64,474.696 3039.89,461.337 2956.45,461.337L1518.17,461.337C1434.73,461.337 1366.98,474.696 1366.98,491.151L1366.98,729.255C1366.98,745.71 1451.08,755.795 1518.17,759.069C2025.5,783.827 2500.94,780.294 2956.45,759.069C3051.54,754.639 3107.64,745.71 3107.64,729.255L3107.64,491.151Z" style="fill:rgb(47,51,52);stroke:rgb(17,23,23);stroke-width:7.64px;"/>
            </g>
            <g transform="matrix(0.175311,0,0,0.961474,2653.87,-641.877)">
                <path d="M3107.64,491.151C3107.64,474.696 3039.89,461.337 2956.45,461.337L1518.17,461.337C1434.73,461.337 1366.98,474.696 1366.98,491.151L1366.98,729.255C1366.98,745.71 1451.08,755.795 1518.17,759.069C2025.5,783.827 2500.94,780.294 2956.45,759.069C3051.54,754.639 3107.64,745.71 3107.64,729.255L3107.64,491.151Z" style="fill:rgb(47,51,52);stroke:rgb(17,23,23);stroke-width:7.64px;"/>
            </g>
            <g transform="matrix(0.175311,0,0,0.961474,2992.97,-641.877)">
                <path d="M3107.64,491.151C3107.64,474.696 3039.89,461.337 2956.45,461.337L1518.17,461.337C1434.73,461.337 1366.98,474.696 1366.98,491.151L1366.98,729.255C1366.98,745.71 1451.08,755.795 1518.17,759.069C2025.5,783.827 2500.94,780.294 2956.45,759.069C3051.54,754.639 3107.64,745.71 3107.64,729.255L3107.64,491.151Z" style="fill:rgb(47,51,52);stroke:rgb(17,23,23);stroke-width:7.64px;"/>
            </g>
            <g transform="matrix(0.175311,0,0,0.961474,3332.07,-641.877)">
                <path d="M3107.64,491.151C3107.64,474.696 3039.89,461.337 2956.45,461.337L1518.17,461.337C1434.73,461.337 1366.98,474.696 1366.98,491.151L1366.98,729.255C1366.98,745.71 1451.08,755.795 1518.17,759.069C2025.5,783.827 2500.94,780.294 2956.45,759.069C3051.54,754.639 3107.64,745.71 3107.64,729.255L3107.64,491.151Z" style="fill:rgb(47,51,52);stroke:rgb(17,23,23);stroke-width:7.64px;"/>
            </g>
            <g transform="matrix(0.175311,0,0,0.961474,3671.17,-641.877)">
                <path d="M3107.64,491.151C3107.64,474.696 3039.89,461.337 2956.45,461.337L1518.17,461.337C1434.73,461.337 1366.98,474.696 1366.98,491.151L1366.98,729.255C1366.98,745.71 1451.08,755.795 1518.17,759.069C2025.5,783.827 2500.94,780.294 2956.45,759.069C3051.54,754.639 3107.64,745.71 3107.64,729.255L3107.64,491.151Z" style="fill:rgb(47,51,52);stroke:rgb(17,23,23);stroke-width:7.64px;"/>
            </g>
            <g transform="matrix(1,0,0,1,16.2431,-35.6928)">
                <g transform="matrix(70,0,0,70,445.552,634.675)">
                </g>
                <text x="336.69px" y="634.675px" style="font-family:'ArialMT', 'Arial', sans-serif;font-size:70px;fill:white;">Ctrl</text>
            </g>
            <g transform="matrix(1.33748,0,0,1.33748,302.977,-588.293)">
                <g transform="matrix(70,0,0,70,379.449,634.675)">
                </g>
                <text x="336.69px" y="634.675px" style="font-family:'ArialMT', 'Arial', sans-serif;font-size:70px;fill:white;">Z</text>
            </g>
            <g transform="matrix(1.33748,0,0,1.33748,623.781,-588.293)">
                <g transform="matrix(70,0,0,70,383.379,634.675)">
                </g>
                <text x="336.69px" y="634.675px" style="font-family:'ArialMT', 'Arial', sans-serif;font-size:70px;fill:white;">X</text>
            </g>
            <g transform="matrix(1.33748,0,0,1.33748,962.859,-587.15)">
                <g transform="matrix(70,0,0,70,387.242,634.675)">
                </g>
                <text x="336.69px" y="634.675px" style="font-family:'ArialMT', 'Arial', sans-serif;font-size:70px;fill:white;">C</text>
            </g>
            <g transform="matrix(1.33748,0,0,1.33748,1295.84,-588.293)">
                <g transform="matrix(70,0,0,70,383.379,634.675)">
                </g>
                <text x="336.69px" y="634.675px" style="font-family:'ArialMT', 'Arial', sans-serif;font-size:70px;fill:white;">V</text>
            </g>
            <g transform="matrix(1.33748,0,0,1.33748,1636.95,-588.293)">
                <g transform="matrix(70,0,0,70,383.379,634.675)">
                </g>
                <text x="336.69px" y="634.675px" style="font-family:'ArialMT', 'Arial', sans-serif;font-size:70px;fill:white;">B</text>
            </g>
            <g transform="matrix(1.33748,0,0,1.33748,1969.94,-588.293)">
                <g transform="matrix(70,0,0,70,387.242,634.675)">
                </g>
                <text x="336.69px" y="634.675px" style="font-family:'ArialMT', 'Arial', sans-serif;font-size:70px;fill:white;">N</text>
            </g>
            <g transform="matrix(1.33748,0,0,1.33748,2311.05,-588.293)">
                <g transform="matrix(70,0,0,70,395,634.675)">
                </g>
                <text x="336.69px" y="634.675px" style="font-family:'ArialMT', 'Arial', sans-serif;font-size:70px;fill:white;">M</text>
            </g>
            <g transform="matrix(1.33748,0,0,1.33748,2658.25,-606.762)">
                <g transform="matrix(70,0,0,70,356.138,634.675)">
                </g>
                <text x="336.69px" y="634.675px" style="font-family:'ArialMT', 'Arial', sans-serif;font-size:70px;fill:white;">;</text>
            </g>
            <g transform="matrix(1.33748,0,0,1.33748,2981.76,-606.762)">
                <g transform="matrix(70,0,0,70,356.138,634.675)">
                </g>
                <text x="336.69px" y="634.675px" style="font-family:'ArialMT', 'Arial', sans-serif;font-size:70px;fill:white;">:</text>
            </g>
            <g transform="matrix(1.33748,0,0,1.33748,3336.41,-602.922)">
                <g transform="matrix(70,0,0,70,360,634.675)">
                </g>
                <text x="336.69px" y="634.675px" style="font-family:'ArialMT', 'Arial', sans-serif;font-size:70px;fill:white;">-</text>
            </g>
            <g transform="matrix(1,0,0,1,-356.312,-390.159)">
                <g transform="matrix(70,0,0,70,476.758,634.675)">
                </g>
                <text x="336.69px" y="634.675px" style="font-family:'ArialMT', 'Arial', sans-serif;font-size:70px;fill:white;">Shift</text>
            </g>
            <g transform="matrix(1,0,0,1,3795.86,-390.159)">
                <g transform="matrix(70,0,0,70,476.758,634.675)">
                </g>
                <text x="336.69px" y="634.675px" style="font-family:'ArialMT', 'Arial', sans-serif;font-size:70px;fill:white;">Shift</text>
            </g>
            <g transform="matrix(1,0,0,1,3791.07,-71.0875)">
                <g transform="matrix(70,0,0,70,511.792,634.675)">
                </g>
                <text x="336.69px" y="634.675px" style="font-family:'ArialMT', 'Arial', sans-serif;font-size:70px;fill:white;">PgUp</text>
            </g>
            <g transform="matrix(1,0,0,1,4186.11,-74.9858)">
                <g transform="matrix(70,0,0,70,371.69,634.675)">
                </g>
                <text x="336.69px" y="634.675px" style="font-family:'ArialMT', 'Arial', sans-serif;font-size:70px;fill:white;">↑</text>
            </g>
            <g transform="matrix(-1,1.22465e-16,-1.22465e-16,-1,4895.8,1404.69)">
                <g transform="matrix(70,0,0,70,371.69,634.675)">
                </g>
                <text x="336.69px" y="634.675px" style="font-family:'ArialMT', 'Arial', sans-serif;font-size:70px;fill:white;">↑</text>
            </g>
            <g transform="matrix(6.12323e-17,-1,1,6.12323e-17,3613.76,1139.78)">
                <g transform="matrix(70,0,0,70,371.69,634.675)">
                </g>
                <text x="336.69px" y="634.675px" style="font-family:'ArialMT', 'Arial', sans-serif;font-size:70px;fill:white;">↑</text>
            </g>
            <g transform="matrix(1,0,0,1,726.885,-36.5473)">
                <g transform="matrix(70,0,0,70,418.379,634.675)">
                </g>
                <text x="336.69px" y="634.675px" style="font-family:'ArialMT', 'Arial', sans-serif;font-size:70px;fill:white;">Alt</text>
            </g>
            <g transform="matrix(1,0,0,1,-342.078,-36.5473)">
                <g transform="matrix(70,0,0,70,418.379,634.675)">
                </g>
                <text x="336.69px" y="634.675px" style="font-family:'ArialMT', 'Arial', sans-serif;font-size:70px;fill:white;">Fn</text>
            </g>
            <g transform="matrix(0.589191,0,0,0.572022,353.109,210.776)">
                <path d="M911.297,558.159L781.29,587.54L782.567,666.723L912.149,699.936L911.297,558.159Z" style="fill:white;"/>
            </g>
            <g transform="matrix(0.499413,0,0,0.499413,1861.42,249.763)">
                <g transform="matrix(141.5,0,0,141.5,3516.56,662.991)">
                </g>
                <text x="3170.62px" y="662.991px" style="font-family:'ArialMT', 'Arial', sans-serif;font-size:141.5px;fill:white;">PrtSc</text>
            </g>
            <g transform="matrix(0.499413,0,0,0.499413,2205.77,247.164)">
                <g transform="matrix(141.5,0,0,141.5,3390.68,662.991)">
                </g>
                <text x="3170.62px" y="662.991px" style="font-family:'ArialMT', 'Arial', sans-serif;font-size:141.5px;fill:white;">Ctrl</text>
            </g>
        </g>
        <g id="top-ArrowLeft" transform="matrix(1,0,0,1,-13.9388,-1.34892)">
            <path d="M452.036,345.306L338.942,345.306L338.942,337.27L304.854,372.654L338.942,409.699L338.942,402.285L452.036,402.285L452.036,345.306Z" style="fill:rgb(255,0,0);"/>
        </g>
        <g id="top-ArrowRight" transform="matrix(-1,-1.22465e-16,1.22465e-16,-1,1010.94,746.069)">
            <path d="M452.036,345.306L338.942,345.306L338.942,337.27L304.854,372.654L338.942,409.699L338.942,402.285L452.036,402.285L452.036,345.306Z" style="fill:rgb(255,0,0);"/>
        </g>
        <g id="top-ArrowUp" transform="matrix(-1.83697e-16,1,-1,-1.83697e-16,870.634,-135.356)">
            <path d="M452.036,345.306L338.942,345.306L338.942,337.27L304.854,372.654L338.942,409.699L338.942,402.285L452.036,402.285L452.036,345.306Z" style="fill:rgb(255,0,0);"/>
        </g>
        <g id="top-ArrowDown" transform="matrix(3.06162e-16,-1,1,3.06162e-16,121.867,630.976)">
            <path d="M452.036,345.306L338.942,345.306L338.942,337.27L304.854,372.654L338.942,409.699L338.942,402.285L452.036,402.285L452.036,345.306Z" style="fill:rgb(255,0,0);"/>
        </g>
        <g id="top-Hand">
            <g transform="matrix(0.221453,0,0,0.221453,-42.2662,-2.24819)">
                <g transform="matrix(1,0,0,1,4.43571,293.983)">
                    <path d="M2644.55,1708.58C2626.31,1608.53 2638.23,1502.38 2617.63,1404.67C2564.47,1152.61 2278.85,1204.15 2250.22,1433C2239.3,1520.29 2242.48,1661.49 2242.25,1775.78C2241.92,1945.69 2241.84,2048.38 2251.36,2169.74C2260.16,2281.94 2288.77,2391.89 2299.36,2503.93C2320.18,2724.38 2415.3,3190.14 2419.3,3159.18L2272.9,3169.43L2240.57,3069.99L2104.49,3012.98L2240.57,3069.99L2337.93,2773.48L2281.79,2378.25C2193.1,2332.15 2155.55,2345.66 2112.85,2382.41C2060.26,2427.65 2022.86,2579.06 1966.25,2649.74C1914.42,2714.46 1822.4,2745.39 1773.15,2806.54C1724.3,2867.2 1691.51,2948.51 1670.78,3016.6C1651.38,3080.29 1641.38,3148.95 1648.75,3215.11C1665.3,3363.6 1770.05,3907.51 1770.05,3907.51L4138.86,3874.44C4138.86,3874.44 4166.56,3316.74 4126.87,3212.25C4082.15,3094.5 3945.86,2939.22 3854.28,2841.01C3730.74,2708.52 3531.2,2630.29 3547.77,2652.1C3618.76,2794.16 3695.09,2932.89 3780.62,3065.87C3773.91,3077.61 3617.43,2776.77 3540.51,2641.49C3473.54,2523.73 3361.3,2416.62 3272.09,2336.32C3102.8,2183.96 2880.3,2366.83 2866.27,2469.51C2923.31,2683.46 2983.02,2846.19 3047.16,2923.52C2970.17,2871.4 2864.24,2466.38 2792.6,2199.5C2776.49,2139.47 2727.71,2024.7 2727.71,2024.7C2736.32,2033.92 2679.58,1900.86 2644.55,1708.58Z" style="fill:rgb(192,140,113);stroke:rgb(151,107,94);stroke-width:5.28px;"/>
                </g>
                <path d="M1681.98,3374.62C1771.31,3339.19 1870.53,3320.02 1984.7,3325.39" style="fill:none;stroke:rgb(151,107,94);stroke-opacity:0.44;stroke-width:6.43px;"/>
                <path d="M1687.3,3278.82L1828.35,3264.18" style="fill:none;stroke:rgb(151,107,94);stroke-opacity:0.44;stroke-width:6.43px;"/>
                <path d="M1762.48,3147.08C1822.14,3149.77 1888.23,3166.13 1962.08,3198.98" style="fill:none;stroke:rgb(151,107,94);stroke-opacity:0.44;stroke-width:6.43px;"/>
                <path d="M2331,2499.51C2337.92,2498.97 2404.19,2427.92 2442.24,2405.83C2477.81,2385.18 2559.34,2366.97 2559.34,2366.97" style="fill:none;stroke:rgb(151,107,94);stroke-opacity:0.44;stroke-width:6.43px;"/>
                <path d="M2382.1,2687.39L2605.65,2622.46L2695.6,2582.54" style="fill:none;stroke:rgb(151,107,94);stroke-opacity:0.44;stroke-width:6.43px;"/>
                <path d="M2381.45,2587.11C2381.45,2587.11 2526.03,2513.47 2580.27,2496.14C2606.59,2487.74 2662.13,2483.15 2662.13,2483.15" style="fill:none;stroke:rgb(151,107,94);stroke-opacity:0.44;stroke-width:6.43px;"/>
                <g transform="matrix(1,0,0,1,3.05219,-2.83417)">
                    <path d="M2540.51,1681.98C2485.03,1545.99 2330.51,1584.59 2317.21,1702.25C2317.21,1702.25 2330.64,1779.47 2361.68,1790.42C2394.58,1802.02 2484.76,1789.96 2514.57,1771.89C2541.24,1755.71 2540.51,1681.98 2540.51,1681.98Z" style="fill:rgb(195,125,88);"/>
                </g>
                <g transform="matrix(1,0,0,1,-360.214,1100.27)">
                    <path d="M2546.23,1739.21C2527.28,1619.64 2490.58,1535.7 2432.23,1645.76C2397.72,1710.82 2365.34,1804.64 2319.58,1866.65C2319.58,1866.65 2404.1,1871.44 2433.9,1853.37C2460.57,1837.19 2546.23,1739.21 2546.23,1739.21Z" style="fill:rgb(195,125,88);"/>
                </g>
                <g transform="matrix(1,0,0,1,-7.98386,-3.72582)">
                    <path d="M2365.44,1987.48C2448.7,1979.78 2521.88,1979.21 2581.01,1988.54" style="fill:none;stroke:rgb(151,107,94);stroke-opacity:0.44;stroke-width:6.43px;"/>
                </g>
            </g>
        </g>
    </g>
    <defs>
        <linearGradient id="topLaptop" x1="0" y1="0" x2="1" y2="0" gradientUnits="userSpaceOnUse" gradientTransform="matrix(4718.16,0,0,2700.44,-34.8385,1291.05)"><stop offset="0" style="stop-color:rgb(26,27,31);stop-opacity:1"/><stop offset="1" style="stop-color:rgb(82,91,93);stop-opacity:1"/></linearGradient>
    </defs>
    <g id="side">
        <g id="side-Laptop" transform="matrix(0.221453,0,0,0.221453,0,0)">
        <g transform="matrix(1,0,0,1,-1.40757,3.11033)">
            <path d="M3051.89,1637.64l-2141.55,82.315l-929.22,288.894l-6.119,1481.58l3928.84,-16.404l-851.952,-1836.38Z" style="fill:rgb(45,44,39);stroke:rgb(24,16,13);stroke-width:8.97px;"/>
        </g>
        <path d="M1018.77,1731.42l-1043.03,299.356l-53.223,739.936l20.116,186.229l2089.49,-1265.62l-1013.36,40.101Z" style="fill:rgb(0,1,0);"/>
        <g transform="matrix(1,0,0,1,358.362,-402.159)">
            <g transform="matrix(1,0,0,1,452.42,103.125)">
                <path d="M242.855,2370.18l-205.552,3.934l-154.227,63.273l196.423,0.732c111.011,-34.243 114.797,-7.58 163.356,-67.939Z" style="fill:rgb(30,29,24);stroke:rgb(13,18,21);stroke-width:8.97px;"/>
            </g>
            <g transform="matrix(1,0,0,1,16.896,-46.0553)">
                <path d="M515.409,2586.39l-199.21,2.725l13.626,23.709l224.282,8.993l-38.698,-35.427Z" style="fill:rgb(0,0,2);stroke:rgb(13,18,21);stroke-width:8.97px;"/>
            </g>
            <path d="M696.633,2473.3c-49,29.428 -55.696,37.362 -164.6,67.857l39.515,33.52c104.567,-46.566 79.073,-31.745 153.427,-74.67l-28.342,-26.707Z" style="fill:rgb(42,44,43);stroke:rgb(13,18,21);stroke-width:8.97px;"/>
        </g>
        <g transform="matrix(1,0,0,1,3.99182,-0.665345)">
            <path d="M1769.23,2092.26l-262.138,1.996l-475.042,308.711l374.578,-3.327l362.602,-307.38Z" style="fill:rgb(79,74,69);stroke:rgb(13,18,21);stroke-width:8.97px;"/>
        </g>
        <g transform="matrix(1,0,0,1,371.251,-308.045)">
            <path d="M1632.17,2201.37l-217.561,10.645l-279.142,192.541l271.158,-4.92l225.545,-198.266Z" style="fill:rgb(79,74,69);stroke:rgb(13,18,21);stroke-width:8.97px;"/>
        </g>
        <g transform="matrix(1,0,0,1,-379.687,871.045)">
            <path d="M3376.43,996.604l-992.87,26.396l-594.909,507.602l1717.73,-22.335l-129.946,-511.663Z" style="fill:rgb(127,123,124);stroke:rgb(13,18,21);stroke-width:8.97px;"/>
        </g>
        <g transform="matrix(1,0,0,1,-5.94846e-05,-5.19783)">
            <path d="M93.092,-46.973l-314.47,-16.192l114.345,2108.46l1018.79,-320.397l-818.661,-1771.87Z" style="fill:rgb(35,34,32);stroke:rgb(13,18,21);stroke-width:3.44px;"/>
        </g>
        <path d="M54.108,-10.106l-144.24,-33.786l5.198,1710.09l856.345,-126.048l-717.303,-1550.26Z" style="fill:rgb(26,111,243);stroke:rgb(13,18,21);stroke-width:3.44px;"/>
        <g transform="matrix(1,0,0,1,146.523,-298.901)">
            <path d="M714.074,2458.86c-57.176,45.234 -73.137,51.805 -182.041,82.3l32.429,36.79c120.135,-48.397 133.295,-47.358 186.129,-87.751l-36.517,-31.339Z" style="fill:rgb(42,44,43);stroke:rgb(13,18,21);stroke-width:8.97px;"/>
            <g transform="matrix(1,0,0,1,452.42,103.125)">
                <path d="M263.567,2354.37l-216.998,-0.699l-206.551,86.982l239.481,-2.538c111.011,-34.243 135.509,-23.386 184.068,-83.745Z" style="fill:rgb(30,29,24);stroke:rgb(13,18,21);stroke-width:8.97px;"/>
            </g>
            <g transform="matrix(1,0,0,1,16.896,-46.0553)">
                <path d="M515.409,2586.39l-239.814,2.998l6.267,40.059l266.794,-6.267l-33.247,-36.79Z" style="fill:rgb(0,0,2);stroke:rgb(13,18,21);stroke-width:8.97px;"/>
            </g>
        </g>
        <g transform="matrix(1,0,0,1,-133.896,-173.816)">
            <path d="M760.674,2439.51c-57.175,45.234 -119.737,71.154 -228.641,101.649l23.981,51.233c120.135,-48.397 191.341,-75.699 244.175,-116.092l-39.515,-36.79Z" style="fill:rgb(42,44,43);stroke:rgb(13,18,21);stroke-width:8.97px;"/>
            <g transform="matrix(1,0,0,1,452.42,103.125)">
                <path d="M308.259,2335.57l-252.97,2.572l-314.467,98.7l338.677,1.277c111.011,-34.243 180.201,-42.189 228.76,-102.549Z" style="fill:rgb(30,29,24);stroke:rgb(13,18,21);stroke-width:8.97px;"/>
            </g>
            <g transform="matrix(1,0,0,1,16.896,-46.0553)">
                <path d="M515.409,2586.39l-335.195,-1.635l10.9,41.695l349.639,13.081l-25.344,-53.141Z" style="fill:rgb(0,0,2);stroke:rgb(13,18,21);stroke-width:8.97px;"/>
            </g>
        </g>
        <g transform="matrix(1,0,0,1,-445.268,-3.49291)">
            <path d="M776.48,2400.81c-49.272,64.582 -139.903,106.309 -244.447,140.346l23.981,51.233c127.083,-52.579 220.47,-104.026 261.071,-153.699l-40.605,-37.88Z" style="fill:rgb(42,44,43);stroke:rgb(13,18,21);stroke-width:8.97px;"/>
            <g transform="matrix(0.489043,-0.240609,0.483925,-0.00376711,-1265.66,2676.53)">
                <g transform="matrix(195.583,0,0,195.583,597.145,2694.65)">
                    <path d="M-0.001,-0l0.274,-0.716l0.102,0l0.293,0.716l-0.107,-0l-0.084,-0.217l-0.299,0l-0.079,0.217l-0.1,-0Zm0.206,-0.294l0.243,0l-0.075,-0.198c-0.023,-0.06 -0.04,-0.11 -0.051,-0.149c-0.009,0.046 -0.022,0.092 -0.038,0.137l-0.079,0.21Z" style="fill:white;fill-rule:nonzero;"/>
                </g>
                <g transform="matrix(195.583,0,0,195.583,727.598,2694.65)">
                    <rect x="0.064" y="-0.716" width="0.088" height="0.716" style="fill:white;fill-rule:nonzero;"/>
                </g>
                <g transform="matrix(195.583,0,0,195.583,771.05,2694.65)">
                    <path d="M0.258,-0.079l0.013,0.078c-0.025,0.005 -0.047,0.008 -0.067,0.008c-0.032,-0 -0.057,-0.005 -0.074,-0.015c-0.018,-0.01 -0.03,-0.024 -0.037,-0.04c-0.007,-0.017 -0.011,-0.051 -0.011,-0.104l0,-0.298l-0.064,-0l-0,-0.069l0.064,0l0,-0.128l0.087,-0.053l0,0.181l0.089,0l-0,0.069l-0.089,-0l0,0.303c0,0.025 0.002,0.041 0.005,0.048c0.003,0.008 0.008,0.013 0.015,0.017c0.007,0.005 0.017,0.007 0.03,0.007c0.01,-0 0.023,-0.001 0.039,-0.004Z" style="fill:white;fill-rule:nonzero;"/>
                </g>
            </g>
            <g transform="matrix(1,0,0,1,452.42,103.125)">
                <path d="M324.338,2298.51l-287.58,-7.239l-295.936,145.573l338.677,1.277c111.011,-34.243 196.28,-79.252 244.839,-139.611Z" style="fill:rgb(30,29,24);stroke:rgb(13,18,21);stroke-width:8.97px;"/>
            </g>
            <g transform="matrix(1,0,0,1,16.896,-46.0553)">
                <path d="M515.409,2586.39l-335.195,-1.635l10.9,41.695l349.639,13.081l-25.344,-53.141Z" style="fill:rgb(0,0,2);stroke:rgb(13,18,21);stroke-width:8.97px;"/>
            </g>
        </g>
        <path d="M131.404,1990.04l-130.467,38.834l104.578,2.725c55.457,-9.091 102.604,-22.93 138.984,-42.922l-113.095,1.363Z" style="fill:rgb(30,29,24);stroke:rgb(13,18,21);stroke-width:2.98px;"/>
        <g transform="matrix(1,0,0,1,-204.517,63.8465)">
            <path d="M131.404,1990.04l-130.467,38.834l104.578,2.725c55.457,-9.091 102.604,-22.93 138.984,-42.922l-113.095,1.363Z" style="fill:rgb(30,29,24);stroke:rgb(13,18,21);stroke-width:2.98px;"/>
        </g>
        <g transform="matrix(1,0,0,1,150.565,-48.3717)">
            <path d="M131.404,1990.04l-130.467,38.834l104.578,2.725c55.457,-9.091 102.604,-22.93 138.984,-42.922l-113.095,1.363Z" style="fill:rgb(30,29,24);stroke:rgb(13,18,21);stroke-width:2.98px;"/>
        </g>
        <g transform="matrix(0.938462,0,0,0.809524,315.155,292.271)">
            <path d="M123.782,1988.35l-122.845,40.517l112.384,1.647c55.456,-9.091 85.36,-21.431 121.74,-41.423l-111.279,-0.741Z" style="fill:rgb(30,29,24);stroke:rgb(13,18,21);stroke-width:3.4px;"/>
        </g>
        <g transform="matrix(0.938462,0,0,0.809524,453.637,252.157)">
            <path d="M108.914,1992.23l-107.977,36.639l105.322,-1.8c55.456,-9.091 74.024,-16.692 110.403,-36.683l-107.748,1.844Z" style="fill:rgb(30,29,24);stroke:rgb(13,18,21);stroke-width:3.4px;"/>
        </g>
        <g transform="matrix(0.938462,0,0,0.809524,588.63,211.519)">
            <path d="M112.631,1994.13l-111.694,34.743l105.322,-1.8c55.456,-9.091 74.024,-16.692 110.403,-36.683l-104.031,3.74Z" style="fill:rgb(30,29,24);stroke:rgb(13,18,21);stroke-width:3.4px;"/>
        </g>
        <g transform="matrix(0.938462,0,0,0.809524,705.137,177.614)">
            <path d="M106.089,1998.61l-94.447,30.606l94.617,-1.282c55.456,-9.091 54.844,-11.349 91.224,-31.34l-91.394,2.016Z" style="fill:rgb(30,29,24);stroke:rgb(13,18,21);stroke-width:3.4px;"/>
        </g>
        <g transform="matrix(0.938462,0,0,0.809524,800.295,148.034)">
            <path d="M103.836,2005.32l-87.341,24.671l91.591,-0.501c53.038,-10.765 44.132,-9.098 83.201,-26.95l-87.451,2.78Z" style="fill:rgb(30,29,24);stroke:rgb(13,18,21);stroke-width:3.4px;"/>
        </g>
        <g transform="matrix(0.938462,0,0,0.809524,845.974,166.72)">
            <path d="M102.066,2003.52l-101.058,37.753l139.601,-2.81c54.304,-12.139 72.293,-19.181 98.909,-39.261l-137.452,4.318Z" style="fill:rgb(30,29,24);stroke:rgb(13,18,21);stroke-width:3.4px;"/>
        </g>
        <g transform="matrix(0.938462,0,0,0.809524,887.986,123.209)">
            <path d="M148.178,1990.64l-131.017,41.107l90.925,-2.266c53.038,-10.765 72.583,-21.232 111.652,-39.084l-71.56,0.243Z" style="fill:rgb(30,29,24);stroke:rgb(13,18,21);stroke-width:3.4px;"/>
        </g>
        <g transform="matrix(0.938462,0,0,0.809524,950.937,140.105)">
            <path d="M191.155,1965.4l-173.994,66.355l138.258,-4.286c78.063,-16.567 154.653,-58.641 176.117,-72.411l-140.381,10.342Z" style="fill:rgb(30,29,24);stroke:rgb(13,18,21);stroke-width:3.4px;"/>
        </g>
        <g transform="matrix(41.2222,0,0,1,-44118.2,0)">
            <path d="M1100.86,1723.17c-0.789,17.979 -1.951,37.087 -4.018,58.937l0.165,12.613l4.23,-57.932l-0.377,-13.618Z" style="fill:rgb(42,44,43);stroke:rgb(13,18,21);stroke-width:0.1px;"/>
        </g>
        <g transform="matrix(41.2222,0,0,1,-44235.9,33.8438)">
            <path d="M1099.06,1751.62c-0.488,15.567 -1.134,23.305 -2.215,30.492l0.195,20.088l2.563,-34.47l-0.543,-16.11Z" style="fill:rgb(42,44,43);stroke:rgb(13,18,21);stroke-width:0.1px;"/>
        </g>
        <g transform="matrix(0.938462,0,0,0.809524,721.614,206.345)">
            <path d="M102.066,2003.52l-111.027,39.066l150.22,0.718c54.303,-12.139 86.212,-24.345 112.828,-44.425l-152.021,4.641Z" style="fill:rgb(30,29,24);stroke:rgb(13,18,21);stroke-width:3.4px;"/>
        </g>
        <g transform="matrix(41.2222,0,0,1,-44360.3,73.4683)">
            <path d="M1099.41,1751.79c-0.488,15.566 -1.491,28.007 -2.572,35.194l0.315,20.349l2.576,-39.085l-0.319,-16.458Z" style="fill:rgb(42,44,43);stroke:rgb(13,18,21);stroke-width:0.1px;"/>
        </g>
        <g transform="matrix(0.938462,0,0,0.809524,577.459,252.32)">
            <path d="M108.071,1997.66l-117.032,44.928l150.22,0.718c54.303,-12.139 100.751,-31.307 127.367,-51.387l-160.555,5.741Z" style="fill:rgb(30,29,24);stroke:rgb(13,18,21);stroke-width:3.4px;"/>
        </g>
        <g transform="matrix(41.2222,0,0,1,-44504.5,119.444)">
            <path d="M1099.73,1745.39c-0.488,15.566 -1.812,34.414 -2.893,41.601l0.315,20.349l3.048,-40.889l-0.47,-21.061Z" style="fill:rgb(42,44,43);stroke:rgb(13,18,21);stroke-width:0.1px;"/>
        </g>
        <g transform="matrix(0.938462,0,0,0.809524,403.992,308.267)">
            <path d="M123.592,1989.07l-132.553,53.516l161.155,1.536c54.303,-12.139 111.686,-33.76 138.303,-53.84l-166.905,-1.212Z" style="fill:rgb(30,29,24);stroke:rgb(13,18,21);stroke-width:3.4px;"/>
        </g>
        <g transform="matrix(41.2222,0,0,1,-44677.9,175.39)">
            <path d="M1100.23,1744.72c-0.488,15.567 -2.085,35.408 -3.167,42.595l0.493,22.997l3.264,-43.537l-0.59,-22.055Z" style="fill:rgb(42,44,43);stroke:rgb(13,18,21);stroke-width:0.1px;"/>
        </g>
        <g transform="matrix(0.938462,0,0,0.809524,208.47,367.234)">
            <path d="M146.71,1984.88l-169.397,61.89l182.466,0.49c54.304,-12.139 128.664,-46.533 155.281,-66.613l-168.35,4.233Z" style="fill:rgb(30,29,24);stroke:rgb(13,18,21);stroke-width:3.4px;"/>
        </g>
        <g transform="matrix(41.2222,0,0,1,-44873.4,234.357)">
            <path d="M1100.78,1736.76c-0.488,15.566 -2.463,46.255 -3.545,53.442l0.464,24.693l3.733,-55.572l-0.652,-22.563Z" style="fill:rgb(42,44,43);stroke:rgb(13,18,21);stroke-width:0.1px;"/>
        </g>
        <g transform="matrix(0.938462,0,0,0.809524,-0.00798663,435.879)">
            <path d="M163.725,1977.81l-186.412,68.965l163.787,3.706c54.304,-12.139 163.618,-49.963 190.235,-70.043l-167.61,-2.628Z" style="fill:rgb(30,29,24);stroke:rgb(13,18,21);stroke-width:3.4px;"/>
        </g>
        <g transform="matrix(41.2222,0,0,1,-45081.9,303.002)">
            <path d="M1101.14,1737.11c-0.488,15.566 -3.229,49.032 -4.311,56.219l0.514,30.941l4.436,-63.556l-0.639,-23.604Z" style="fill:rgb(42,44,43);stroke:rgb(13,18,21);stroke-width:0.1px;"/>
        </g>
        <g transform="matrix(0.938462,0,0,0.809524,-228.295,511.621)">
            <path d="M163.725,1977.81l-186.412,68.965l163.787,3.706c54.304,-12.139 163.618,-49.963 190.235,-70.043l-167.61,-2.628Z" style="fill:rgb(30,29,24);stroke:rgb(13,18,21);stroke-width:3.4px;"/>
        </g>
        <g transform="matrix(41.2222,0,0,1,-45310.2,378.745)">
            <path d="M1101.14,1737.11c-0.488,15.566 -3.229,49.032 -4.311,56.219l0.514,30.941l4.436,-63.556l-0.639,-23.604Z" style="fill:rgb(42,44,43);stroke:rgb(13,18,21);stroke-width:0.1px;"/>
        </g>
        <g transform="matrix(0.938462,0,0,0.809524,877.247,218.889)">
            <path d="M102.066,2003.52l-114.199,48.521l159.256,-4.778c54.304,-12.139 87.772,-26.669 114.388,-46.749l-159.445,3.006Z" style="fill:rgb(30,29,24);stroke:rgb(13,18,21);stroke-width:3.4px;"/>
        </g>
        <g transform="matrix(41.2222,0,0,1,-44204.7,86.0125)">
            <path d="M1099.58,1752.43c-0.488,15.567 -1.536,30.505 -2.617,37.692l0.474,19.583l2.415,-41.873l-0.272,-15.402Z" style="fill:rgb(42,44,43);stroke:rgb(13,18,21);stroke-width:0.1px;"/>
        </g>
        <g transform="matrix(0.938462,0,0,0.809524,730.794,265.977)">
            <path d="M125.693,2001.27l-137.826,50.772l171.879,-4.778c54.303,-12.139 94.244,-30.421 120.861,-50.501l-154.914,4.507Z" style="fill:rgb(30,29,24);stroke:rgb(13,18,21);stroke-width:3.4px;"/>
        </g>
        <g transform="matrix(41.2222,0,0,1,-44351.1,133.1)">
            <path d="M1100.02,1749.7c-0.488,15.566 -1.672,34.757 -2.753,41.943l0.427,24.139l2.816,-43.542l-0.49,-22.54Z" style="fill:rgb(42,44,43);stroke:rgb(13,18,21);stroke-width:0.1px;"/>
        </g>
        <g transform="matrix(0.938462,0,0,0.809524,582.155,318.944)">
            <path d="M125.693,2001.27l-161.107,56.906l184.93,0.538c54.304,-12.139 115.057,-38.19 141.673,-58.27l-165.496,0.826Z" style="fill:rgb(30,29,24);stroke:rgb(13,18,21);stroke-width:3.4px;"/>
        </g>
        <g transform="matrix(41.2222,0,0,1,-44499.8,186.067)">
            <path d="M1100.22,1754.66c-0.488,15.566 -2.17,38.729 -3.251,45.916l0.426,24.139c1.199,-15.748 2.323,-32.311 3.114,-52.481l-0.289,-17.574Z" style="fill:rgb(42,44,43);stroke:rgb(13,18,21);stroke-width:0.1px;"/>
        </g>
        <g transform="matrix(0.938462,0,0,0.809524,409.483,380.915)">
            <path d="M116.63,1996.98l-173.867,69.984l184.375,3.326c54.303,-12.139 137.435,-49.768 164.051,-69.848l-174.559,-3.462Z" style="fill:rgb(30,29,24);stroke:rgb(13,18,21);stroke-width:3.4px;"/>
        </g>
        <g transform="matrix(41.2222,0,0,1,-44672.4,248.038)">
            <path d="M1100.31,1752.75c-0.488,15.566 -2.642,48.796 -3.724,55.983l0.448,31.255c1.199,-15.747 2.971,-45.502 3.762,-65.672l-0.486,-21.566Z" style="fill:rgb(42,44,43);stroke:rgb(13,18,21);stroke-width:0.1px;"/>
        </g>
        <g transform="matrix(0.938462,0,0,0.809524,169.808,461.028)">
            <path d="M166.103,1984.38l-223.34,82.58l214.89,0.11c54.304,-12.139 154.774,-60.756 181.39,-80.836l-172.94,-1.854Z" style="fill:rgb(30,29,24);stroke:rgb(13,18,21);stroke-width:3.4px;"/>
        </g>
        <g transform="matrix(41.2222,0,0,1,-44912.1,328.151)">
            <path d="M1101.33,1740.39c-0.488,15.566 -3.052,58.125 -4.134,65.312l0.432,36.028c1.199,-15.748 3.539,-49.841 4.33,-70.011l-0.628,-31.329Z" style="fill:rgb(42,44,43);stroke:rgb(13,18,21);stroke-width:0.1px;"/>
        </g>
        <g transform="matrix(0.938462,0,0,0.809524,-75.6197,541.707)">
            <path d="M166.103,1984.38l-223.34,82.58l181.297,16.441c54.304,-12.139 209.317,-77.506 235.934,-97.586l-193.891,-1.435Z" style="fill:rgb(30,29,24);stroke:rgb(13,18,21);stroke-width:3.4px;"/>
        </g>
        <g transform="matrix(41.2222,0,0,1,-45157.5,408.83)">
            <path d="M1101.8,1740.73c-0.488,15.566 -4.261,70.328 -5.342,77.515l0.596,42.13c1.199,-15.747 4.839,-62.044 5.63,-82.214l-0.884,-37.431Z" style="fill:rgb(42,44,43);stroke:rgb(13,18,21);stroke-width:0.1px;"/>
        </g>
        <g transform="matrix(0.938462,0,0,0.809524,1006.65,245.214)">
            <path d="M121.42,1997.97l-133.553,54.073l171.879,-4.778c54.303,-12.139 94.244,-30.421 120.861,-50.501l-159.187,1.206Z" style="fill:rgb(30,29,24);stroke:rgb(13,18,21);stroke-width:3.4px;"/>
        </g>
        <g transform="matrix(41.2222,0,0,1,-44075.3,112.337)">
            <path d="M1100.02,1749.7c-0.488,15.566 -1.672,34.757 -2.753,41.943l0.427,24.139l2.816,-43.542l-0.49,-22.54Z" style="fill:rgb(42,44,43);stroke:rgb(13,18,21);stroke-width:0.1px;"/>
        </g>
        <g transform="matrix(0.938462,0,0,0.809524,998.047,177.492)">
            <path d="M102.066,2003.52l-99.642,39.887l138.185,-4.944c54.304,-12.139 72.293,-19.181 98.909,-39.261l-137.452,4.318Z" style="fill:rgb(30,29,24);stroke:rgb(13,18,21);stroke-width:3.4px;"/>
        </g>
        <g transform="matrix(41.2222,0,0,1,-44083.9,44.6157)">
            <path d="M1099.1,1750.82c-0.488,15.566 -1.176,24.102 -2.257,31.289l0.605,21.55l2.153,-35.932l-0.501,-16.907Z" style="fill:rgb(42,44,43);stroke:rgb(13,18,21);stroke-width:0.1px;"/>
        </g>
        <g transform="matrix(0.938462,0,0,0.809524,1232.72,157.826)">
            <path d="M102.066,2003.52l-97.094,43.17l147.814,-2.974c55.432,-10.962 68.825,-24.014 94.095,-45.499l-144.815,5.303Z" style="fill:rgb(30,29,24);stroke:rgb(13,18,21);stroke-width:3.4px;"/>
        </g>
        <g transform="matrix(41.2222,0,0,1,-43849.2,24.9489)">
            <path d="M1099.26,1752.68c-0.027,0.86 -0.054,1.712 -0.082,2.555c-0.001,0.036 -0.002,0.072 -0.003,0.108c-0.466,14.358 -0.992,26.105 -2.011,32.877l0.54,17.564l2.069,-31.414l-0.513,-21.69Z" style="fill:rgb(42,44,43);stroke:rgb(13,18,21);stroke-width:0.1px;"/>
        </g>
        <g transform="matrix(0.938462,0,0,0.809524,1387.2,171.778)">
            <path d="M102.066,2003.52l-97.094,43.17l186.093,-3.814c47.892,-9.954 52.586,-20.653 77.856,-42.138l-166.855,2.782Z" style="fill:rgb(30,29,24);stroke:rgb(13,18,21);stroke-width:3.4px;"/>
        </g>
        <g transform="matrix(41.2222,0,0,1,-43694.7,38.9017)">
            <path d="M1100.22,1771.11c-0,0 -0.473,-18.555 -0.474,-18.519c-0.466,14.358 -0.763,27.502 -1.783,34.275l0.465,20.421l1.792,-36.177Z" style="fill:rgb(42,44,43);stroke:rgb(13,18,21);stroke-width:0.1px;"/>
        </g>
        <g transform="matrix(41.2222,0,0,1,-43981.2,9.96627)">
            <path d="M1099.06,1751.62c-0.488,15.567 -0.932,20.328 -2.013,27.515l0.288,19.238l2.063,-30.473l-0.338,-16.28Z" style="fill:rgb(42,44,43);stroke:rgb(13,18,21);stroke-width:0.1px;"/>
        </g>
        <path d="M1448.91,1719.08l-129.446,2.358l-109.117,36.295l128.834,-1.747c60.017,-12.302 92.504,-24.604 109.729,-36.906Z" style="fill:rgb(30,29,24);stroke:rgb(13,18,21);stroke-width:2.98px;"/>
        <path d="M1449.39,1719.48c-23.901,14.511 -60.188,26.929 -110.507,36.975l13.116,16.465l108.553,-40.045l-11.162,-13.395Z" style="fill:rgb(42,44,43);stroke:rgb(13,18,21);stroke-width:2.98px;"/>
        <path d="M1632.62,1708.55l-128.852,5.582l-169.004,63.126l157.107,-7.325c71.333,-20.715 114.069,-41.133 140.749,-61.383Z" style="fill:rgb(30,29,24);stroke:rgb(13,18,21);stroke-width:2.98px;"/>
        <path d="M1633.2,1708.26c-21.912,19.028 -61.851,39.398 -140.051,62.613l13.255,17.267l139.005,-61.742l-12.209,-18.138Z" style="fill:rgb(42,44,43);stroke:rgb(13,18,21);stroke-width:2.98px;"/>
        <path d="M1827.58,1700.83l-142.43,4.085l-180.383,84.833l152.879,-6.251c58.429,-18.276 115.225,-45.043 169.934,-82.667Z" style="fill:rgb(30,29,24);stroke:rgb(13,18,21);stroke-width:2.98px;"/>
        <path d="M1827.34,1700.97c-55.507,39.224 -112.232,64.45 -169.569,82.64l14.059,22.234l168.198,-87.326l-12.688,-17.548Z" style="fill:rgb(42,44,43);stroke:rgb(13,18,21);stroke-width:2.98px;"/>
        <path d="M1968.47,1697.2l-87.69,-0l-39.649,20.538l86.977,-0.178c18.713,-4.397 32.126,-11.202 40.362,-20.36Z" style="fill:rgb(30,29,24);stroke:rgb(13,18,21);stroke-width:2.98px;"/>
        <g transform="matrix(1,0,0,1,-55.6199,28.8305)">
            <path d="M1982.92,1693.46l-95.09,0.935l-46.707,23.345l103.816,-1.369c18.713,-4.396 29.745,-13.753 37.981,-22.911Z" style="fill:rgb(30,29,24);stroke:rgb(13,18,21);stroke-width:2.98px;"/>
        </g>
        <path d="M1968.57,1697.44c-7.967,7.984 -20.669,14.642 -39.086,19.699l12.958,10.666c16.905,-4.485 28.626,-12.079 36.474,-21.998l-10.346,-8.367Z" style="fill:rgb(42,44,43);stroke:rgb(13,18,21);stroke-width:2.98px;"/>
        <g transform="matrix(1,0,0,1,-41.1621,24.5782)">
            <path d="M1968.57,1697.44c-7.967,7.984 -19.053,18.639 -37.47,23.696l12.533,9.391c16.905,-4.485 27.861,-13.44 35.708,-23.359l-10.771,-9.728Z" style="fill:rgb(42,44,43);stroke:rgb(13,18,21);stroke-width:2.98px;"/>
        </g>
        <g transform="matrix(1,0,0,1,-105.943,56.8025)">
            <path d="M1968.9,1694.95c-7.967,7.984 -19.385,21.131 -37.802,26.188l12.533,9.391c16.905,-4.485 27.861,-13.44 35.708,-23.359l-10.439,-12.22Z" style="fill:rgb(42,44,43);stroke:rgb(13,18,21);stroke-width:2.98px;"/>
        </g>
        <path d="M2101.7,1692.57l-97.666,1.157l-34.767,18.616l100.089,-0.571c13.63,-3.371 24.883,-10.388 32.344,-19.202Z" style="fill:rgb(30,29,24);stroke:rgb(13,18,21);stroke-width:2.98px;"/>
        <path d="M2101.89,1692.76c-8.297,9.396 -19.132,16.635 -32.508,18.955l5.225,19.01c11.793,-3.493 21.227,-8.8 28.303,-15.921l-1.02,-22.044Z" style="fill:rgb(42,44,43);stroke:rgb(13,18,21);stroke-width:2.98px;"/>
        <path d="M2069.57,1711.54l-100.354,1.36l0.068,16.329l104.777,1.905l-4.491,-19.594Z" style="fill:rgb(0,0,2);stroke:rgb(13,18,21);stroke-width:2.98px;"/>
        <path d="M2067.58,1715.81l-102.395,1.446l-43.883,27.81l109.368,-3.232c14.317,-4.76 26.676,-13.326 36.91,-26.024Z" style="fill:rgb(30,29,24);stroke:rgb(13,18,21);stroke-width:2.98px;"/>
        <path d="M2067.07,1716.15c-10.013,10.451 -21.68,19.456 -36.229,25.938l5.272,18.2c17.566,-6.96 28.561,-17.506 34.869,-25.598l-3.912,-18.54Z" style="fill:rgb(42,44,43);stroke:rgb(13,18,21);stroke-width:2.98px;"/>
        <path d="M2067.45,1715.88c-11.801,11.818 -24.243,20.914 -36.61,26.211l5.272,18.2c17.566,-6.96 28.561,-17.506 34.869,-25.598l-3.531,-18.813Z" style="fill:rgb(42,44,43);stroke:rgb(13,18,21);stroke-width:2.98px;"/>
        <path d="M2030.5,1741.75l-109.113,3.827l0.425,15.904l114.131,-0.936l-5.443,-18.795Z" style="fill:rgb(0,0,2);stroke:rgb(13,18,21);stroke-width:2.98px;"/>
        <g transform="matrix(1,0,0,1,-59.532,33.2741)">
            <path d="M2030.5,1741.75l-101.884,0l-6.804,19.837l115.301,0.128l-6.613,-19.965Z" style="fill:rgb(0,0,2);stroke:rgb(13,18,21);stroke-width:2.98px;"/>
        </g>
        <g transform="matrix(1,0,0,1,-218.66,73.4715)">
            <path d="M2036.43,1740.69l-171.934,4.714l-2.983,17.013l183.648,-1.974l-8.731,-19.753Z" style="fill:rgb(0,0,2);stroke:rgb(13,18,21);stroke-width:2.98px;"/>
        </g>
        <g transform="matrix(1,0,0,1,-55.9773,32.0583)">
            <path d="M2075.87,1716.87l-110.687,0.383l-41.226,26.322l101.609,-0.893c17.186,-2.528 40.07,-13.114 50.304,-25.812Z" style="fill:rgb(30,29,24);stroke:rgb(13,18,21);stroke-width:2.98px;"/>
        </g>
        <g transform="matrix(1,0,0,1,-46.3499,31.9985)">
            <path d="M2066.27,1717.08c-7.776,13.76 -32.689,23.013 -49.252,26.284l6.229,19.263c20.543,-5.803 43.553,-19.016 47.732,-27.937l-4.709,-17.61Z" style="fill:rgb(42,44,43);stroke:rgb(13,18,21);stroke-width:2.98px;"/>
        </g>
        <g transform="matrix(1,0,0,1,-55.6199,28.8305)">
            <path d="M1982.92,1693.46l-95.09,0.935l-46.707,23.345l103.816,-1.369c18.713,-4.396 29.745,-13.753 37.981,-22.911Z" style="fill:rgb(30,29,24);stroke:rgb(13,18,21);stroke-width:2.98px;"/>
        </g>
        <g transform="matrix(1,0,0,1,-195.978,101.418)">
            <path d="M2073.45,1680.01l-168.342,4.258l-63.982,33.477l159.793,-4.525c22.534,1.76 68.447,-17.362 72.531,-33.21Z" style="fill:rgb(30,29,24);stroke:rgb(13,18,21);stroke-width:2.98px;"/>
        </g>
        <g transform="matrix(1,0,0,1,-118.906,62.3837)">
            <path d="M1982.09,1688.64l-93.594,2.098l-47.372,26.999l103.816,-1.369c22.181,-9.199 31.214,-21.754 37.15,-27.728Z" style="fill:rgb(30,29,24);stroke:rgb(13,18,21);stroke-width:2.98px;"/>
        </g>
        <g transform="matrix(1,0,0,1,-124.879,94.01)">
            <path d="M2002.62,1688.14c-2.603,12.275 -36.753,31.586 -60.88,32.076l9.806,18.899c16.904,-4.485 49.513,-19.369 57.361,-29.288l-6.287,-21.687Z" style="fill:rgb(42,44,43);stroke:rgb(13,18,21);stroke-width:2.98px;"/>
        </g>
        <g transform="matrix(0.938462,0,0,0.809524,1104.68,140.559)">
            <path d="M102.066,2003.52l-101.058,37.753l145.353,-5.118c62.74,-13.588 68.946,-13.8 88.069,-32.593l-132.364,-0.042Z" style="fill:rgb(30,29,24);stroke:rgb(13,18,21);stroke-width:3.4px;"/>
        </g>
        <g transform="matrix(0.938462,0,0,0.809524,1125.08,198.624)">
            <path d="M102.066,2003.52l-97.379,45.327l166.071,-3.265c54.303,-12.139 67.472,-22.298 94.088,-42.378l-162.78,0.316Z" style="fill:rgb(30,29,24);stroke:rgb(13,18,21);stroke-width:3.4px;"/>
        </g>
        <g transform="matrix(41.2222,0,0,1,-43956.8,65.7477)">
            <path d="M1099.67,1754.61c-0.488,15.566 -1.077,27.647 -2.159,34.833l0.409,22.985l2.098,-40.783l-0.348,-17.035Z" style="fill:rgb(42,44,43);stroke:rgb(13,18,21);stroke-width:0.1px;"/>
        </g>
        <g transform="matrix(0.938462,0,0,0.809524,1298.14,213.72)">
            <path d="M102.066,2003.52l-97.379,45.327l186.515,-3.769c54.304,-12.139 57.902,-27.677 84.519,-47.757l-173.655,6.199Z" style="fill:rgb(30,29,24);stroke:rgb(13,18,21);stroke-width:3.4px;"/>
        </g>
        <g transform="matrix(41.2222,0,0,1,-43783.8,80.8433)">
            <path d="M1099.89,1749.85c-0.488,15.566 -0.846,30.777 -1.927,37.964l0.514,26.386c0.755,-11.922 1.4,-26.321 1.9,-44.049l-0.487,-20.301Z" style="fill:rgb(42,44,43);stroke:rgb(13,18,21);stroke-width:0.1px;"/>
        </g>
        <g transform="matrix(1,0,0,1,-300.061,115.387)">
            <path d="M2030.5,1741.75l-166.365,2.804l-2.862,21.266l186.389,0.001l-17.162,-24.071Z" style="fill:rgb(0,0,2);stroke:rgb(13,18,21);stroke-width:2.98px;"/>
        </g>
        <g transform="matrix(1,0,0,1,-561.424,128.144)">
            <path d="M2038.39,1740.84l-174.262,3.715l-2.862,21.266l199.592,0.36l-22.468,-25.341Z" style="fill:rgb(0,0,2);stroke:rgb(13,18,21);stroke-width:2.98px;"/>
        </g>
        <g transform="matrix(1,0,0,1,-869.692,160.771)">
            <path d="M2024.62,1741.69l-160.491,2.867l-2.862,21.266l183.066,1.631l-19.713,-25.764Z" style="fill:rgb(0,0,2);stroke:rgb(13,18,21);stroke-width:2.98px;"/>
        </g>
        <g transform="matrix(1,0,0,1,-277.379,143.334)">
            <path d="M2080.98,1683.29l-176.239,1.828l-63.618,32.627l168.662,-1.852c22.534,1.76 67.111,-16.755 71.195,-32.603Z" style="fill:rgb(30,29,24);stroke:rgb(13,18,21);stroke-width:2.98px;"/>
        </g>
        <g transform="matrix(1,0,0,1,-206.28,135.925)">
            <path d="M2010.4,1690.94c-2.603,12.274 -46.882,33.832 -71.009,34.322l14.897,19.587c16.904,-4.485 58.317,-23.518 66.165,-33.437l-10.053,-20.472Z" style="fill:rgb(42,44,43);stroke:rgb(13,18,21);stroke-width:2.98px;"/>
        </g>
        <g transform="matrix(1,0,0,1,-407.317,174.71)">
            <path d="M2056.63,1739.94l-194.2,-0.121l-0.185,16.783l205.445,2.938l-11.06,-19.6Z" style="fill:rgb(0,0,2);stroke:rgb(13,18,21);stroke-width:2.98px;"/>
        </g>
        <g transform="matrix(1,0,0,1,-384.398,200.521)">
            <path d="M2106.25,1673.2l-179.519,-1.452l-88.524,43.683l186.036,-0.881c22.534,1.76 77.923,-25.502 82.007,-41.35Z" style="fill:rgb(30,29,24);stroke:rgb(13,18,21);stroke-width:2.98px;"/>
        </g>
        <g transform="matrix(1,0,0,1,-294.315,190.028)">
            <path d="M2016.47,1683.04c-2.603,12.275 -48.852,40.48 -72.979,40.97l11.339,19.929c21.454,-4.66 70.878,-30.17 74.851,-39.94l-13.211,-20.959Z" style="fill:rgb(42,44,43);stroke:rgb(13,18,21);stroke-width:2.98px;"/>
        </g>
        <g transform="matrix(1,0,0,1,-1313.81,629.248)">
            <path d="M2163.22,1737.29l-302.318,-4.595l0.365,33.123l331.576,19.534l-29.623,-48.062Z" style="fill:rgb(0,0,2);stroke:rgb(13,18,21);stroke-width:2.98px;"/>
        </g>
        <g transform="matrix(1,0,0,1,-1061.15,647.152)">
            <path d="M2699.41,1279.74c-2.603,12.275 -764.34,439.581 -788.467,440.07l27.881,47.075c21.455,-4.66 777.098,-457.225 781.072,-466.995l-20.486,-20.15Z" style="fill:rgb(42,44,43);stroke:rgb(13,18,21);stroke-width:2.98px;"/>
        </g>
        <g transform="matrix(0.938462,0,0,0.809524,1193.88,265.606)">
            <path d="M107.989,1994.78l-120.122,57.263l194.534,-1.214c54.304,-12.138 72.074,-38.299 98.691,-58.379l-173.103,2.33Z" style="fill:rgb(30,29,24);stroke:rgb(13,18,21);stroke-width:3.4px;"/>
        </g>
        <g transform="matrix(41.2222,0,0,1,-43888,132.729)">
            <path d="M1100.04,1746.05c-0.488,15.566 -1.197,40.224 -2.279,47.411l0.593,21.557l2.153,-42.783l-0.467,-26.185Z" style="fill:rgb(42,44,43);stroke:rgb(13,18,21);stroke-width:0.1px;"/>
        </g>
        <g transform="matrix(0.938462,0,0,0.809524,863.635,302.815)">
            <path d="M123.001,1991.42l-135.134,60.616l190.617,-4.516c54.303,-12.139 87.697,-38.272 114.314,-58.353l-169.797,2.253Z" style="fill:rgb(30,29,24);stroke:rgb(13,18,21);stroke-width:3.4px;"/>
        </g>
        <g transform="matrix(41.2222,0,0,1,-44218.3,169.939)">
            <path d="M1100.27,1742.71c-0.488,15.566 -1.497,40.901 -2.579,48.088l0.545,24.986l2.703,-50.11l-0.669,-22.964Z" style="fill:rgb(42,44,43);stroke:rgb(13,18,21);stroke-width:0.1px;"/>
        </g>
        <g transform="matrix(1,0,0,1,-1012.45,222.428)">
            <path d="M2043.61,1737.62l-179.305,4.732l-3.031,23.469l204.761,-2.606l-22.425,-25.595Z" style="fill:rgb(0,0,2);stroke:rgb(13,18,21);stroke-width:2.98px;"/>
        </g>
        <g transform="matrix(0.938462,0,0,0.809524,686.726,369.554)">
            <path d="M149.817,1984.78l-161.95,67.263l190.617,-4.516c54.303,-12.139 127.275,-45.991 153.891,-66.071l-182.558,3.324Z" style="fill:rgb(30,29,24);stroke:rgb(13,18,21);stroke-width:3.4px;"/>
        </g>
        <g transform="matrix(41.2222,0,0,1,-44395.2,236.677)">
            <path d="M1101.26,1736.98c-0.488,15.566 -2.487,46.628 -3.569,53.815l0.545,24.986l3.701,-53.234l-0.677,-25.567Z" style="fill:rgb(42,44,43);stroke:rgb(13,18,21);stroke-width:0.1px;"/>
        </g>
        <g transform="matrix(1,0,0,1,-1189.36,289.166)">
            <path d="M2043.61,1737.62l-179.305,4.732l-3.031,23.469l204.761,-2.606l-22.425,-25.595Z" style="fill:rgb(0,0,2);stroke:rgb(13,18,21);stroke-width:2.98px;"/>
        </g>
        <g transform="matrix(41.2222,0,0,1,-44587.7,313.773)">
            <path d="M1101.76,1724.97c-0.488,15.566 -2.985,58.638 -4.067,65.825l0.649,33.897l4.17,-69.506l-0.752,-30.216Z" style="fill:rgb(42,44,43);stroke:rgb(13,18,21);stroke-width:0.1px;"/>
        </g>
        <g transform="matrix(1,0,0,1,-1381.91,366.262)">
            <path d="M2043.61,1737.62l-178.918,-3.017l-3.418,31.218l212.122,6.692l-29.786,-34.893Z" style="fill:rgb(0,0,2);stroke:rgb(13,18,21);stroke-width:2.98px;"/>
        </g>
        <g transform="matrix(0.938462,0,0,0.809524,1056.83,323.87)">
            <path d="M117.525,1987.24l-129.658,64.8l204.65,-3.146c54.304,-12.139 97.234,-40.866 123.85,-60.946l-198.842,-0.708Z" style="fill:rgb(30,29,24);stroke:rgb(13,18,21);stroke-width:3.4px;"/>
        </g>
        <g transform="matrix(41.2222,0,0,1,-44025.1,190.993)">
            <path d="M1100.82,1742.19c-0.488,15.566 -1.725,42.126 -2.807,49.313l0.597,29.21c1.229,-18.82 2.199,-36.586 2.542,-51.789l-0.332,-26.734Z" style="fill:rgb(42,44,43);stroke:rgb(13,18,21);stroke-width:0.1px;"/>
        </g>
        <g transform="matrix(0.938462,0,0,0.809524,894.118,400.566)">
            <path d="M144.077,1971.77l-159.017,74.334l207.457,2.788c54.304,-12.139 123.918,-56.793 150.535,-76.873l-198.975,-0.249Z" style="fill:rgb(30,29,24);stroke:rgb(13,18,21);stroke-width:3.4px;"/>
        </g>
        <g transform="matrix(41.2222,0,0,1,-44187.8,267.689)">
            <path d="M1101.46,1729.3c-0.488,15.566 -2.366,55.019 -3.448,62.206l0.597,29.21c1.229,-18.82 3.066,-48.487 3.408,-63.69l-0.557,-27.726Z" style="fill:rgb(42,44,43);stroke:rgb(13,18,21);stroke-width:0.1px;"/>
        </g>
        <g>
            <g transform="matrix(1,0,0,1,452.42,103.125)">
                <path d="M324.338,2298.51l-287.58,-7.239l-295.936,145.573l338.677,1.277c111.011,-34.243 196.28,-79.252 244.839,-139.611Z" style="fill:rgb(30,29,24);stroke:rgb(13,18,21);stroke-width:8.97px;"/>
            </g>
            <g transform="matrix(1,0,0,1,16.896,-46.0553)">
                <path d="M515.409,2586.39l-335.195,-1.635l10.9,41.695l349.639,13.081l-25.344,-53.141Z" style="fill:rgb(0,0,2);stroke:rgb(13,18,21);stroke-width:8.97px;"/>
            </g>
            <path d="M776.48,2400.81c-49.272,64.582 -139.903,106.309 -244.447,140.346l23.981,51.233c127.083,-52.579 220.47,-104.026 261.071,-153.699l-40.605,-37.88Z" style="fill:rgb(42,44,43);stroke:rgb(13,18,21);stroke-width:8.97px;"/>
        </g>
        <g>
            <g transform="matrix(1,0,0,1,-767.149,429.112)">
                <path d="M770.641,2402.43c-49.273,64.582 -216.671,139.603 -321.215,173.64l42.291,63.582c133.358,-43.167 292.768,-117.067 328.288,-174.361l-49.364,-62.861Z" style="fill:rgb(42,44,43);stroke:rgb(13,18,21);stroke-width:8.97px;"/>
            </g>
            <g transform="matrix(1,0,0,1,135.789,282.583)">
                <path d="M324.338,2298.51l-287.58,-7.239l-295.936,145.573l258.199,34.916c111.012,-34.243 276.758,-112.891 325.317,-173.25Z" style="fill:rgb(30,29,24);stroke:rgb(13,18,21);stroke-width:8.97px;"/>
            </g>
            <g transform="matrix(1,0,0,1,-299.735,133.402)">
                <path d="M432.377,2620.46l-252.163,-35.699l10.9,41.695l285.768,57.365l-44.505,-63.361Z" style="fill:rgb(0,0,2);stroke:rgb(13,18,21);stroke-width:8.97px;"/>
            </g>
            <g transform="matrix(1,0,0,1,-316.631,179.458)">
                <path d="M776.48,2400.81c-49.272,64.582 -222.51,141.225 -327.054,175.262l42.291,63.582c133.358,-43.167 289.848,-143.67 325.368,-200.964l-40.605,-37.88Z" style="fill:rgb(42,44,43);stroke:rgb(13,18,21);stroke-width:8.97px;"/>
            </g>
        </g>
        <g transform="matrix(1,0,0,1,-1292.83,646.654)">
            <path d="M2931.16,1279.1l-198.356,0.007l-894.598,436.331l304.343,5.052c22.534,1.76 784.527,-425.542 788.611,-441.39Z" style="fill:rgb(30,29,24);stroke:rgb(13,18,21);stroke-width:2.98px;"/>
        </g>
        <g transform="matrix(0.938462,0,0,0.809524,494.18,446.649)">
            <path d="M160.964,1973.77l-171.933,69.76l189.453,3.994c54.303,-12.139 152.457,-60.827 179.073,-80.907l-196.593,7.153Z" style="fill:rgb(30,29,24);stroke:rgb(13,18,21);stroke-width:3.4px;"/>
        </g>
        <g transform="matrix(41.2222,0,0,1,-44813.4,404.815)">
            <path d="M1102.07,1727.22c-0.488,15.567 -3.136,64.52 -4.217,71.707l0.485,25.764l4.17,-69.506l-0.438,-27.965Z" style="fill:rgb(42,44,43);stroke:rgb(13,18,21);stroke-width:0.1px;"/>
        </g>
        <g transform="matrix(1,0,0,1,-1607.58,457.304)">
            <path d="M2051.34,1746.94l-180.108,-19.083l-5.204,29.036l207.759,18.394l-22.447,-28.347Z" style="fill:rgb(0,0,2);stroke:rgb(13,18,21);stroke-width:2.98px;"/>
        </g>
        <g transform="matrix(0.938462,0,0,0.809524,268.511,537.692)">
            <path d="M189.286,1956.62l-193.28,78.581l190.51,23.106c54.303,-12.139 160.403,-72.848 187.019,-92.928l-184.249,-8.759Z" style="fill:rgb(30,29,24);stroke:rgb(13,18,21);stroke-width:3.4px;"/>
        </g>
        <g transform="matrix(41.2222,0,0,1,-45095.7,508.933)">
            <path d="M1103.8,1715.32c-0.488,15.566 -4.869,76.421 -5.95,83.608l0.47,47.583l6.12,-98.268l-0.64,-32.923Z" style="fill:rgb(42,44,43);stroke:rgb(13,18,21);stroke-width:0.1px;"/>
        </g>
        <g transform="matrix(1,0,0,1,-1888.92,612.995)">
            <path d="M2051.94,1694.97l-214.82,-5.198l-12.94,20.307l245.744,31.372l-17.984,-46.481Z" style="fill:rgb(0,0,2);stroke:rgb(13,18,21);stroke-width:2.98px;"/>
        </g>
        <g transform="matrix(0.938462,0,0,0.809524,-13.8173,641.809)">
            <path d="M253.801,1928.47l-316.765,122.415l249.48,7.424c54.303,-12.139 235.325,-85.022 261.942,-105.102l-194.657,-24.737Z" style="fill:rgb(30,29,24);stroke:rgb(13,18,21);stroke-width:3.4px;"/>
        </g>
        <g transform="matrix(41.2222,0,0,1,-45398,621.599)">
            <path d="M1103.8,1715.32c-0.488,15.566 -4.869,76.421 -5.95,83.608l0.485,25.764l6.105,-76.449l-0.64,-32.923Z" style="fill:rgb(42,44,43);stroke:rgb(13,18,21);stroke-width:0.1px;"/>
        </g>
        <g transform="matrix(0.938462,0,0,0.809524,-316.112,754.476)">
            <path d="M240.062,1942.19l-303.026,108.693l249.48,7.424c54.303,-12.139 235.325,-85.022 261.942,-105.102l-208.396,-11.015Z" style="fill:rgb(30,29,24);stroke:rgb(13,18,21);stroke-width:3.4px;"/>
        </g>
    </g>
        <g id="side-Hand">
        <g transform="matrix(0.221453,0,0,0.221453,-5.75388,75.459)">
            <g transform="matrix(1,0,0,1,0.833477,-7.59624)">
                <path d="M3962.81,514.902c-178.365,54.793 -561.759,244.566 -561.759,244.566c-0,0 -334.384,108.224 -478.324,205.044c-147.561,99.257 -294.375,270.624 -407.047,390.495c-96.97,103.167 -249.483,255.115 -268.985,328.734c-16.164,61.017 39.682,131.644 151.972,112.976c41.649,-6.924 96.042,-22.037 131.033,-45.666c47.561,-32.118 122.567,-113.443 154.335,-147.043c10.874,-11.5 28.526,-37.956 28.526,-37.956c0,0 71.403,-12.117 102.748,-28.961c51.777,-27.825 159.897,-102.784 207.914,-137.987c29.194,-21.402 80.19,-73.228 80.19,-73.228c-0,-0 123.151,11.911 184.219,5.242c62.691,-6.846 149.752,-35.528 191.928,-46.319c20.617,-5.275 61.127,-18.427 61.127,-18.427l-144.308,41.69c0,-0 -96.7,203.06 -140.244,295.979c-44.665,95.311 31.513,186.142 31.513,186.142c0,0 212.35,190.102 294.316,253.95c62.048,48.333 197.478,129.139 197.478,129.139c0,-0 -1.225,-106.539 17.71,-154.957c18.956,-48.471 96.025,-135.869 96.025,-135.869l652.32,-493.885l126.421,-89.141l-22.843,-892.356c0,0 -118.762,14.36 -177.838,23.643c-114.378,17.973 -344.217,33.75 -508.427,84.195Z" style="fill:rgb(192,140,113);stroke:rgb(13,18,21);stroke-width:2.98px;"/>
            </g>
            <g transform="matrix(1,0,0,1,10.4153,-25.0425)">
                <path d="M4632.46,1333.6l-746.55,564.42c-88.857,75.053 -132.147,178.99 -120.856,295.156c0,-0 75.345,78.671 124.751,96.853c50.816,18.703 180.15,15.36 180.15,15.36c0,-0 132.816,-13.104 189.955,-20.816c51.198,-6.91 103.749,-9.483 152.88,-25.456c63.776,-20.733 229.775,-98.944 229.775,-98.944l-10.105,-826.573Z" style="fill:rgb(192,140,113);stroke:rgb(13,18,21);stroke-width:1.6px;"/>
            </g>
            <g transform="matrix(1,0,0,1,1444.97,508.737)">
                <path d="M2413.02,1518.91c-0,0 -67.032,32.666 -62.649,116.157c5.553,105.764 81.946,127.732 138.308,143.288c49.588,13.686 169.495,-7.207 169.495,-7.207c2.135,14.944 -141.219,-96.765 -168.808,-176.166c-23.943,-68.905 -76.346,-76.072 -76.346,-76.072Z" style="fill:rgb(195,125,88);"/>
            </g>
            <g transform="matrix(1,0,0,1,1777.6,-330.975)">
                <path d="M2238.35,2219.69c6.919,-0.532 113.517,121.862 137.185,158.957c29.391,46.066 79.417,143.364 79.417,143.364" style="fill:none;stroke:rgb(151,107,94);stroke-opacity:0.44;stroke-width:6.43px;"/>
            </g>
            <path d="M3486.11,1708.38l281.072,-11.781c121.592,-140.993 -4.855,-284.161 -218.797,-428.097" style="fill:none;stroke:rgb(112,69,50);stroke-width:5.74px;"/>
            <path d="M3954.87,1810.79l-186.58,-116.372l305.838,-48.088l-0.962,-49.049c-109.839,-24.232 -203.693,-59.121 -282.755,-103.87" style="fill:none;stroke:rgb(112,69,50);stroke-width:5.74px;"/>
            <path d="M4130.75,1666.8l-58.302,-21.666l1.969,-47.272l165.059,13.394" style="fill:none;stroke:rgb(112,69,50);stroke-width:5.74px;"/>
            <path d="M4360.36,1523.46l-227.215,-510.931l78.416,176.331c0,0 -77.168,46.209 -113.279,52.085c-34.463,5.607 -68.718,-20.966 -103.389,-16.831c-43.679,5.21 -103.417,47.896 -158.689,48.088c-57.705,0.2 -187.542,-46.886 -187.542,-46.886l19.236,-140.656l-19.236,140.656l-103.388,37.268" style="fill:none;stroke:rgb(112,69,50);stroke-width:5.74px;"/>
            <path d="M4622.78,1184.62c-0,-0 -92.97,62.971 -114.037,100.984c-20.632,37.227 -12.365,127.088 -12.365,127.088l102.358,-87.244" style="fill:none;stroke:rgb(112,69,50);stroke-width:5.74px;"/>
            <path d="M2631.99,1464.22l85.871,99.288" style="fill:none;stroke:rgb(112,69,50);stroke-width:5.74px;"/>
            <path d="M3086.84,1186.48c27.254,45.465 44.943,89.337 28.176,127.465" style="fill:none;stroke:rgb(112,69,50);stroke-width:5.74px;"/>
        </g>
    </g>
    </g>
    <style>
        #side-Hand {
            animation-name: sideHandMove;
            animation-duration: 30s;
            animation-direction: normal;
            animation-fill-mode: forwards;
            animation-iteration-count: infinite;
            animation-timing-function: ease-in-out;
            transform: translate(720px, -200px);
            opacity:1;
        }
        @keyframes sideHandMove {
            from {
                opacity: 1;
                transform: translate(720px, -200px)
            }
            5% {
                transform: translate(100px, -200px)
            }
            8% {
                transform: translate(0, 0);
            }
            12% {
                opacity:1;
                transform: translate(0, 0);
            }
            14%{
                opacity:0;
                transform: translate(0, 0);
            }
            100%{
                opacity:0;
                transform: translate(512px, -200px)
            }
        }

        #side {
            opacity:1;
            animation-name: sideOpacity;
            animation-duration: 30s;
            animation-direction: normal;
            animation-fill-mode: forwards;
            animation-iteration-count: infinite;
            animation-timing-function: ease-in-out;
        }
        @keyframes sideOpacity {
            from {
                opacity: 1;
            }
            12% {
                opacity:1;
            }
            14% {
                opacity:0;
            }
            98% {
                opacity:0;
            }
            100%{
                opacity:1;
            }
        }
        #top {
            opacity:0;
            animation-name: topOpacity;
            animation-duration: 30s;
            animation-direction: normal;
            animation-fill-mode: forwards;
            animation-iteration-count: infinite;
            animation-timing-function: ease-in-out;
        }
        @keyframes topOpacity {
            from {
                opacity: 0;
            }
            12% {
                opacity:0;
            }
            14% {
                opacity:1;
            }
            25% {
                opacity:1;
            }
            27%{
                opacity:0;
            }
            35% {
                opacity: 0;
            }
            37% {
                opacity: 1;
            }
            46% {
                opacity: 1;
            }
            48% {
                opacity: 0;
            }
            56% {
                opacity: 0;
            }
            58% {
                opacity: 1;
            }
            64% {
                opacity: 1;
            }
            66% {
                opacity: 0;
            }
            74% {
                opacity: 0;
            }
            76% {
                opacity: 1;
            }
            84% {
                opacity: 1;
            }
            86% {
                opacity: 0;
            }
        }

        #top-ArrowLeft, #top-ArrowRight, #top-ArrowUp, #top-ArrowDown {
            opacity:0;
        }
        #top-ArrowLeft {
            opacity:0;
            animation-name: topArrowLeft;
            animation-duration: 30s;
            animation-direction: normal;
            animation-fill-mode: forwards;
            animation-iteration-count: infinite;
            animation-timing-function: ease-in-out;
        }
        @keyframes topArrowLeft {
            from {
                opacity: 0;
            }
            16% {
                opacity:0;
            }
            18% {
                opacity: 1;
            }
            25% {
                opacity:1;
            }
            27%{
                opacity:0;
            }
        }
        #top-ArrowRight {
            opacity:0;
            animation-name: topArrowRight;
            animation-duration: 30s;
            animation-direction: normal;
            animation-fill-mode: forwards;
            animation-iteration-count: infinite;
            animation-timing-function: ease-in-out;
        }
        @keyframes topArrowRight {
            from {
                opacity: 0;
            }
            37% {
                opacity:0;
            }
            39% {
                opacity: 1;
            }
            46% {
                opacity: 1;
            }
            48% {
                opacity:0;
            }
        }
        #top-ArrowUp {
            opacity:0;
            animation-name: topArrowUp;
            animation-duration: 30s;
            animation-direction: normal;
            animation-fill-mode: forwards;
            animation-iteration-count: infinite;
            animation-timing-function: ease-in-out;
        }
        @keyframes topArrowUp {
            from {
                opacity: 0;
            }
            58% {
                opacity:0;
            }
            60% {
                opacity: 1;
            }
            66% {
                opacity: 1;
            }
            68% {
                opacity:0;
            }
        }
        #top-ArrowDown {
            opacity:0;
            animation-name: topArrowDown;
            animation-duration: 30s;
            animation-direction: normal;
            animation-fill-mode: forwards;
            animation-iteration-count: infinite;
            animation-timing-function: ease-in-out;
        }
        @keyframes topArrowDown {
            from {
                opacity: 0;
            }
            76% {
                opacity:0;
            }
            78% {
                opacity: 1;
            }
            90% {
                opacity: 1;
            }
            99% {
                opacity:0;
            }
        }
        #top-Hand {
            animation-name: topHand;
            animation-duration: 30s;
            animation-direction: normal;
            animation-fill-mode: forwards;
            animation-iteration-count: infinite;
            animation-timing-function: ease-in-out;
        }
        @keyframes topHand {
            from {
                transform: translate(0, 0);
            }
            18% {
                transform: translate(0, 0);
            }
            22% {
                transform: translate(-150px, 0);
            }
            27% {
                transform: translate(-150px, 0);
            }
            28% {
                transform: translate(0, 0);
            }
            39% {
                transform: translate(0, 0);
            }
            43% {
                transform: translate(150px, 0);
            }
            48% {
                transform: translate(150px, 0);
            }
            49% {
                transform: translate(0, 0);
            }
            60% {
                transform: translate(0, 0);
            }
            64% {
                transform: translate(0, -100px);
            }
            68% {
                transform: translate(0, -100px);
            }
            70% {
                transform: translate(0, 0);
            }
            78% {
                transform: translate(0, 0);
            }
            82% {
                transform: translate(0, 100px);
            }
            90% {
                transform: translate(0, 100px);
            }
            100% {
                transform: translate(0, 0);
            }
        }

        #front {
            animation-name: front;
            animation-duration: 30s;
            animation-direction: normal;
            animation-fill-mode: forwards;
            animation-iteration-count: infinite;
            animation-timing-function: ease-in-out;
            opacity:0;
        }
        @keyframes front {
            from {
                opacity: 0;
            }
            25% {
                opacity:0;
            }
            27% {
                opacity:1;
            }
            35% {
                opacity:1;
            }
            37% {
                opacity:0;
            }
            46% {
                opacity:0;
            }
            48% {
                opacity:1;
            }
            56% {
                opacity:1;
            }
            58% {
                opacity:0;
            }
            64% {
                opacity:0;
            }
            66% {
                opacity:1;
            }
            74% {
                opacity:1;
            }
            76% {
                opacity:0;
            }
            84% {
                opacity:0;
            }
            86% {
                opacity:1;
            }
            96% {
                opacity:1;
            }
            98% {
                opacity:0;
            }
        }

        #front-ArrowLeft {
            animation-name: frontArrowLeft;
            animation-duration: 30s;
            animation-direction: normal;
            animation-fill-mode: forwards;
            animation-iteration-count: infinite;
            animation-timing-function: ease-in-out;
            opacity:0;
        }
        @keyframes frontArrowLeft {
            from {
                opacity: 0;
            }
            27% {
                opacity:0;
            }
            29% {
                opacity:1;
            }
            35% {
                opacity:1;
            }
            37% {
                opacity:0;
            }
        }

        #front-ArrowRight {
            animation-name: frontArrowRight;
            animation-duration: 30s;
            animation-direction: normal;
            animation-fill-mode: forwards;
            animation-iteration-count: infinite;
            animation-timing-function: ease-in-out;
            opacity:0;
        }
        @keyframes frontArrowRight {
            from {
                opacity: 0;
            }
            48% {
                opacity:0;
            }
            50% {
                opacity:1;
            }
            56% {
                opacity:1;
            }
            58% {
                opacity:0;
            }
        }

        #front-ArrowUp {
            animation-name: frontArrowUp;
            animation-duration: 30s;
            animation-direction: normal;
            animation-fill-mode: forwards;
            animation-iteration-count: infinite;
            animation-timing-function: ease-in-out;
            opacity:0;
        }
        @keyframes frontArrowUp {
            from {
                opacity: 0;
            }
            66% {
                opacity: 0;
            }
            68% {
                opacity: 1;
            }
            76% {
                opacity: 1;
            }
            78% {
                opacity: 0;
            }
        }

        #front-ArrowDown {
            animation-name: frontArrowDown;
            animation-duration: 30s;
            animation-direction: normal;
            animation-fill-mode: forwards;
            animation-iteration-count: infinite;
            animation-timing-function: ease-in-out;
            opacity:0;
        }
        @keyframes frontArrowDown {
            from {
                opacity: 0;
            }
            86% {
                opacity: 0;
            }
            88% {
                opacity: 1;
            }
            98% {
                opacity: 1;
            }
            100% {
                opacity: 0;
            }
        }

        #Cursor {
            animation-name: cursor;
            animation-duration: 30s;
            animation-direction: normal;
            animation-fill-mode: forwards;
            animation-iteration-count: infinite;
            animation-timing-function: ease-in-out;
            transform: translate(0, 0);
        }

        @keyframes cursor {
            from {
                transform: translate(0, 0);
            }
            29% {
                transform: translate(0, 0);
            }
            32% {
                transform: translate(-200px, 0);
            }
            37% {
                transform: translate(-200px, 0);
            }
            38% {
                transform: translate(0, 0);
            }
            50% {
                transform: translate(0, 0);
            }
            53% {
                transform: translate(200px, 0);
            }
            58% {
                transform: translate(200px, 0);
            }
            60% {
                transform: translate(0, 0);
            }
            68% {
                transform: translate(0, 0);
            }
            71% {
                transform: translate(0, -150px);
            }
            76% {
                transform: translate(0, -150px);
            }
            78% {
                transform: translate(0, 0);
            }
            88% {
                transform: translate(0, 0);
            }
            95% {
                transform: translate(0, 150px);
            }
            98% {
                transform: translate(0, 150px);
            }
            100% {
                transform: translate(0, 0);
            }
        }
    </style>
</svg>
