<?xml version="1.0" encoding="UTF-8" standalone="no"?>
<!DOCTYPE svg PUBLIC "-//W3C//DTD SVG 1.1//EN" "http://www.w3.org/Graphics/SVG/1.1/DTD/svg11.dtd">
<svg width="100%" height="100%" viewBox="0 0 1024 768" version="1.1" xmlns="http://www.w3.org/2000/svg" style="fill-rule:evenodd;clip-rule:evenodd;stroke-linecap:round;stroke-linejoin:round;stroke-miterlimit:1.5;">
    <g transform="matrix(0.709421,0,0,0.224232,249.161,9.1129)">
        <rect x="-351.659" y="-43.23" width="1459.35" height="3438.99" style="fill:rgb(215,189,168);"/>
    </g>
    <g id="Laptop" transform="matrix(0.221453,0,0,0.221453,-5.20006,2.91461)">
        <g transform="matrix(1,0,0,1,-22.8422,-12.6902)">
            <rect x="-34.838" y="-59.172" width="4718.16" height="2700.44" style="fill:url(#_Linear1);stroke:rgb(17,23,23);stroke-width:5.28px;"/>
        </g>
        <g id="Touchpad" transform="matrix(1,0,0,1,78.6781,-40.6082)">
            <g transform="matrix(2.01327,0,0,5.04206,-1379.04,-3349.81)">
                <path d="M2277.48,840.094C2277.48,837.006 2271.2,834.498 2263.47,834.498L1284.41,834.498C1276.68,834.498 1270.4,837.006 1270.4,840.094L1270.4,1141.59C1270.4,1144.67 1276.68,1147.18 1284.41,1147.18L2263.47,1147.18C2271.2,1147.18 2277.48,1144.67 2277.48,1141.59L2277.48,840.094Z" style="fill:rgb(17,23,23);"/>
            </g>
            <g transform="matrix(1,0,0,1,-88.4134,26.6529)">
                <path d="M2277.48,858.501C2277.48,845.253 2266.73,834.498 2253.48,834.498L1294.4,834.498C1281.15,834.498 1270.4,845.253 1270.4,858.501L1270.4,1123.18C1270.4,1136.43 1281.15,1147.18 1294.4,1147.18L2253.48,1147.18C2266.73,1147.18 2277.48,1136.43 2277.48,1123.18L2277.48,858.501Z" style="fill:rgb(47,51,52);stroke:rgb(17,23,23);stroke-width:4.59px;"/>
            </g>
            <g transform="matrix(1,0,0,1,925.217,27.9021)">
                <path d="M2277.48,858.501C2277.48,845.253 2266.73,834.498 2253.48,834.498L1294.4,834.498C1281.15,834.498 1270.4,845.253 1270.4,858.501L1270.4,1123.18C1270.4,1136.43 1281.15,1147.18 1294.4,1147.18L2253.48,1147.18C2266.73,1147.18 2277.48,1136.43 2277.48,1123.18L2277.48,858.501Z" style="fill:rgb(47,51,52);stroke:rgb(17,23,23);stroke-width:4.59px;"/>
            </g>
            <g transform="matrix(2.00852,0,0,4.02213,-1370.89,-2181.74)">
                <path d="M2277.48,840.094C2277.48,837.006 2272.46,834.498 2266.28,834.498L1281.61,834.498C1275.42,834.498 1270.4,837.006 1270.4,840.094L1270.4,1141.59C1270.4,1144.67 1275.42,1147.18 1281.61,1147.18L2266.28,1147.18C2272.46,1147.18 2277.48,1144.67 2277.48,1141.59L2277.48,840.094Z" style="fill:rgb(47,51,52);stroke:rgb(17,23,23);stroke-width:1.44px;"/>
            </g>
        </g>
        <g transform="matrix(0.955208,0,0,0.982542,75.3682,24.6872)">
            <path d="M3107.64,491.151C3107.64,474.696 3093.9,461.337 3076.97,461.337L1397.65,461.337C1380.73,461.337 1366.98,474.696 1366.98,491.151L1366.98,729.255C1366.98,745.71 1380.73,759.069 1397.65,759.069L3076.97,759.069C3093.9,759.069 3107.64,745.71 3107.64,729.255L3107.64,491.151Z" style="fill:rgb(47,51,52);stroke:rgb(17,23,23);stroke-width:5.45px;"/>
        </g>
        <g transform="matrix(0.175311,0,0,0.961474,2841.09,34.4067)">
            <path d="M3107.64,491.151C3107.64,474.696 3039.89,461.337 2956.45,461.337L1518.17,461.337C1434.73,461.337 1366.98,474.696 1366.98,491.151L1366.98,729.255C1366.98,745.71 1451.08,755.795 1518.17,759.069C2025.5,783.827 2500.94,780.294 2956.45,759.069C3051.54,754.639 3107.64,745.71 3107.64,729.255L3107.64,491.151Z" style="fill:rgb(47,51,52);stroke:rgb(17,23,23);stroke-width:7.64px;"/>
        </g>
        <g transform="matrix(0.499413,0,0,0.499413,1528.76,252.362)">
            <g transform="matrix(141.5,0,0,141.5,3492.93,662.991)">
            </g>
            <text x="3170.62px" y="662.991px" style="font-family:'ArialMT', 'Arial', sans-serif;font-size:141.5px;fill:white;">AltGr</text>
        </g>
        <g transform="matrix(0.175311,0,0,0.961474,3179.44,34.4067)">
            <path d="M3107.64,491.151C3107.64,474.696 3039.89,461.337 2956.45,461.337L1518.17,461.337C1434.73,461.337 1366.98,474.696 1366.98,491.151L1366.98,729.255C1366.98,745.71 1451.08,755.795 1518.17,759.069C2025.5,783.827 2500.94,780.294 2956.45,759.069C3051.54,754.639 3107.64,745.71 3107.64,729.255L3107.64,491.151Z" style="fill:rgb(47,51,52);stroke:rgb(17,23,23);stroke-width:7.64px;"/>
        </g>
        <g transform="matrix(0.175311,0,0,0.961474,3513.92,34.4067)">
            <path d="M3107.64,491.151C3107.64,474.696 3039.89,461.337 2956.45,461.337L1518.17,461.337C1434.73,461.337 1366.98,474.696 1366.98,491.151L1366.98,729.255C1366.98,745.71 1451.08,755.795 1518.17,759.069C2025.5,783.827 2500.94,780.294 2956.45,759.069C3051.54,754.639 3107.64,745.71 3107.64,729.255L3107.64,491.151Z" style="fill:rgb(47,51,52);stroke:rgb(17,23,23);stroke-width:7.64px;"/>
        </g>
        <g transform="matrix(1,0,0,1,-100.49,-5.7484)">
            <path d="M4478.11,507.939C4478.11,494.619 4467.29,483.804 4453.97,483.804L4221.15,483.804C4207.82,483.804 4197.01,494.619 4197.01,507.939L4197.01,644.296C4197.01,657.616 4207.82,668.431 4221.15,668.431L4453.97,668.431C4467.29,668.431 4478.11,657.616 4478.11,644.296L4478.11,507.939Z" style="fill:rgb(47,51,52);stroke:rgb(17,23,23);stroke-width:5.28px;"/>
        </g>
        <g transform="matrix(1,0,0,1,-101.342,208.007)">
            <path d="M4478.11,507.939C4478.11,494.619 4467.29,483.804 4453.97,483.804L4221.15,483.804C4207.82,483.804 4197.01,494.619 4197.01,507.939L4197.01,644.296C4197.01,657.616 4207.82,668.431 4221.15,668.431L4453.97,668.431C4467.29,668.431 4478.11,657.616 4478.11,644.296L4478.11,507.939Z" style="fill:rgb(47,51,52);stroke:rgb(17,23,23);stroke-width:5.28px;"/>
        </g>
        <g transform="matrix(1,0,0,1,205.558,-5.7484)">
            <path d="M4478.11,507.939C4478.11,494.619 4467.29,483.804 4453.97,483.804L4221.15,483.804C4207.82,483.804 4197.01,494.619 4197.01,507.939L4197.01,644.296C4197.01,657.616 4207.82,668.431 4221.15,668.431L4453.97,668.431C4467.29,668.431 4478.11,657.616 4478.11,644.296L4478.11,507.939Z" style="fill:rgb(47,51,52);stroke:rgb(17,23,23);stroke-width:5.28px;"/>
        </g>
        <g transform="matrix(1,0,0,1,204.707,208.007)">
            <path d="M4478.11,507.939C4478.11,494.619 4467.29,483.804 4453.97,483.804L4221.15,483.804C4207.82,483.804 4197.01,494.619 4197.01,507.939L4197.01,644.296C4197.01,657.616 4207.82,668.431 4221.15,668.431L4453.97,668.431C4467.29,668.431 4478.11,657.616 4478.11,644.296L4478.11,507.939Z" style="fill:rgb(47,51,52);stroke:rgb(17,23,23);stroke-width:5.28px;"/>
        </g>
        <g transform="matrix(0.217304,0,0,0.961474,-9.97162,34.4067)">
            <path d="M3107.64,491.151C3107.64,474.696 3039.89,461.337 2956.45,461.337L1518.17,461.337C1434.73,461.337 1366.98,474.696 1366.98,491.151L1366.98,729.255C1366.98,745.71 1451.08,755.795 1518.17,759.069C2025.5,783.827 2500.94,780.294 2956.45,759.069C3051.54,754.639 3107.64,745.71 3107.64,729.255L3107.64,491.151Z" style="fill:rgb(47,51,52);stroke:rgb(17,23,23);stroke-width:7.58px;"/>
        </g>
        <g transform="matrix(0.408312,0,0,0.961474,-601.018,-302.153)">
            <path d="M3107.64,491.151C3107.64,474.696 3103.29,461.891 3044.62,461.337L1464.29,461.337C1380.85,461.337 1366.98,474.696 1366.98,491.151L1366.98,729.255C1366.98,745.71 1422.37,758.918 1489.53,760.421C1941.71,770.541 2487.55,765.712 2993.99,758.007C3089.17,756.558 3107.64,745.71 3107.64,729.255L3107.64,491.151Z" style="fill:rgb(47,51,52);stroke:rgb(17,23,23);stroke-width:7.15px;"/>
        </g>
        <g transform="matrix(0.408312,0,0,0.961474,3537.47,-305.229)">
            <path d="M3107.64,491.151C3107.64,474.696 3103.29,461.891 3044.62,461.337L1464.29,461.337C1380.85,461.337 1366.98,474.696 1366.98,491.151L1366.98,729.255C1366.98,745.71 1422.37,758.918 1489.53,760.421C1941.71,770.541 2487.55,765.712 2993.99,758.007C3089.17,756.558 3107.64,745.71 3107.64,729.255L3107.64,491.151Z" style="fill:rgb(47,51,52);stroke:rgb(17,23,23);stroke-width:7.15px;"/>
        </g>
        <g transform="matrix(0.408312,0,0,0.961474,3689.75,-635.17)">
            <path d="M3107.64,491.151C3107.64,474.696 3103.29,461.891 3044.62,461.337L1464.29,461.337C1380.85,461.337 1366.98,474.696 1366.98,491.151L1366.98,729.255C1366.98,745.71 1422.37,758.918 1489.53,760.421C1941.71,770.541 2487.55,765.712 2993.99,758.007C3089.17,756.558 3107.64,745.71 3107.64,729.255L3107.64,491.151Z" style="fill:rgb(47,51,52);stroke:rgb(17,23,23);stroke-width:7.15px;"/>
        </g>
        <g transform="matrix(0.408312,0,0,0.961474,-778.678,-632.094)">
            <path d="M3107.64,491.151C3107.64,474.696 3103.29,461.891 3044.62,461.337L1464.29,461.337C1380.85,461.337 1366.98,474.696 1366.98,491.151L1366.98,729.255C1366.98,745.71 1422.37,758.918 1489.53,760.421C1941.71,770.541 2487.55,765.712 2993.99,758.007C3089.17,756.558 3107.64,745.71 3107.64,729.255L3107.64,491.151Z" style="fill:rgb(47,51,52);stroke:rgb(17,23,23);stroke-width:7.15px;"/>
        </g>
        <g transform="matrix(0.175311,0,0,0.961474,455.002,34.4067)">
            <path d="M3107.64,491.151C3107.64,474.696 3039.89,461.337 2956.45,461.337L1518.17,461.337C1434.73,461.337 1366.98,474.696 1366.98,491.151L1366.98,729.255C1366.98,745.71 1451.08,755.795 1518.17,759.069C2025.5,783.827 2500.94,780.294 2956.45,759.069C3051.54,754.639 3107.64,745.71 3107.64,729.255L3107.64,491.151Z" style="fill:rgb(47,51,52);stroke:rgb(17,23,23);stroke-width:7.64px;"/>
        </g>
        <g transform="matrix(0.175311,0,0,0.961474,-296.249,32.3763)">
            <path d="M3107.64,491.151C3107.64,474.696 3039.89,461.337 2956.45,461.337L1518.17,461.337C1434.73,461.337 1366.98,474.696 1366.98,491.151L1366.98,729.255C1366.98,745.71 1451.08,755.795 1518.17,759.069C2025.5,783.827 2500.94,780.294 2956.45,759.069C3051.54,754.639 3107.64,745.71 3107.64,729.255L3107.64,491.151Z" style="fill:rgb(47,51,52);stroke:rgb(17,23,23);stroke-width:7.64px;"/>
        </g>
        <g transform="matrix(0.175311,0,0,0.961474,794.982,34.4067)">
            <path d="M3107.64,491.151C3107.64,474.696 3039.89,461.337 2956.45,461.337L1518.17,461.337C1434.73,461.337 1366.98,474.696 1366.98,491.151L1366.98,729.255C1366.98,745.71 1451.08,755.795 1518.17,759.069C2025.5,783.827 2500.94,780.294 2956.45,759.069C3051.54,754.639 3107.64,745.71 3107.64,729.255L3107.64,491.151Z" style="fill:rgb(47,51,52);stroke:rgb(17,23,23);stroke-width:7.64px;"/>
        </g>
        <g transform="matrix(0.175311,0,0,0.961474,461.021,-302.153)">
            <path d="M3107.64,491.151C3107.64,474.696 3039.89,461.337 2956.45,461.337L1518.17,461.337C1434.73,461.337 1366.98,474.696 1366.98,491.151L1366.98,729.255C1366.98,745.71 1451.08,755.795 1518.17,759.069C2025.5,783.827 2500.94,780.294 2956.45,759.069C3051.54,754.639 3107.64,745.71 3107.64,729.255L3107.64,491.151Z" style="fill:rgb(47,51,52);stroke:rgb(17,23,23);stroke-width:7.64px;"/>
        </g>
        <g transform="matrix(0.175311,0,0,0.961474,800.119,-302.153)">
            <path d="M3107.64,491.151C3107.64,474.696 3039.89,461.337 2956.45,461.337L1518.17,461.337C1434.73,461.337 1366.98,474.696 1366.98,491.151L1366.98,729.255C1366.98,745.71 1451.08,755.795 1518.17,759.069C2025.5,783.827 2500.94,780.294 2956.45,759.069C3051.54,754.639 3107.64,745.71 3107.64,729.255L3107.64,491.151Z" style="fill:rgb(47,51,52);stroke:rgb(17,23,23);stroke-width:7.64px;"/>
        </g>
        <g transform="matrix(0.175311,0,0,0.961474,1139.22,-302.153)">
            <path d="M3107.64,491.151C3107.64,474.696 3039.89,461.337 2956.45,461.337L1518.17,461.337C1434.73,461.337 1366.98,474.696 1366.98,491.151L1366.98,729.255C1366.98,745.71 1451.08,755.795 1518.17,759.069C2025.5,783.827 2500.94,780.294 2956.45,759.069C3051.54,754.639 3107.64,745.71 3107.64,729.255L3107.64,491.151Z" style="fill:rgb(47,51,52);stroke:rgb(17,23,23);stroke-width:7.64px;"/>
        </g>
        <g transform="matrix(0.175311,0,0,0.961474,1478.31,-302.153)">
            <path d="M3107.64,491.151C3107.64,474.696 3039.89,461.337 2956.45,461.337L1518.17,461.337C1434.73,461.337 1366.98,474.696 1366.98,491.151L1366.98,729.255C1366.98,745.71 1451.08,755.795 1518.17,759.069C2025.5,783.827 2500.94,780.294 2956.45,759.069C3051.54,754.639 3107.64,745.71 3107.64,729.255L3107.64,491.151Z" style="fill:rgb(47,51,52);stroke:rgb(17,23,23);stroke-width:7.64px;"/>
        </g>
        <g transform="matrix(0.175311,0,0,0.961474,1817.41,-302.153)">
            <path d="M3107.64,491.151C3107.64,474.696 3039.89,461.337 2956.45,461.337L1518.17,461.337C1434.73,461.337 1366.98,474.696 1366.98,491.151L1366.98,729.255C1366.98,745.71 1451.08,755.795 1518.17,759.069C2025.5,783.827 2500.94,780.294 2956.45,759.069C3051.54,754.639 3107.64,745.71 3107.64,729.255L3107.64,491.151Z" style="fill:rgb(47,51,52);stroke:rgb(17,23,23);stroke-width:7.64px;"/>
        </g>
        <g transform="matrix(0.175311,0,0,0.961474,2156.51,-302.153)">
            <path d="M3107.64,491.151C3107.64,474.696 3039.89,461.337 2956.45,461.337L1518.17,461.337C1434.73,461.337 1366.98,474.696 1366.98,491.151L1366.98,729.255C1366.98,745.71 1451.08,755.795 1518.17,759.069C2025.5,783.827 2500.94,780.294 2956.45,759.069C3051.54,754.639 3107.64,745.71 3107.64,729.255L3107.64,491.151Z" style="fill:rgb(47,51,52);stroke:rgb(17,23,23);stroke-width:7.64px;"/>
        </g>
        <g transform="matrix(0.175311,0,0,0.961474,2495.61,-302.153)">
            <path d="M3107.64,491.151C3107.64,474.696 3039.89,461.337 2956.45,461.337L1518.17,461.337C1434.73,461.337 1366.98,474.696 1366.98,491.151L1366.98,729.255C1366.98,745.71 1451.08,755.795 1518.17,759.069C2025.5,783.827 2500.94,780.294 2956.45,759.069C3051.54,754.639 3107.64,745.71 3107.64,729.255L3107.64,491.151Z" style="fill:rgb(47,51,52);stroke:rgb(17,23,23);stroke-width:7.64px;"/>
        </g>
        <g transform="matrix(0.175311,0,0,0.961474,2834.71,-302.153)">
            <path d="M3107.64,491.151C3107.64,474.696 3039.89,461.337 2956.45,461.337L1518.17,461.337C1434.73,461.337 1366.98,474.696 1366.98,491.151L1366.98,729.255C1366.98,745.71 1451.08,755.795 1518.17,759.069C2025.5,783.827 2500.94,780.294 2956.45,759.069C3051.54,754.639 3107.64,745.71 3107.64,729.255L3107.64,491.151Z" style="fill:rgb(47,51,52);stroke:rgb(17,23,23);stroke-width:7.64px;"/>
        </g>
        <g transform="matrix(0.175311,0,0,0.961474,3173.8,-302.153)">
            <path d="M3107.64,491.151C3107.64,474.696 3039.89,461.337 2956.45,461.337L1518.17,461.337C1434.73,461.337 1366.98,474.696 1366.98,491.151L1366.98,729.255C1366.98,745.71 1451.08,755.795 1518.17,759.069C2025.5,783.827 2500.94,780.294 2956.45,759.069C3051.54,754.639 3107.64,745.71 3107.64,729.255L3107.64,491.151Z" style="fill:rgb(47,51,52);stroke:rgb(17,23,23);stroke-width:7.64px;"/>
        </g>
        <g transform="matrix(0.175311,0,0,0.961474,3512.9,-302.153)">
            <path d="M3107.64,491.151C3107.64,474.696 3039.89,461.337 2956.45,461.337L1518.17,461.337C1434.73,461.337 1366.98,474.696 1366.98,491.151L1366.98,729.255C1366.98,745.71 1451.08,755.795 1518.17,759.069C2025.5,783.827 2500.94,780.294 2956.45,759.069C3051.54,754.639 3107.64,745.71 3107.64,729.255L3107.64,491.151Z" style="fill:rgb(47,51,52);stroke:rgb(17,23,23);stroke-width:7.64px;"/>
        </g>
        <g transform="matrix(0.175311,0,0,0.961474,280.188,-641.877)">
            <path d="M3107.64,491.151C3107.64,474.696 3039.89,461.337 2956.45,461.337L1518.17,461.337C1434.73,461.337 1366.98,474.696 1366.98,491.151L1366.98,729.255C1366.98,745.71 1451.08,755.795 1518.17,759.069C2025.5,783.827 2500.94,780.294 2956.45,759.069C3051.54,754.639 3107.64,745.71 3107.64,729.255L3107.64,491.151Z" style="fill:rgb(47,51,52);stroke:rgb(17,23,23);stroke-width:7.64px;"/>
        </g>
        <g transform="matrix(0.175311,0,0,0.961474,619.286,-641.877)">
            <path d="M3107.64,491.151C3107.64,474.696 3039.89,461.337 2956.45,461.337L1518.17,461.337C1434.73,461.337 1366.98,474.696 1366.98,491.151L1366.98,729.255C1366.98,745.71 1451.08,755.795 1518.17,759.069C2025.5,783.827 2500.94,780.294 2956.45,759.069C3051.54,754.639 3107.64,745.71 3107.64,729.255L3107.64,491.151Z" style="fill:rgb(47,51,52);stroke:rgb(17,23,23);stroke-width:7.64px;"/>
        </g>
        <g transform="matrix(0.175311,0,0,0.961474,958.384,-641.877)">
            <path d="M3107.64,491.151C3107.64,474.696 3039.89,461.337 2956.45,461.337L1518.17,461.337C1434.73,461.337 1366.98,474.696 1366.98,491.151L1366.98,729.255C1366.98,745.71 1451.08,755.795 1518.17,759.069C2025.5,783.827 2500.94,780.294 2956.45,759.069C3051.54,754.639 3107.64,745.71 3107.64,729.255L3107.64,491.151Z" style="fill:rgb(47,51,52);stroke:rgb(17,23,23);stroke-width:7.64px;"/>
        </g>
        <g transform="matrix(0.175311,0,0,0.961474,1297.48,-641.877)">
            <path d="M3107.64,491.151C3107.64,474.696 3039.89,461.337 2956.45,461.337L1518.17,461.337C1434.73,461.337 1366.98,474.696 1366.98,491.151L1366.98,729.255C1366.98,745.71 1451.08,755.795 1518.17,759.069C2025.5,783.827 2500.94,780.294 2956.45,759.069C3051.54,754.639 3107.64,745.71 3107.64,729.255L3107.64,491.151Z" style="fill:rgb(47,51,52);stroke:rgb(17,23,23);stroke-width:7.64px;"/>
        </g>
        <g transform="matrix(0.175311,0,0,0.961474,1636.58,-641.877)">
            <path d="M3107.64,491.151C3107.64,474.696 3039.89,461.337 2956.45,461.337L1518.17,461.337C1434.73,461.337 1366.98,474.696 1366.98,491.151L1366.98,729.255C1366.98,745.71 1451.08,755.795 1518.17,759.069C2025.5,783.827 2500.94,780.294 2956.45,759.069C3051.54,754.639 3107.64,745.71 3107.64,729.255L3107.64,491.151Z" style="fill:rgb(47,51,52);stroke:rgb(17,23,23);stroke-width:7.64px;"/>
        </g>
        <g transform="matrix(0.175311,0,0,0.961474,1975.68,-641.877)">
            <path d="M3107.64,491.151C3107.64,474.696 3039.89,461.337 2956.45,461.337L1518.17,461.337C1434.73,461.337 1366.98,474.696 1366.98,491.151L1366.98,729.255C1366.98,745.71 1451.08,755.795 1518.17,759.069C2025.5,783.827 2500.94,780.294 2956.45,759.069C3051.54,754.639 3107.64,745.71 3107.64,729.255L3107.64,491.151Z" style="fill:rgb(47,51,52);stroke:rgb(17,23,23);stroke-width:7.64px;"/>
        </g>
        <g transform="matrix(0.175311,0,0,0.961474,2314.78,-641.877)">
            <path d="M3107.64,491.151C3107.64,474.696 3039.89,461.337 2956.45,461.337L1518.17,461.337C1434.73,461.337 1366.98,474.696 1366.98,491.151L1366.98,729.255C1366.98,745.71 1451.08,755.795 1518.17,759.069C2025.5,783.827 2500.94,780.294 2956.45,759.069C3051.54,754.639 3107.64,745.71 3107.64,729.255L3107.64,491.151Z" style="fill:rgb(47,51,52);stroke:rgb(17,23,23);stroke-width:7.64px;"/>
        </g>
        <g transform="matrix(0.175311,0,0,0.961474,2653.87,-641.877)">
            <path d="M3107.64,491.151C3107.64,474.696 3039.89,461.337 2956.45,461.337L1518.17,461.337C1434.73,461.337 1366.98,474.696 1366.98,491.151L1366.98,729.255C1366.98,745.71 1451.08,755.795 1518.17,759.069C2025.5,783.827 2500.94,780.294 2956.45,759.069C3051.54,754.639 3107.64,745.71 3107.64,729.255L3107.64,491.151Z" style="fill:rgb(47,51,52);stroke:rgb(17,23,23);stroke-width:7.64px;"/>
        </g>
        <g transform="matrix(0.175311,0,0,0.961474,2992.97,-641.877)">
            <path d="M3107.64,491.151C3107.64,474.696 3039.89,461.337 2956.45,461.337L1518.17,461.337C1434.73,461.337 1366.98,474.696 1366.98,491.151L1366.98,729.255C1366.98,745.71 1451.08,755.795 1518.17,759.069C2025.5,783.827 2500.94,780.294 2956.45,759.069C3051.54,754.639 3107.64,745.71 3107.64,729.255L3107.64,491.151Z" style="fill:rgb(47,51,52);stroke:rgb(17,23,23);stroke-width:7.64px;"/>
        </g>
        <g transform="matrix(0.175311,0,0,0.961474,3332.07,-641.877)">
            <path d="M3107.64,491.151C3107.64,474.696 3039.89,461.337 2956.45,461.337L1518.17,461.337C1434.73,461.337 1366.98,474.696 1366.98,491.151L1366.98,729.255C1366.98,745.71 1451.08,755.795 1518.17,759.069C2025.5,783.827 2500.94,780.294 2956.45,759.069C3051.54,754.639 3107.64,745.71 3107.64,729.255L3107.64,491.151Z" style="fill:rgb(47,51,52);stroke:rgb(17,23,23);stroke-width:7.64px;"/>
        </g>
        <g transform="matrix(0.175311,0,0,0.961474,3671.17,-641.877)">
            <path d="M3107.64,491.151C3107.64,474.696 3039.89,461.337 2956.45,461.337L1518.17,461.337C1434.73,461.337 1366.98,474.696 1366.98,491.151L1366.98,729.255C1366.98,745.71 1451.08,755.795 1518.17,759.069C2025.5,783.827 2500.94,780.294 2956.45,759.069C3051.54,754.639 3107.64,745.71 3107.64,729.255L3107.64,491.151Z" style="fill:rgb(47,51,52);stroke:rgb(17,23,23);stroke-width:7.64px;"/>
        </g>
        <g transform="matrix(1,0,0,1,16.2431,-35.6928)">
            <g transform="matrix(70,0,0,70,445.552,634.675)">
            </g>
            <text x="336.69px" y="634.675px" style="font-family:'ArialMT', 'Arial', sans-serif;font-size:70px;fill:white;">Ctrl</text>
        </g>
        <g transform="matrix(1.33748,0,0,1.33748,302.977,-588.293)">
            <g transform="matrix(70,0,0,70,379.449,634.675)">
            </g>
            <text x="336.69px" y="634.675px" style="font-family:'ArialMT', 'Arial', sans-serif;font-size:70px;fill:white;">Z</text>
        </g>
        <g transform="matrix(1.33748,0,0,1.33748,623.781,-588.293)">
            <g transform="matrix(70,0,0,70,383.379,634.675)">
            </g>
            <text x="336.69px" y="634.675px" style="font-family:'ArialMT', 'Arial', sans-serif;font-size:70px;fill:white;">X</text>
        </g>
        <g transform="matrix(1.33748,0,0,1.33748,962.859,-587.15)">
            <g transform="matrix(70,0,0,70,387.242,634.675)">
            </g>
            <text x="336.69px" y="634.675px" style="font-family:'ArialMT', 'Arial', sans-serif;font-size:70px;fill:white;">C</text>
        </g>
        <g transform="matrix(1.33748,0,0,1.33748,1295.84,-588.293)">
            <g transform="matrix(70,0,0,70,383.379,634.675)">
            </g>
            <text x="336.69px" y="634.675px" style="font-family:'ArialMT', 'Arial', sans-serif;font-size:70px;fill:white;">V</text>
        </g>
        <g transform="matrix(1.33748,0,0,1.33748,1636.95,-588.293)">
            <g transform="matrix(70,0,0,70,383.379,634.675)">
            </g>
            <text x="336.69px" y="634.675px" style="font-family:'ArialMT', 'Arial', sans-serif;font-size:70px;fill:white;">B</text>
        </g>
        <g transform="matrix(1.33748,0,0,1.33748,1969.94,-588.293)">
            <g transform="matrix(70,0,0,70,387.242,634.675)">
            </g>
            <text x="336.69px" y="634.675px" style="font-family:'ArialMT', 'Arial', sans-serif;font-size:70px;fill:white;">N</text>
        </g>
        <g transform="matrix(1.33748,0,0,1.33748,2311.05,-588.293)">
            <g transform="matrix(70,0,0,70,395,634.675)">
            </g>
            <text x="336.69px" y="634.675px" style="font-family:'ArialMT', 'Arial', sans-serif;font-size:70px;fill:white;">M</text>
        </g>
        <g transform="matrix(1.33748,0,0,1.33748,2658.25,-606.762)">
            <g transform="matrix(70,0,0,70,356.138,634.675)">
            </g>
            <text x="336.69px" y="634.675px" style="font-family:'ArialMT', 'Arial', sans-serif;font-size:70px;fill:white;">;</text>
        </g>
        <g transform="matrix(1.33748,0,0,1.33748,2981.76,-606.762)">
            <g transform="matrix(70,0,0,70,356.138,634.675)">
            </g>
            <text x="336.69px" y="634.675px" style="font-family:'ArialMT', 'Arial', sans-serif;font-size:70px;fill:white;">:</text>
        </g>
        <g transform="matrix(1.33748,0,0,1.33748,3336.41,-602.922)">
            <g transform="matrix(70,0,0,70,360,634.675)">
            </g>
            <text x="336.69px" y="634.675px" style="font-family:'ArialMT', 'Arial', sans-serif;font-size:70px;fill:white;">-</text>
        </g>
        <g transform="matrix(1,0,0,1,-356.312,-390.159)">
            <g transform="matrix(70,0,0,70,476.758,634.675)">
            </g>
            <text x="336.69px" y="634.675px" style="font-family:'ArialMT', 'Arial', sans-serif;font-size:70px;fill:white;">Shift</text>
        </g>
        <g transform="matrix(1,0,0,1,3795.86,-390.159)">
            <g transform="matrix(70,0,0,70,476.758,634.675)">
            </g>
            <text x="336.69px" y="634.675px" style="font-family:'ArialMT', 'Arial', sans-serif;font-size:70px;fill:white;">Shift</text>
        </g>
        <g transform="matrix(1,0,0,1,3791.07,-71.0875)">
            <g transform="matrix(70,0,0,70,511.792,634.675)">
            </g>
            <text x="336.69px" y="634.675px" style="font-family:'ArialMT', 'Arial', sans-serif;font-size:70px;fill:white;">PgUp</text>
        </g>
        <g transform="matrix(1,0,0,1,4186.11,-74.9858)">
            <g transform="matrix(70,0,0,70,371.69,634.675)">
            </g>
            <text x="336.69px" y="634.675px" style="font-family:'ArialMT', 'Arial', sans-serif;font-size:70px;fill:white;">↑</text>
        </g>
        <g transform="matrix(-1,1.22465e-16,-1.22465e-16,-1,4895.8,1404.69)">
            <g transform="matrix(70,0,0,70,371.69,634.675)">
            </g>
            <text x="336.69px" y="634.675px" style="font-family:'ArialMT', 'Arial', sans-serif;font-size:70px;fill:white;">↑</text>
        </g>
        <g transform="matrix(6.12323e-17,-1,1,6.12323e-17,3613.76,1139.78)">
            <g transform="matrix(70,0,0,70,371.69,634.675)">
            </g>
            <text x="336.69px" y="634.675px" style="font-family:'ArialMT', 'Arial', sans-serif;font-size:70px;fill:white;">↑</text>
        </g>
        <g transform="matrix(1,0,0,1,726.885,-36.5473)">
            <g transform="matrix(70,0,0,70,418.379,634.675)">
            </g>
            <text x="336.69px" y="634.675px" style="font-family:'ArialMT', 'Arial', sans-serif;font-size:70px;fill:white;">Alt</text>
        </g>
        <g transform="matrix(1,0,0,1,-342.078,-36.5473)">
            <g transform="matrix(70,0,0,70,418.379,634.675)">
            </g>
            <text x="336.69px" y="634.675px" style="font-family:'ArialMT', 'Arial', sans-serif;font-size:70px;fill:white;">Fn</text>
        </g>
        <g transform="matrix(0.589191,0,0,0.572022,353.109,210.776)">
            <path d="M911.297,558.159L781.29,587.54L782.567,666.723L912.149,699.936L911.297,558.159Z" style="fill:white;"/>
        </g>
        <g transform="matrix(0.499413,0,0,0.499413,1861.42,249.763)">
            <g transform="matrix(141.5,0,0,141.5,3516.56,662.991)">
            </g>
            <text x="3170.62px" y="662.991px" style="font-family:'ArialMT', 'Arial', sans-serif;font-size:141.5px;fill:white;">PrtSc</text>
        </g>
        <g transform="matrix(0.499413,0,0,0.499413,2205.77,247.164)">
            <g transform="matrix(141.5,0,0,141.5,3390.68,662.991)">
            </g>
            <text x="3170.62px" y="662.991px" style="font-family:'ArialMT', 'Arial', sans-serif;font-size:141.5px;fill:white;">Ctrl</text>
        </g>
    </g>
    <g transform="matrix(1,0,0,1,22.9053,7.63509)">
        <path d="M650.33,133.389C617.018,135.875 579.938,133.409 547.662,142.962C512.953,153.234 455.823,183.305 473.737,228.215C476.008,233.909 479.393,239.205 483.292,243.92C488.525,250.25 494.968,255.436 502.16,259.383C516.206,267.091 532.594,270.615 548.161,273.842C591.011,282.724 636.953,281.696 679.471,270.811C692.028,267.596 705.739,264.066 715.823,255.459C749.707,226.534 709.387,189.599 682.377,176.805C661.005,166.681 638.267,163.725 615.423,158.66C563.889,147.234 508.877,137.537 455.91,144.005" style="fill:none;stroke:rgb(255,2,0);stroke-width:13.01px;"/>
    </g>
    <defs>
        <linearGradient id="_Linear1" x1="0" y1="0" x2="1" y2="0" gradientUnits="userSpaceOnUse" gradientTransform="matrix(4718.16,0,0,2700.44,-34.8385,1291.05)"><stop offset="0" style="stop-color:rgb(26,27,31);stop-opacity:1"/><stop offset="1" style="stop-color:rgb(82,91,93);stop-opacity:1"/></linearGradient>
    </defs>
</svg>
