<?xml version="1.0" encoding="UTF-8" standalone="no"?>
<!DOCTYPE svg PUBLIC "-//W3C//DTD SVG 1.1//EN" "http://www.w3.org/Graphics/SVG/1.1/DTD/svg11.dtd">
<svg viewBox="0 0 512 512" version="1.1" xmlns="http://www.w3.org/2000/svg" style="fill-rule:evenodd;clip-rule:evenodd;stroke-linecap:round;stroke-linejoin:round;stroke-miterlimit:1.5;" preserveAspectRatio="xMaxYMin slice">
    <g transform="matrix(0.472947,0,0,0.149488,80.774,6.07527)">
        <rect x="-351.659" y="-43.23" width="1459.35" height="3438.99" style="fill:rgb(215,189,168);"/>
    </g>
    <g id="Laptop" transform="matrix(0.147636,0,0,0.147636,-88.8,1.94308)">
        <g transform="matrix(1,0,0,1,-22.8422,-12.6902)">
            <rect x="-34.838" y="-59.172" width="4718.16" height="2700.44" style="fill:url(#_Linear1);stroke:rgb(17,23,23);stroke-width:5.28px;"/>
        </g>
        <g id="Touchpad" transform="matrix(1,0,0,1,78.6781,-40.6082)">
            <g transform="matrix(2.01327,0,0,5.04206,-1379.04,-3349.81)">
                <path d="M2277.48,840.094C2277.48,837.006 2271.2,834.498 2263.47,834.498L1284.41,834.498C1276.68,834.498 1270.4,837.006 1270.4,840.094L1270.4,1141.59C1270.4,1144.67 1276.68,1147.18 1284.41,1147.18L2263.47,1147.18C2271.2,1147.18 2277.48,1144.67 2277.48,1141.59L2277.48,840.094Z" style="fill:rgb(17,23,23);"/>
            </g>
            <g transform="matrix(1,0,0,1,-88.4134,26.6529)">
                <path d="M2277.48,858.501C2277.48,845.253 2266.73,834.498 2253.48,834.498L1294.4,834.498C1281.15,834.498 1270.4,845.253 1270.4,858.501L1270.4,1123.18C1270.4,1136.43 1281.15,1147.18 1294.4,1147.18L2253.48,1147.18C2266.73,1147.18 2277.48,1136.43 2277.48,1123.18L2277.48,858.501Z" style="fill:rgb(47,51,52);stroke:rgb(17,23,23);stroke-width:4.59px;"/>
            </g>
            <g transform="matrix(1,0,0,1,925.217,27.9021)">
                <path d="M2277.48,858.501C2277.48,845.253 2266.73,834.498 2253.48,834.498L1294.4,834.498C1281.15,834.498 1270.4,845.253 1270.4,858.501L1270.4,1123.18C1270.4,1136.43 1281.15,1147.18 1294.4,1147.18L2253.48,1147.18C2266.73,1147.18 2277.48,1136.43 2277.48,1123.18L2277.48,858.501Z" style="fill:rgb(47,51,52);stroke:rgb(17,23,23);stroke-width:4.59px;"/>
            </g>
            <g transform="matrix(2.00852,0,0,4.02213,-1370.89,-2181.74)">
                <path d="M2277.48,840.094C2277.48,837.006 2272.46,834.498 2266.28,834.498L1281.61,834.498C1275.42,834.498 1270.4,837.006 1270.4,840.094L1270.4,1141.59C1270.4,1144.67 1275.42,1147.18 1281.61,1147.18L2266.28,1147.18C2272.46,1147.18 2277.48,1144.67 2277.48,1141.59L2277.48,840.094Z" style="fill:rgb(47,51,52);stroke:rgb(17,23,23);stroke-width:1.44px;"/>
            </g>
        </g>
        <g transform="matrix(0.955208,0,0,0.982542,75.3682,24.6872)">
            <path d="M3107.64,491.151C3107.64,474.696 3093.9,461.337 3076.97,461.337L1397.65,461.337C1380.73,461.337 1366.98,474.696 1366.98,491.151L1366.98,729.255C1366.98,745.71 1380.73,759.069 1397.65,759.069L3076.97,759.069C3093.9,759.069 3107.64,745.71 3107.64,729.255L3107.64,491.151Z" style="fill:rgb(47,51,52);stroke:rgb(17,23,23);stroke-width:5.45px;"/>
        </g>
        <g transform="matrix(0.175311,0,0,0.961474,2841.09,34.4067)">
            <path d="M3107.64,491.151C3107.64,474.696 3039.89,461.337 2956.45,461.337L1518.17,461.337C1434.73,461.337 1366.98,474.696 1366.98,491.151L1366.98,729.255C1366.98,745.71 1451.08,755.795 1518.17,759.069C2025.5,783.827 2500.94,780.294 2956.45,759.069C3051.54,754.639 3107.64,745.71 3107.64,729.255L3107.64,491.151Z" style="fill:rgb(47,51,52);stroke:rgb(17,23,23);stroke-width:7.64px;"/>
        </g>
        <g transform="matrix(0.499413,0,0,0.499413,1528.76,252.362)">
            <g transform="matrix(141.5,0,0,141.5,3170.62,662.991)">
                <path d="M-0.001,-0L0.273,-0.716L0.375,-0.716L0.668,-0L0.561,-0L0.477,-0.217L0.178,-0.217L0.099,-0L-0.001,-0ZM0.205,-0.294L0.448,-0.294L0.373,-0.492C0.35,-0.552 0.333,-0.602 0.322,-0.641C0.313,-0.595 0.3,-0.549 0.284,-0.504L0.205,-0.294Z" style="fill:white;fill-rule:nonzero;"/>
            </g>
            <g transform="matrix(141.5,0,0,141.5,3265,662.991)">
                <rect x="0.064" y="-0.716" width="0.088" height="0.716" style="fill:white;fill-rule:nonzero;"/>
            </g>
            <g transform="matrix(141.5,0,0,141.5,3296.44,662.991)">
                <path d="M0.258,-0.079L0.271,-0.001C0.246,0.004 0.224,0.007 0.204,0.007C0.172,0.007 0.147,0.002 0.13,-0.008C0.112,-0.018 0.1,-0.032 0.093,-0.048C0.086,-0.065 0.082,-0.099 0.082,-0.152L0.082,-0.45L0.018,-0.45L0.018,-0.519L0.082,-0.519L0.082,-0.647L0.169,-0.7L0.169,-0.519L0.258,-0.519L0.258,-0.45L0.169,-0.45L0.169,-0.147C0.169,-0.122 0.171,-0.106 0.174,-0.099C0.177,-0.091 0.182,-0.086 0.189,-0.082C0.196,-0.077 0.206,-0.075 0.219,-0.075C0.229,-0.075 0.242,-0.076 0.258,-0.079Z" style="fill:white;fill-rule:nonzero;"/>
            </g>
            <g transform="matrix(141.5,0,0,141.5,3335.75,662.991)">
                <path d="M0.412,-0.281L0.412,-0.365L0.715,-0.365L0.715,-0.1C0.669,-0.063 0.621,-0.035 0.571,-0.016C0.522,0.003 0.471,0.012 0.419,0.012C0.349,0.012 0.285,-0.003 0.227,-0.033C0.17,-0.063 0.126,-0.107 0.097,-0.164C0.068,-0.221 0.053,-0.284 0.053,-0.354C0.053,-0.424 0.068,-0.489 0.097,-0.55C0.126,-0.61 0.168,-0.655 0.223,-0.684C0.277,-0.713 0.34,-0.728 0.412,-0.728C0.463,-0.728 0.51,-0.72 0.552,-0.703C0.594,-0.686 0.627,-0.663 0.65,-0.633C0.674,-0.603 0.692,-0.564 0.705,-0.516L0.619,-0.492C0.608,-0.529 0.595,-0.557 0.579,-0.578C0.563,-0.599 0.54,-0.616 0.511,-0.628C0.481,-0.641 0.448,-0.647 0.412,-0.647C0.369,-0.647 0.331,-0.64 0.3,-0.627C0.268,-0.614 0.243,-0.597 0.223,-0.575C0.204,-0.554 0.189,-0.53 0.178,-0.504C0.16,-0.46 0.151,-0.412 0.151,-0.36C0.151,-0.297 0.162,-0.243 0.184,-0.2C0.206,-0.157 0.238,-0.125 0.28,-0.104C0.322,-0.084 0.366,-0.073 0.414,-0.073C0.455,-0.073 0.495,-0.081 0.534,-0.097C0.573,-0.113 0.602,-0.13 0.623,-0.147L0.623,-0.281L0.412,-0.281Z" style="fill:white;fill-rule:nonzero;"/>
            </g>
            <g transform="matrix(141.5,0,0,141.5,3445.81,662.991)">
                <path d="M0.065,-0L0.065,-0.519L0.144,-0.519L0.144,-0.44C0.164,-0.477 0.183,-0.501 0.2,-0.513C0.217,-0.524 0.236,-0.53 0.256,-0.53C0.286,-0.53 0.316,-0.521 0.347,-0.502L0.316,-0.42C0.295,-0.433 0.273,-0.439 0.252,-0.439C0.233,-0.439 0.215,-0.434 0.2,-0.422C0.185,-0.411 0.174,-0.395 0.167,-0.374C0.158,-0.343 0.153,-0.309 0.153,-0.271L0.153,-0L0.065,-0Z" style="fill:white;fill-rule:nonzero;"/>
            </g>
        </g>
        <g transform="matrix(0.175311,0,0,0.961474,3179.44,34.4067)">
            <path d="M3107.64,491.151C3107.64,474.696 3039.89,461.337 2956.45,461.337L1518.17,461.337C1434.73,461.337 1366.98,474.696 1366.98,491.151L1366.98,729.255C1366.98,745.71 1451.08,755.795 1518.17,759.069C2025.5,783.827 2500.94,780.294 2956.45,759.069C3051.54,754.639 3107.64,745.71 3107.64,729.255L3107.64,491.151Z" style="fill:rgb(47,51,52);stroke:rgb(17,23,23);stroke-width:7.64px;"/>
        </g>
        <g transform="matrix(0.175311,0,0,0.961474,3513.92,34.4067)">
            <path d="M3107.64,491.151C3107.64,474.696 3039.89,461.337 2956.45,461.337L1518.17,461.337C1434.73,461.337 1366.98,474.696 1366.98,491.151L1366.98,729.255C1366.98,745.71 1451.08,755.795 1518.17,759.069C2025.5,783.827 2500.94,780.294 2956.45,759.069C3051.54,754.639 3107.64,745.71 3107.64,729.255L3107.64,491.151Z" style="fill:rgb(47,51,52);stroke:rgb(17,23,23);stroke-width:7.64px;"/>
        </g>
        <g transform="matrix(0.217304,0,0,0.961474,-9.97162,34.4067)">
            <path d="M3107.64,491.151C3107.64,474.696 3039.89,461.337 2956.45,461.337L1518.17,461.337C1434.73,461.337 1366.98,474.696 1366.98,491.151L1366.98,729.255C1366.98,745.71 1451.08,755.795 1518.17,759.069C2025.5,783.827 2500.94,780.294 2956.45,759.069C3051.54,754.639 3107.64,745.71 3107.64,729.255L3107.64,491.151Z" style="fill:rgb(47,51,52);stroke:rgb(17,23,23);stroke-width:7.58px;"/>
        </g>
        <g transform="matrix(0.408312,0,0,0.961474,-601.018,-302.153)">
            <path d="M3107.64,491.151C3107.64,474.696 3103.29,461.891 3044.62,461.337L1464.29,461.337C1380.85,461.337 1366.98,474.696 1366.98,491.151L1366.98,729.255C1366.98,745.71 1422.37,758.918 1489.53,760.421C1941.71,770.541 2487.55,765.712 2993.99,758.007C3089.17,756.558 3107.64,745.71 3107.64,729.255L3107.64,491.151Z" style="fill:rgb(47,51,52);stroke:rgb(17,23,23);stroke-width:7.15px;"/>
        </g>
        <g transform="matrix(0.175311,0,0,0.961474,455.002,34.4067)">
            <path d="M3107.64,491.151C3107.64,474.696 3039.89,461.337 2956.45,461.337L1518.17,461.337C1434.73,461.337 1366.98,474.696 1366.98,491.151L1366.98,729.255C1366.98,745.71 1451.08,755.795 1518.17,759.069C2025.5,783.827 2500.94,780.294 2956.45,759.069C3051.54,754.639 3107.64,745.71 3107.64,729.255L3107.64,491.151Z" style="fill:rgb(47,51,52);stroke:rgb(17,23,23);stroke-width:7.64px;"/>
        </g>
        <g transform="matrix(0.175311,0,0,0.961474,794.982,34.4067)">
            <path d="M3107.64,491.151C3107.64,474.696 3039.89,461.337 2956.45,461.337L1518.17,461.337C1434.73,461.337 1366.98,474.696 1366.98,491.151L1366.98,729.255C1366.98,745.71 1451.08,755.795 1518.17,759.069C2025.5,783.827 2500.94,780.294 2956.45,759.069C3051.54,754.639 3107.64,745.71 3107.64,729.255L3107.64,491.151Z" style="fill:rgb(47,51,52);stroke:rgb(17,23,23);stroke-width:7.64px;"/>
        </g>
        <g transform="matrix(0.175311,0,0,0.961474,461.021,-302.153)">
            <path d="M3107.64,491.151C3107.64,474.696 3039.89,461.337 2956.45,461.337L1518.17,461.337C1434.73,461.337 1366.98,474.696 1366.98,491.151L1366.98,729.255C1366.98,745.71 1451.08,755.795 1518.17,759.069C2025.5,783.827 2500.94,780.294 2956.45,759.069C3051.54,754.639 3107.64,745.71 3107.64,729.255L3107.64,491.151Z" style="fill:rgb(47,51,52);stroke:rgb(17,23,23);stroke-width:7.64px;"/>
        </g>
        <g transform="matrix(0.175311,0,0,0.961474,800.119,-302.153)">
            <path d="M3107.64,491.151C3107.64,474.696 3039.89,461.337 2956.45,461.337L1518.17,461.337C1434.73,461.337 1366.98,474.696 1366.98,491.151L1366.98,729.255C1366.98,745.71 1451.08,755.795 1518.17,759.069C2025.5,783.827 2500.94,780.294 2956.45,759.069C3051.54,754.639 3107.64,745.71 3107.64,729.255L3107.64,491.151Z" style="fill:rgb(47,51,52);stroke:rgb(17,23,23);stroke-width:7.64px;"/>
        </g>
        <g transform="matrix(0.175311,0,0,0.961474,1139.22,-302.153)">
            <path d="M3107.64,491.151C3107.64,474.696 3039.89,461.337 2956.45,461.337L1518.17,461.337C1434.73,461.337 1366.98,474.696 1366.98,491.151L1366.98,729.255C1366.98,745.71 1451.08,755.795 1518.17,759.069C2025.5,783.827 2500.94,780.294 2956.45,759.069C3051.54,754.639 3107.64,745.71 3107.64,729.255L3107.64,491.151Z" style="fill:rgb(47,51,52);stroke:rgb(17,23,23);stroke-width:7.64px;"/>
        </g>
        <g transform="matrix(0.175311,0,0,0.961474,1478.31,-302.153)">
            <path d="M3107.64,491.151C3107.64,474.696 3039.89,461.337 2956.45,461.337L1518.17,461.337C1434.73,461.337 1366.98,474.696 1366.98,491.151L1366.98,729.255C1366.98,745.71 1451.08,755.795 1518.17,759.069C2025.5,783.827 2500.94,780.294 2956.45,759.069C3051.54,754.639 3107.64,745.71 3107.64,729.255L3107.64,491.151Z" style="fill:rgb(47,51,52);stroke:rgb(17,23,23);stroke-width:7.64px;"/>
        </g>
        <g transform="matrix(0.175311,0,0,0.961474,1817.41,-302.153)">
            <path d="M3107.64,491.151C3107.64,474.696 3039.89,461.337 2956.45,461.337L1518.17,461.337C1434.73,461.337 1366.98,474.696 1366.98,491.151L1366.98,729.255C1366.98,745.71 1451.08,755.795 1518.17,759.069C2025.5,783.827 2500.94,780.294 2956.45,759.069C3051.54,754.639 3107.64,745.71 3107.64,729.255L3107.64,491.151Z" style="fill:rgb(47,51,52);stroke:rgb(17,23,23);stroke-width:7.64px;"/>
        </g>
        <g transform="matrix(0.175311,0,0,0.961474,2156.51,-302.153)">
            <path d="M3107.64,491.151C3107.64,474.696 3039.89,461.337 2956.45,461.337L1518.17,461.337C1434.73,461.337 1366.98,474.696 1366.98,491.151L1366.98,729.255C1366.98,745.71 1451.08,755.795 1518.17,759.069C2025.5,783.827 2500.94,780.294 2956.45,759.069C3051.54,754.639 3107.64,745.71 3107.64,729.255L3107.64,491.151Z" style="fill:rgb(47,51,52);stroke:rgb(17,23,23);stroke-width:7.64px;"/>
        </g>
        <g transform="matrix(0.175311,0,0,0.961474,2495.61,-302.153)">
            <path d="M3107.64,491.151C3107.64,474.696 3039.89,461.337 2956.45,461.337L1518.17,461.337C1434.73,461.337 1366.98,474.696 1366.98,491.151L1366.98,729.255C1366.98,745.71 1451.08,755.795 1518.17,759.069C2025.5,783.827 2500.94,780.294 2956.45,759.069C3051.54,754.639 3107.64,745.71 3107.64,729.255L3107.64,491.151Z" style="fill:rgb(47,51,52);stroke:rgb(17,23,23);stroke-width:7.64px;"/>
        </g>
        <g transform="matrix(0.175311,0,0,0.961474,2834.71,-302.153)">
            <path d="M3107.64,491.151C3107.64,474.696 3039.89,461.337 2956.45,461.337L1518.17,461.337C1434.73,461.337 1366.98,474.696 1366.98,491.151L1366.98,729.255C1366.98,745.71 1451.08,755.795 1518.17,759.069C2025.5,783.827 2500.94,780.294 2956.45,759.069C3051.54,754.639 3107.64,745.71 3107.64,729.255L3107.64,491.151Z" style="fill:rgb(47,51,52);stroke:rgb(17,23,23);stroke-width:7.64px;"/>
        </g>
        <g transform="matrix(0.175311,0,0,0.961474,3173.8,-302.153)">
            <path d="M3107.64,491.151C3107.64,474.696 3039.89,461.337 2956.45,461.337L1518.17,461.337C1434.73,461.337 1366.98,474.696 1366.98,491.151L1366.98,729.255C1366.98,745.71 1451.08,755.795 1518.17,759.069C2025.5,783.827 2500.94,780.294 2956.45,759.069C3051.54,754.639 3107.64,745.71 3107.64,729.255L3107.64,491.151Z" style="fill:rgb(47,51,52);stroke:rgb(17,23,23);stroke-width:7.64px;"/>
        </g>
        <g transform="matrix(0.175311,0,0,0.961474,3512.9,-302.153)">
            <path d="M3107.64,491.151C3107.64,474.696 3039.89,461.337 2956.45,461.337L1518.17,461.337C1434.73,461.337 1366.98,474.696 1366.98,491.151L1366.98,729.255C1366.98,745.71 1451.08,755.795 1518.17,759.069C2025.5,783.827 2500.94,780.294 2956.45,759.069C3051.54,754.639 3107.64,745.71 3107.64,729.255L3107.64,491.151Z" style="fill:rgb(47,51,52);stroke:rgb(17,23,23);stroke-width:7.64px;"/>
        </g>
        <g transform="matrix(0.175311,0,0,0.961474,280.188,-641.877)">
            <path d="M3107.64,491.151C3107.64,474.696 3039.89,461.337 2956.45,461.337L1518.17,461.337C1434.73,461.337 1366.98,474.696 1366.98,491.151L1366.98,729.255C1366.98,745.71 1451.08,755.795 1518.17,759.069C2025.5,783.827 2500.94,780.294 2956.45,759.069C3051.54,754.639 3107.64,745.71 3107.64,729.255L3107.64,491.151Z" style="fill:rgb(47,51,52);stroke:rgb(17,23,23);stroke-width:7.64px;"/>
        </g>
        <g transform="matrix(0.175311,0,0,0.961474,619.286,-641.877)">
            <path d="M3107.64,491.151C3107.64,474.696 3039.89,461.337 2956.45,461.337L1518.17,461.337C1434.73,461.337 1366.98,474.696 1366.98,491.151L1366.98,729.255C1366.98,745.71 1451.08,755.795 1518.17,759.069C2025.5,783.827 2500.94,780.294 2956.45,759.069C3051.54,754.639 3107.64,745.71 3107.64,729.255L3107.64,491.151Z" style="fill:rgb(47,51,52);stroke:rgb(17,23,23);stroke-width:7.64px;"/>
        </g>
        <g transform="matrix(0.175311,0,0,0.961474,958.384,-641.877)">
            <path d="M3107.64,491.151C3107.64,474.696 3039.89,461.337 2956.45,461.337L1518.17,461.337C1434.73,461.337 1366.98,474.696 1366.98,491.151L1366.98,729.255C1366.98,745.71 1451.08,755.795 1518.17,759.069C2025.5,783.827 2500.94,780.294 2956.45,759.069C3051.54,754.639 3107.64,745.71 3107.64,729.255L3107.64,491.151Z" style="fill:rgb(47,51,52);stroke:rgb(17,23,23);stroke-width:7.64px;"/>
        </g>
        <g transform="matrix(0.175311,0,0,0.961474,1297.48,-641.877)">
            <path d="M3107.64,491.151C3107.64,474.696 3039.89,461.337 2956.45,461.337L1518.17,461.337C1434.73,461.337 1366.98,474.696 1366.98,491.151L1366.98,729.255C1366.98,745.71 1451.08,755.795 1518.17,759.069C2025.5,783.827 2500.94,780.294 2956.45,759.069C3051.54,754.639 3107.64,745.71 3107.64,729.255L3107.64,491.151Z" style="fill:rgb(47,51,52);stroke:rgb(17,23,23);stroke-width:7.64px;"/>
        </g>
        <g transform="matrix(0.175311,0,0,0.961474,1636.58,-641.877)">
            <path d="M3107.64,491.151C3107.64,474.696 3039.89,461.337 2956.45,461.337L1518.17,461.337C1434.73,461.337 1366.98,474.696 1366.98,491.151L1366.98,729.255C1366.98,745.71 1451.08,755.795 1518.17,759.069C2025.5,783.827 2500.94,780.294 2956.45,759.069C3051.54,754.639 3107.64,745.71 3107.64,729.255L3107.64,491.151Z" style="fill:rgb(47,51,52);stroke:rgb(17,23,23);stroke-width:7.64px;"/>
        </g>
        <g transform="matrix(0.175311,0,0,0.961474,1975.68,-641.877)">
            <path d="M3107.64,491.151C3107.64,474.696 3039.89,461.337 2956.45,461.337L1518.17,461.337C1434.73,461.337 1366.98,474.696 1366.98,491.151L1366.98,729.255C1366.98,745.71 1451.08,755.795 1518.17,759.069C2025.5,783.827 2500.94,780.294 2956.45,759.069C3051.54,754.639 3107.64,745.71 3107.64,729.255L3107.64,491.151Z" style="fill:rgb(47,51,52);stroke:rgb(17,23,23);stroke-width:7.64px;"/>
        </g>
        <g transform="matrix(0.175311,0,0,0.961474,2314.78,-641.877)">
            <path d="M3107.64,491.151C3107.64,474.696 3039.89,461.337 2956.45,461.337L1518.17,461.337C1434.73,461.337 1366.98,474.696 1366.98,491.151L1366.98,729.255C1366.98,745.71 1451.08,755.795 1518.17,759.069C2025.5,783.827 2500.94,780.294 2956.45,759.069C3051.54,754.639 3107.64,745.71 3107.64,729.255L3107.64,491.151Z" style="fill:rgb(47,51,52);stroke:rgb(17,23,23);stroke-width:7.64px;"/>
        </g>
        <g transform="matrix(0.175311,0,0,0.961474,2653.87,-641.877)">
            <path d="M3107.64,491.151C3107.64,474.696 3039.89,461.337 2956.45,461.337L1518.17,461.337C1434.73,461.337 1366.98,474.696 1366.98,491.151L1366.98,729.255C1366.98,745.71 1451.08,755.795 1518.17,759.069C2025.5,783.827 2500.94,780.294 2956.45,759.069C3051.54,754.639 3107.64,745.71 3107.64,729.255L3107.64,491.151Z" style="fill:rgb(47,51,52);stroke:rgb(17,23,23);stroke-width:7.64px;"/>
        </g>
        <g transform="matrix(0.175311,0,0,0.961474,2992.97,-641.877)">
            <path d="M3107.64,491.151C3107.64,474.696 3039.89,461.337 2956.45,461.337L1518.17,461.337C1434.73,461.337 1366.98,474.696 1366.98,491.151L1366.98,729.255C1366.98,745.71 1451.08,755.795 1518.17,759.069C2025.5,783.827 2500.94,780.294 2956.45,759.069C3051.54,754.639 3107.64,745.71 3107.64,729.255L3107.64,491.151Z" style="fill:rgb(47,51,52);stroke:rgb(17,23,23);stroke-width:7.64px;"/>
        </g>
        <g transform="matrix(0.175311,0,0,0.961474,3332.07,-641.877)">
            <path d="M3107.64,491.151C3107.64,474.696 3039.89,461.337 2956.45,461.337L1518.17,461.337C1434.73,461.337 1366.98,474.696 1366.98,491.151L1366.98,729.255C1366.98,745.71 1451.08,755.795 1518.17,759.069C2025.5,783.827 2500.94,780.294 2956.45,759.069C3051.54,754.639 3107.64,745.71 3107.64,729.255L3107.64,491.151Z" style="fill:rgb(47,51,52);stroke:rgb(17,23,23);stroke-width:7.64px;"/>
        </g>
        <g transform="matrix(0.175311,0,0,0.961474,3671.17,-641.877)">
            <path d="M3107.64,491.151C3107.64,474.696 3039.89,461.337 2956.45,461.337L1518.17,461.337C1434.73,461.337 1366.98,474.696 1366.98,491.151L1366.98,729.255C1366.98,745.71 1451.08,755.795 1518.17,759.069C2025.5,783.827 2500.94,780.294 2956.45,759.069C3051.54,754.639 3107.64,745.71 3107.64,729.255L3107.64,491.151Z" style="fill:rgb(47,51,52);stroke:rgb(17,23,23);stroke-width:7.64px;"/>
        </g>
        <g transform="matrix(1.33748,0,0,1.33748,302.977,-588.293)">
            <g transform="matrix(70,0,0,70,336.69,634.675)">
                <path d="M0.02,-0L0.02,-0.088L0.387,-0.546C0.413,-0.579 0.438,-0.607 0.461,-0.631L0.062,-0.631L0.062,-0.716L0.574,-0.716L0.574,-0.631L0.172,-0.135L0.129,-0.084L0.586,-0.084L0.586,-0L0.02,-0Z" style="fill:white;fill-rule:nonzero;"/>
            </g>
        </g>
        <g transform="matrix(1.33748,0,0,1.33748,623.781,-588.293)">
            <g transform="matrix(70,0,0,70,336.69,634.675)">
                <path d="M0.004,-0L0.281,-0.373L0.037,-0.716L0.15,-0.716L0.28,-0.532C0.307,-0.494 0.326,-0.465 0.337,-0.444C0.353,-0.47 0.372,-0.498 0.394,-0.526L0.538,-0.716L0.641,-0.716L0.39,-0.378L0.661,-0L0.543,-0L0.363,-0.255C0.353,-0.27 0.343,-0.286 0.332,-0.303C0.316,-0.277 0.305,-0.259 0.298,-0.25L0.118,-0L0.004,-0Z" style="fill:white;fill-rule:nonzero;"/>
            </g>
        </g>
        <g transform="matrix(1.33748,0,0,1.33748,962.859,-587.15)">
            <g transform="matrix(70,0,0,70,336.69,634.675)">
                <path d="M0.588,-0.251L0.683,-0.227C0.663,-0.149 0.627,-0.09 0.575,-0.049C0.524,-0.008 0.461,0.012 0.386,0.012C0.309,0.012 0.246,-0.003 0.198,-0.035C0.15,-0.066 0.113,-0.112 0.088,-0.171C0.062,-0.231 0.05,-0.295 0.05,-0.363C0.05,-0.438 0.064,-0.503 0.093,-0.558C0.121,-0.614 0.162,-0.656 0.214,-0.685C0.267,-0.714 0.325,-0.728 0.388,-0.728C0.459,-0.728 0.52,-0.71 0.568,-0.673C0.617,-0.637 0.651,-0.586 0.67,-0.52L0.577,-0.498C0.561,-0.55 0.536,-0.588 0.505,-0.611C0.473,-0.635 0.434,-0.647 0.386,-0.647C0.331,-0.647 0.285,-0.634 0.248,-0.607C0.211,-0.581 0.185,-0.546 0.17,-0.501C0.155,-0.457 0.147,-0.411 0.147,-0.364C0.147,-0.303 0.156,-0.25 0.174,-0.204C0.192,-0.159 0.219,-0.125 0.257,-0.103C0.294,-0.08 0.335,-0.069 0.378,-0.069C0.431,-0.069 0.476,-0.084 0.513,-0.115C0.55,-0.145 0.575,-0.191 0.588,-0.251Z" style="fill:white;fill-rule:nonzero;"/>
            </g>
        </g>
        <g transform="matrix(1.33748,0,0,1.33748,1295.84,-588.293)">
            <g transform="matrix(70,0,0,70,336.69,634.675)">
                <path d="M0.282,-0L0.004,-0.716L0.107,-0.716L0.293,-0.196C0.308,-0.154 0.32,-0.115 0.331,-0.079C0.342,-0.118 0.354,-0.157 0.369,-0.196L0.563,-0.716L0.659,-0.716L0.379,-0L0.282,-0Z" style="fill:white;fill-rule:nonzero;"/>
            </g>
        </g>
        <g transform="matrix(1.33748,0,0,1.33748,1636.95,-588.293)">
            <g transform="matrix(70,0,0,70,336.69,634.675)">
                <path d="M0.073,-0L0.073,-0.716L0.342,-0.716C0.396,-0.716 0.44,-0.709 0.473,-0.694C0.506,-0.68 0.532,-0.657 0.551,-0.627C0.57,-0.597 0.579,-0.566 0.579,-0.533C0.579,-0.502 0.571,-0.473 0.554,-0.446C0.538,-0.419 0.513,-0.397 0.479,-0.381C0.522,-0.368 0.556,-0.347 0.579,-0.316C0.602,-0.285 0.614,-0.249 0.614,-0.208C0.614,-0.174 0.607,-0.143 0.593,-0.114C0.578,-0.085 0.561,-0.063 0.54,-0.047C0.519,-0.032 0.493,-0.02 0.462,-0.012C0.43,-0.004 0.392,-0 0.346,-0L0.073,-0ZM0.168,-0.415L0.323,-0.415C0.365,-0.415 0.395,-0.418 0.413,-0.423C0.437,-0.431 0.455,-0.442 0.468,-0.459C0.48,-0.476 0.486,-0.496 0.486,-0.521C0.486,-0.545 0.48,-0.566 0.469,-0.584C0.457,-0.602 0.441,-0.615 0.42,-0.621C0.399,-0.628 0.362,-0.631 0.311,-0.631L0.168,-0.631L0.168,-0.415ZM0.168,-0.084L0.346,-0.084C0.377,-0.084 0.398,-0.086 0.411,-0.088C0.432,-0.092 0.451,-0.098 0.465,-0.107C0.48,-0.117 0.492,-0.13 0.501,-0.147C0.511,-0.165 0.516,-0.185 0.516,-0.208C0.516,-0.234 0.509,-0.257 0.495,-0.277C0.481,-0.297 0.462,-0.311 0.438,-0.319C0.414,-0.327 0.379,-0.331 0.333,-0.331L0.168,-0.331L0.168,-0.084Z" style="fill:white;fill-rule:nonzero;"/>
            </g>
        </g>
        <g transform="matrix(1.33748,0,0,1.33748,1969.94,-588.293)">
            <g transform="matrix(70,0,0,70,336.69,634.675)">
                <path d="M0.076,-0L0.076,-0.716L0.173,-0.716L0.549,-0.154L0.549,-0.716L0.64,-0.716L0.64,-0L0.543,-0L0.167,-0.563L0.167,-0L0.076,-0Z" style="fill:white;fill-rule:nonzero;"/>
            </g>
        </g>
        <g transform="matrix(1.33748,0,0,1.33748,2311.05,-588.293)">
            <g transform="matrix(70,0,0,70,336.69,634.675)">
                <path d="M0.074,-0L0.074,-0.716L0.217,-0.716L0.386,-0.209C0.402,-0.162 0.413,-0.126 0.42,-0.103C0.429,-0.129 0.441,-0.167 0.458,-0.218L0.63,-0.716L0.757,-0.716L0.757,-0L0.666,-0L0.666,-0.599L0.458,-0L0.373,-0L0.166,-0.609L0.166,-0L0.074,-0Z" style="fill:white;fill-rule:nonzero;"/>
            </g>
        </g>
        <g transform="matrix(1.33748,0,0,1.33748,2658.25,-606.762)">
            <g transform="matrix(70,0,0,70,336.69,634.675)">
                <path d="M0.089,-0.418L0.089,-0.519L0.189,-0.519L0.189,-0.418L0.089,-0.418ZM0.089,-0L0.089,-0.1L0.189,-0.1L0.189,-0C0.189,0.037 0.182,0.066 0.169,0.089C0.156,0.112 0.136,0.129 0.107,0.142L0.083,0.104C0.102,0.096 0.115,0.084 0.124,0.068C0.133,0.052 0.138,0.03 0.139,-0L0.089,-0Z" style="fill:white;fill-rule:nonzero;"/>
            </g>
        </g>
        <g transform="matrix(1.33748,0,0,1.33748,2981.76,-606.762)">
            <g transform="matrix(70,0,0,70,336.69,634.675)">
                <path d="M0.09,-0.418L0.09,-0.519L0.19,-0.519L0.19,-0.418L0.09,-0.418ZM0.09,-0L0.09,-0.1L0.19,-0.1L0.19,-0L0.09,-0Z" style="fill:white;fill-rule:nonzero;"/>
            </g>
        </g>
        <g transform="matrix(1.33748,0,0,1.33748,3336.41,-602.922)">
            <g transform="matrix(70,0,0,70,336.69,634.675)">
                <rect x="0.032" y="-0.303" width="0.27" height="0.088" style="fill:white;fill-rule:nonzero;"/>
            </g>
        </g>
        <g transform="matrix(1,0,0,1,726.885,-36.5473)">
            <g transform="matrix(70,0,0,70,336.69,634.675)">
                <path d="M-0.001,-0L0.273,-0.716L0.375,-0.716L0.668,-0L0.561,-0L0.477,-0.217L0.178,-0.217L0.099,-0L-0.001,-0ZM0.205,-0.294L0.448,-0.294L0.373,-0.492C0.35,-0.552 0.333,-0.602 0.322,-0.641C0.313,-0.595 0.3,-0.549 0.284,-0.504L0.205,-0.294Z" style="fill:white;fill-rule:nonzero;"/>
            </g>
            <g transform="matrix(70,0,0,70,383.379,634.675)">
                <rect x="0.064" y="-0.716" width="0.088" height="0.716" style="fill:white;fill-rule:nonzero;"/>
            </g>
            <g transform="matrix(70,0,0,70,398.931,634.675)">
                <path d="M0.258,-0.079L0.271,-0.001C0.246,0.004 0.224,0.007 0.204,0.007C0.172,0.007 0.147,0.002 0.13,-0.008C0.112,-0.018 0.1,-0.032 0.093,-0.048C0.086,-0.065 0.082,-0.099 0.082,-0.152L0.082,-0.45L0.018,-0.45L0.018,-0.519L0.082,-0.519L0.082,-0.647L0.169,-0.7L0.169,-0.519L0.258,-0.519L0.258,-0.45L0.169,-0.45L0.169,-0.147C0.169,-0.122 0.171,-0.106 0.174,-0.099C0.177,-0.091 0.182,-0.086 0.189,-0.082C0.196,-0.077 0.206,-0.075 0.219,-0.075C0.229,-0.075 0.242,-0.076 0.258,-0.079Z" style="fill:white;fill-rule:nonzero;"/>
            </g>
        </g>
        <g transform="matrix(0.589191,0,0,0.572022,353.109,210.776)">
            <path d="M911.297,558.159L781.29,587.54L782.567,666.723L912.149,699.936L911.297,558.159Z" style="fill:white;"/>
        </g>
        <g transform="matrix(0.499413,0,0,0.499413,1861.42,249.763)">
            <g transform="matrix(141.5,0,0,141.5,3170.62,662.991)">
                <path d="M0.077,-0L0.077,-0.716L0.347,-0.716C0.395,-0.716 0.431,-0.714 0.456,-0.709C0.491,-0.703 0.521,-0.692 0.544,-0.676C0.568,-0.659 0.587,-0.636 0.602,-0.606C0.616,-0.577 0.624,-0.544 0.624,-0.509C0.624,-0.448 0.604,-0.396 0.565,-0.354C0.527,-0.312 0.457,-0.291 0.355,-0.291L0.172,-0.291L0.172,-0L0.077,-0ZM0.172,-0.375L0.357,-0.375C0.418,-0.375 0.462,-0.387 0.487,-0.41C0.513,-0.432 0.526,-0.465 0.526,-0.506C0.526,-0.536 0.518,-0.561 0.503,-0.583C0.488,-0.604 0.468,-0.618 0.443,-0.625C0.427,-0.629 0.398,-0.631 0.355,-0.631L0.172,-0.631L0.172,-0.375Z" style="fill:white;fill-rule:nonzero;"/>
            </g>
            <g transform="matrix(141.5,0,0,141.5,3265,662.991)">
                <path d="M0.065,-0L0.065,-0.519L0.144,-0.519L0.144,-0.44C0.164,-0.477 0.183,-0.501 0.2,-0.513C0.217,-0.524 0.236,-0.53 0.256,-0.53C0.286,-0.53 0.316,-0.521 0.347,-0.502L0.316,-0.42C0.295,-0.433 0.273,-0.439 0.252,-0.439C0.233,-0.439 0.215,-0.434 0.2,-0.422C0.185,-0.411 0.174,-0.395 0.167,-0.374C0.158,-0.343 0.153,-0.309 0.153,-0.271L0.153,-0L0.065,-0Z" style="fill:white;fill-rule:nonzero;"/>
            </g>
            <g transform="matrix(141.5,0,0,141.5,3312.12,662.991)">
                <path d="M0.258,-0.079L0.271,-0.001C0.246,0.004 0.224,0.007 0.204,0.007C0.172,0.007 0.147,0.002 0.13,-0.008C0.112,-0.018 0.1,-0.032 0.093,-0.048C0.086,-0.065 0.082,-0.099 0.082,-0.152L0.082,-0.45L0.018,-0.45L0.018,-0.519L0.082,-0.519L0.082,-0.647L0.169,-0.7L0.169,-0.519L0.258,-0.519L0.258,-0.45L0.169,-0.45L0.169,-0.147C0.169,-0.122 0.171,-0.106 0.174,-0.099C0.177,-0.091 0.182,-0.086 0.189,-0.082C0.196,-0.077 0.206,-0.075 0.219,-0.075C0.229,-0.075 0.242,-0.076 0.258,-0.079Z" style="fill:white;fill-rule:nonzero;"/>
            </g>
            <g transform="matrix(141.5,0,0,141.5,3351.43,662.991)">
                <path d="M0.045,-0.23L0.134,-0.238C0.139,-0.202 0.148,-0.173 0.164,-0.15C0.179,-0.127 0.203,-0.108 0.236,-0.094C0.268,-0.08 0.305,-0.073 0.346,-0.073C0.382,-0.073 0.414,-0.078 0.441,-0.089C0.469,-0.1 0.49,-0.114 0.503,-0.133C0.517,-0.152 0.523,-0.172 0.523,-0.194C0.523,-0.217 0.517,-0.236 0.504,-0.253C0.491,-0.27 0.469,-0.284 0.439,-0.295C0.42,-0.303 0.378,-0.315 0.312,-0.33C0.246,-0.346 0.2,-0.361 0.174,-0.375C0.14,-0.393 0.114,-0.415 0.097,-0.442C0.081,-0.468 0.072,-0.498 0.072,-0.531C0.072,-0.567 0.083,-0.601 0.103,-0.632C0.124,-0.663 0.153,-0.687 0.193,-0.704C0.232,-0.72 0.276,-0.728 0.324,-0.728C0.377,-0.728 0.424,-0.719 0.465,-0.702C0.505,-0.685 0.536,-0.66 0.558,-0.627C0.58,-0.594 0.592,-0.556 0.593,-0.514L0.502,-0.507C0.498,-0.553 0.481,-0.587 0.453,-0.61C0.425,-0.633 0.383,-0.645 0.328,-0.645C0.271,-0.645 0.229,-0.634 0.203,-0.613C0.177,-0.592 0.164,-0.567 0.164,-0.537C0.164,-0.511 0.173,-0.49 0.191,-0.474C0.21,-0.457 0.257,-0.44 0.334,-0.423C0.411,-0.405 0.464,-0.39 0.493,-0.377C0.534,-0.358 0.565,-0.333 0.585,-0.304C0.605,-0.274 0.615,-0.241 0.615,-0.202C0.615,-0.164 0.604,-0.128 0.582,-0.094C0.56,-0.061 0.529,-0.035 0.488,-0.016C0.447,0.003 0.401,0.012 0.35,0.012C0.285,0.012 0.231,0.003 0.187,-0.016C0.143,-0.035 0.109,-0.063 0.084,-0.101C0.059,-0.139 0.046,-0.182 0.045,-0.23Z" style="fill:white;fill-rule:nonzero;"/>
            </g>
            <g transform="matrix(141.5,0,0,141.5,3445.81,662.991)">
                <path d="M0.404,-0.19L0.491,-0.179C0.481,-0.119 0.457,-0.073 0.418,-0.039C0.379,-0.005 0.332,0.012 0.275,0.012C0.204,0.012 0.147,-0.011 0.104,-0.058C0.061,-0.104 0.039,-0.171 0.039,-0.257C0.039,-0.313 0.048,-0.362 0.067,-0.404C0.085,-0.446 0.114,-0.478 0.152,-0.499C0.19,-0.52 0.231,-0.53 0.275,-0.53C0.332,-0.53 0.378,-0.516 0.414,-0.488C0.449,-0.459 0.472,-0.419 0.482,-0.366L0.397,-0.353C0.389,-0.388 0.374,-0.414 0.354,-0.432C0.333,-0.449 0.308,-0.458 0.279,-0.458C0.235,-0.458 0.199,-0.442 0.171,-0.41C0.143,-0.379 0.129,-0.328 0.129,-0.26C0.129,-0.19 0.143,-0.139 0.169,-0.108C0.196,-0.076 0.231,-0.061 0.274,-0.061C0.308,-0.061 0.337,-0.071 0.36,-0.092C0.383,-0.113 0.398,-0.146 0.404,-0.19Z" style="fill:white;fill-rule:nonzero;"/>
            </g>
        </g>
        <g transform="matrix(0.499413,0,0,0.499413,2205.77,247.164)">
            <g transform="matrix(141.5,0,0,141.5,3170.62,662.991)">
                <path d="M0.588,-0.251L0.683,-0.227C0.663,-0.149 0.627,-0.09 0.575,-0.049C0.524,-0.008 0.461,0.012 0.386,0.012C0.309,0.012 0.246,-0.003 0.198,-0.035C0.15,-0.066 0.113,-0.112 0.088,-0.171C0.062,-0.231 0.05,-0.295 0.05,-0.363C0.05,-0.438 0.064,-0.503 0.093,-0.558C0.121,-0.614 0.162,-0.656 0.214,-0.685C0.267,-0.714 0.325,-0.728 0.388,-0.728C0.459,-0.728 0.52,-0.71 0.568,-0.673C0.617,-0.637 0.651,-0.586 0.67,-0.52L0.577,-0.498C0.561,-0.55 0.536,-0.588 0.505,-0.611C0.473,-0.635 0.434,-0.647 0.386,-0.647C0.331,-0.647 0.285,-0.634 0.248,-0.607C0.211,-0.581 0.185,-0.546 0.17,-0.501C0.155,-0.457 0.147,-0.411 0.147,-0.364C0.147,-0.303 0.156,-0.25 0.174,-0.204C0.192,-0.159 0.219,-0.125 0.257,-0.103C0.294,-0.08 0.335,-0.069 0.378,-0.069C0.431,-0.069 0.476,-0.084 0.513,-0.115C0.55,-0.145 0.575,-0.191 0.588,-0.251Z" style="fill:white;fill-rule:nonzero;"/>
            </g>
            <g transform="matrix(141.5,0,0,141.5,3272.81,662.991)">
                <path d="M0.258,-0.079L0.271,-0.001C0.246,0.004 0.224,0.007 0.204,0.007C0.172,0.007 0.147,0.002 0.13,-0.008C0.112,-0.018 0.1,-0.032 0.093,-0.048C0.086,-0.065 0.082,-0.099 0.082,-0.152L0.082,-0.45L0.018,-0.45L0.018,-0.519L0.082,-0.519L0.082,-0.647L0.169,-0.7L0.169,-0.519L0.258,-0.519L0.258,-0.45L0.169,-0.45L0.169,-0.147C0.169,-0.122 0.171,-0.106 0.174,-0.099C0.177,-0.091 0.182,-0.086 0.189,-0.082C0.196,-0.077 0.206,-0.075 0.219,-0.075C0.229,-0.075 0.242,-0.076 0.258,-0.079Z" style="fill:white;fill-rule:nonzero;"/>
            </g>
            <g transform="matrix(141.5,0,0,141.5,3312.12,662.991)">
                <path d="M0.065,-0L0.065,-0.519L0.144,-0.519L0.144,-0.44C0.164,-0.477 0.183,-0.501 0.2,-0.513C0.217,-0.524 0.236,-0.53 0.256,-0.53C0.286,-0.53 0.316,-0.521 0.347,-0.502L0.316,-0.42C0.295,-0.433 0.273,-0.439 0.252,-0.439C0.233,-0.439 0.215,-0.434 0.2,-0.422C0.185,-0.411 0.174,-0.395 0.167,-0.374C0.158,-0.343 0.153,-0.309 0.153,-0.271L0.153,-0L0.065,-0Z" style="fill:white;fill-rule:nonzero;"/>
            </g>
            <g transform="matrix(141.5,0,0,141.5,3359.24,662.991)">
                <rect x="0.064" y="-0.716" width="0.088" height="0.716" style="fill:white;fill-rule:nonzero;"/>
            </g>
        </g>
    </g>
    <defs>
        <linearGradient id="_Linear1" x1="0" y1="0" x2="1" y2="0" gradientUnits="userSpaceOnUse" gradientTransform="matrix(4718.16,0,0,2700.44,-34.8385,1291.05)"><stop offset="0" style="stop-color:rgb(26,27,31);stop-opacity:1"/><stop offset="1" style="stop-color:rgb(82,91,93);stop-opacity:1"/></linearGradient>
    </defs>
</svg>
